<?xml version="1.0" encoding="utf-8"?>
<!-- Generator: Adobe Illustrator 25.2.0, SVG Export Plug-In . SVG Version: 6.00 Build 0)  -->
<svg version="1.1" id="Layer_1" xmlns="http://www.w3.org/2000/svg" xmlns:xlink="http://www.w3.org/1999/xlink" x="0px" y="0px"
	 viewBox="0 0 1440 771" style="enable-background:new 0 0 1440 771;" xml:space="preserve">
<style type="text/css">
	.st0{clip-path:url(#SVGID_2_);}
	.st1{fill:#E3E3E3;stroke:#000000;stroke-width:2;stroke-linejoin:round;stroke-miterlimit:10;}
	.st2{fill:#31C77F;stroke:#000000;stroke-width:2;stroke-linejoin:round;stroke-miterlimit:10;}
	.st3{fill:none;stroke:#000000;stroke-width:2;stroke-linejoin:round;stroke-miterlimit:10;}
	.st4{fill:#354357;}
	.st5{fill:#EFEEEE;}
	.st6{fill:#F4F4F4;}
	.st7{fill:#EFEEEE;stroke:#000000;stroke-width:2;}
	.st8{fill:#DFDFDF;}
	.st9{fill:#DFDFDF;stroke:#000000;stroke-width:2;}
	.st10{fill-rule:evenodd;clip-rule:evenodd;fill:#FFFFFF;}
	.st11{fill-rule:evenodd;clip-rule:evenodd;fill:#FFFFFF;filter:url(#Adobe_OpacityMaskFilter);}
	.st12{mask:url(#path-12-inside-1_1_);fill:#333333;}
	.st13{fill:#C4C4C4;}
	.st14{fill:#E7E7E7;stroke:#F3F2F2;}
	.st15{fill:#FBFBFB;}
	.st16{fill:#31C77F;stroke:#1A2028;stroke-width:2;stroke-linejoin:round;stroke-miterlimit:10;}
	.st17{fill:none;stroke:#1A2028;stroke-width:2;stroke-linejoin:round;stroke-miterlimit:10;}
	.st18{fill:#EDEEEF;stroke:#1A2028;stroke-width:2;stroke-linejoin:round;stroke-miterlimit:10;}
	.st19{fill:#31C77F;stroke:#1A2028;stroke-width:2;stroke-linecap:round;stroke-linejoin:round;stroke-miterlimit:10;}
	.st20{fill:none;stroke:#1A2028;stroke-width:2;stroke-linecap:round;stroke-linejoin:round;stroke-miterlimit:10;}
	.st21{fill:#E3E3E3;stroke:#000000;stroke-width:1.7536;stroke-linecap:round;stroke-linejoin:round;stroke-miterlimit:10;}
	.st22{fill:#DFDFDF;stroke:#000000;stroke-width:2;stroke-linecap:round;stroke-linejoin:round;stroke-miterlimit:10;}
	.st23{fill:#ECECEC;}
	.st24{fill:none;stroke:#000000;stroke-width:1.7536;stroke-linecap:round;stroke-linejoin:round;stroke-miterlimit:10;}
	.st25{fill:#E6E6E6;stroke:#000000;stroke-width:1.5;stroke-linecap:round;stroke-linejoin:round;stroke-miterlimit:10;}
	.st26{fill:none;stroke:#000000;}
	.st27{fill:#778383;}
	.st28{fill:#FFFFFF;}
	.st29{fill:#31C77F;}
	.st30{fill:#FEFEFE;}
	.st31{fill:#E7EBEB;}
	.st32{fill:#EFF2F2;}
	.st33{fill:#030202;}
	.st34{fill:#FDFDFD;}
	.st35{fill:#0E0D0D;}
	.st36{fill:#191717;}
	.st37{fill:#DFDFDF;stroke:#1A2028;stroke-width:2;stroke-linecap:round;stroke-linejoin:round;stroke-miterlimit:10;}
	.st38{fill:none;}
</style>
<g>
	<defs>
		<rect id="SVGID_1_" width="1440" height="771"/>
	</defs>
	<clipPath id="SVGID_2_">
		<use xlink:href="#SVGID_1_"  style="overflow:visible;"/>
	</clipPath>
	<g class="st0">
		<path class="st1" d="M1094.1,590c5,0,9-4,9-9s-4-9-9-9s-9,4-9,9S1089.1,590,1094.1,590z"/>
		<path class="st2" d="M1094.1,586c2.8,0,5-2.2,5-5s-2.2-5-5-5s-5,2.2-5,5S1091.3,586,1094.1,586z"/>
		<path class="st3" d="M1094.1,576v10"/>
		<path class="st3" d="M1089.1,581h10"/>
		<path class="st4" d="M46.2,667.9c100.1,61.5,539.3,27.1,669.8-46s151.5,0,210.6,0c85.5,0,124.1-102.5,240.2-55.6
			S1612,678.8,1612,678.8V778H40L46.2,667.9z"/>
		<path class="st5" d="M46.2,667.9c100.1,61.5,539.3,27.1,669.8-46s151.5,0,210.6,0c85.5,0,124.1-102.5,240.2-55.6
			S1612,678.8,1612,678.8V778H40L46.2,667.9z"/>
		<path class="st6" d="M554,708.9L692,779h1000V555c-11.4,2-22.9,4.4-34.5,6c-4.2,0.6-8.5,1.1-12.8,1.4c-26.7,2.1-53.6,1.3-80.9,1.3
			c-54.8,0-110.8,0.8-163.4,7.8c-15.4,2-30.7,4.5-45.9,7.3c-11,2-22,4.2-32.9,6.5c-20.5,4.3-40.9,8.9-61.3,13.5
			c-13.3,3-26.6,6-39.9,8.9c-45.1,9.8-90.4,18.5-137,22c-1.4,0.1-2.9,0.2-4.4,0.3c-30,2.4-59.4,6.3-88.8,10.6
			c-35,5.1-69.8,10.7-104.9,14.8c-19.4,2.3-38.8,4.6-58.3,6.9C782.3,667.6,599.3,703.4,554,708.9z"/>
		<path class="st7" d="M1016.2,696.5c0,0.7,0,1.3,0,1.8h152.1v-64.6l-30-69.3l-46.8-13.8l-39.8,20.5l-35.6,62.7c0,0,0,0,0,0.1
			c0,0.1,0,0.4,0,0.6c0,0.5,0,1.3-0.1,2.2c0,1.9-0.1,4.5-0.1,7.6c0,6.2,0,14.4,0,22.5c0,8.1,0.1,16.2,0.1,22.3
			C1016.1,692.2,1016.1,694.7,1016.2,696.5z M1016.1,633.7C1016.1,633.7,1016.1,633.7,1016.1,633.7
			C1016.1,633.7,1016.1,633.7,1016.1,633.7z"/>
		<path class="st8" d="M1099.7,553.2l-7.6-2.2l-38.8,20.1l-36.3,69.7c0,2.2,0,4.6,0,7.2h4.9l36.1-71.5l35.7-18.5l35.7,18.5
			l37.1,74.4v-13.4l-15.6-34.3l-16.8-32.2L1099.7,553.2z"/>
		<path class="st9" d="M1167.2,698.2h88.6v-63.8h-88.6c0,0,0,0,0,0c0,0.5,0,1.3,0,2.3c0,1.9,0,4.5,0,7.6c0,6.2,0,14.4,0,22.5
			c0,8.1,0.1,16.2,0.1,22.3c0,3,0,5.5,0,7.3L1167.2,698.2z"/>
		<path class="st10" d="M1177.8,648.6h93.2l-43.5-81.5l-35.9-22.8h-99.5h-0.7v0l0,0l0.4,0.2l-42.6,22.1l-42.7,82h9.2l38.5-76.2
			l38-19.7l38,19.7l37.7,76.2h9.2H1177.8z"/>
		<defs>
			<filter id="Adobe_OpacityMaskFilter" filterUnits="userSpaceOnUse" x="1003.1" y="542.4" width="271.2" height="108.2">
				<feColorMatrix  type="matrix" values="1 0 0 0 0  0 1 0 0 0  0 0 1 0 0  0 0 0 1 0"/>
			</filter>
		</defs>
		<mask maskUnits="userSpaceOnUse" x="1003.1" y="542.4" width="271.2" height="108.2" id="path-12-inside-1_1_">
			<path class="st11" d="M1177.8,648.6h93.2l-43.5-81.5l-35.9-22.8h-99.5h-0.7v0l0,0l0.4,0.2l-42.6,22.1l-42.7,82h9.2l38.5-76.2
				l38-19.7l38,19.7l37.7,76.2h9.2H1177.8z"/>
		</mask>
		<path class="st12" d="M1271,648.6v2h3.3l-1.6-2.9L1271,648.6z M1227.5,567.2l1.8-0.9l-0.2-0.5l-0.4-0.3L1227.5,567.2z
			 M1191.6,544.4l1.1-1.7l-0.5-0.3h-0.6V544.4z M1092.1,544.4v-2l0,0V544.4z M1091.4,544.4v-2l-0.9,3.8L1091.4,544.4z M1091.4,544.4
			v2l0.9-3.8L1091.4,544.4z M1091.4,544.4v-2l-0.9,3.8L1091.4,544.4z M1091.7,544.6l0.9,1.8l3.4-1.8l-3.4-1.8L1091.7,544.6z
			 M1049.1,566.7l-0.9-1.8l-0.6,0.3l-0.3,0.6L1049.1,566.7z M1006.4,648.6l-1.8-0.9l-1.5,2.9h3.3V648.6z M1015.7,648.6v2h1.2
			l0.5-1.1L1015.7,648.6z M1054.1,572.4l-0.9-1.8l-0.6,0.3l-0.3,0.6L1054.1,572.4z M1092.1,552.8l0.9-1.8l-0.9-0.5l-0.9,0.5
			L1092.1,552.8z M1130.1,572.4l1.8-0.9l-0.3-0.6l-0.6-0.3L1130.1,572.4z M1167.8,648.6l-1.8,0.9l0.5,1.1h1.2V648.6z M1271,646.6
			h-93.2v4h93.2V646.6z M1225.7,568.1l43.5,81.5l3.5-1.9l-43.5-81.5L1225.7,568.1z M1190.5,546.1l35.9,22.8l2.1-3.4l-35.9-22.8
			L1190.5,546.1z M1092.1,546.4h99.5v-4h-99.5V546.4z M1091.4,546.4h0.7v-4h-0.7V546.4z M1092.3,542.6L1092.3,542.6l-1.8,3.5v0
			L1092.3,542.6z M1091.4,546.4L1091.4,546.4v-4l0,0V546.4z M1092.7,542.8l-0.4-0.2l-1.8,3.6l0.4,0.2L1092.7,542.8z M1090.8,542.8
			l-42.6,22.1l1.8,3.6l42.6-22.1L1090.8,542.8z M1047.3,565.7l-42.7,82l3.5,1.8l42.7-82L1047.3,565.7z M1006.4,650.6h9.2v-4h-9.2
			V650.6z M1017.5,649.5l38.5-76.2l-3.6-1.8l-38.4,76.2L1017.5,649.5z M1055,574.2l38-19.7l-1.8-3.6l-38,19.7L1055,574.2z
			 M1091.2,554.5l38,19.7l1.8-3.6l-38-19.7L1091.2,554.5z M1128.3,573.3l37.7,76.2l3.6-1.8l-37.7-76.2L1128.3,573.3z M1167.8,650.6
			h9.2v-4h-9.2V650.6z M1177.8,646.6h-0.7v4h0.7V646.6z"/>
		<rect x="1168" y="648.6" class="st13" width="86.7" height="4.6"/>
		<path class="st14" d="M200.7,524.3C312.3,516.1,593,681.7,593,681.7v6.6L-11.9,725l-20-88.6C-35.9,623,89.2,532.5,200.7,524.3z"/>
		<path class="st15" d="M-58,713.1V779h1178l-174.5-39.9c-45.3-3.4-93.8-28.8-138.6-32.1c-19.4-1.4-38.8-2.8-58.3-4.2
			c-35.1-2.6-69.9-6-104.9-9.1c-29.3-2.6-58.8-5-88.8-6.5c-1.5-0.1-2.9-0.1-4.4-0.2c-46.6-2.2-91.9-7.5-137-13.6
			c-13.1-1.8-26.1-3.6-39.1-5.4l-0.8-0.1l-0.5-0.1c-20.3-2.8-40.5-5.7-60.8-8.3c-10.9-1.4-21.9-2.7-32.9-4
			c-15.2-1.7-30.5-3.3-45.9-4.5c-52.6-4.3-108.6-4.8-163.4-4.8c-27.3,0-28.1-15.7-80.9-0.8c-4.3-0.2-8.5-0.5-12.8-0.9
			C-35.1,643.5-46.6,714.4-58,713.1z"/>
		<path class="st16" d="M1147,643.6h-12v8h12V643.6z"/>
		<path class="st16" d="M1147,639.6h-12v4h12V639.6z"/>
		<path class="st17" d="M1141,643.6v8"/>
		<path class="st16" d="M1147,651.6h-12v6h12V651.6z"/>
		<path class="st18" d="M1149,635.6h-16v4h16V635.6z"/>
		<path class="st18" d="M1149,657.6h-16v4h16V657.6z"/>
		<path class="st16" d="M1050.2,643.6h-12v8h12V643.6z"/>
		<path class="st16" d="M1050.2,639.6h-12v4h12V639.6z"/>
		<path class="st17" d="M1044.2,643.6v8"/>
		<path class="st16" d="M1050.2,651.6h-12v6h12V651.6z"/>
		<path class="st18" d="M1052.2,635.6h-16v4h16V635.6z"/>
		<path class="st18" d="M1052.2,657.6h-16v4h16V657.6z"/>
		<path class="st19" d="M1190,671.2h10v-10h-10V671.2z"/>
		<path class="st19" d="M1226.2,671.2h10v-10h-10V671.2z"/>
		<path class="st20" d="M1195,661.2v10"/>
		<path class="st20" d="M1231.2,661.2v10"/>
		<path class="st20" d="M1200,666.2h-10"/>
		<path class="st20" d="M1236.2,666.2h-10"/>
		<path class="st21" d="M1067.5,639.5c0-14,11.4-25.4,25.4-25.4c14.1,0,25.4,11.4,25.4,25.4v58.7h-50.9V639.5z"/>
		<path class="st22" d="M1071.8,639.5c0-11.6,9.4-21,21-21s21.1,9.4,21.1,21v16.7h-42.1V639.5z"/>
		<path class="st23" d="M1113.9,659.6v38.6h-21.1h-21v-38.6h21H1113.9z"/>
		<path class="st24" d="M1092.9,659.6v38.6 M1092.9,659.6h21.1 M1092.9,659.6h-21 M1092.9,698.2h21.1 M1092.9,698.2h-21
			 M1113.9,659.6v38.6 M1113.9,659.6h-42.1 M1113.9,698.2h-42.1 M1071.8,659.6v38.6"/>
		<path class="st24" d="M1096.4,677.2v5.3"/>
		<path class="st24" d="M1089.4,677.2v5.3"/>
		<rect x="1071.2" y="656.1" class="st25" width="43.2" height="3.5"/>
		<line class="st26" x1="1074.1" y1="656" x2="1074.1" y2="659.6"/>
		<line class="st26" x1="1076.4" y1="656" x2="1076.4" y2="659.6"/>
		<line class="st26" x1="1078.7" y1="656" x2="1078.7" y2="659.6"/>
		<line class="st26" x1="1080.9" y1="656" x2="1080.9" y2="659.6"/>
		<line class="st26" x1="1080.9" y1="656" x2="1080.9" y2="659.6"/>
		<line class="st26" x1="1083.5" y1="656" x2="1083.5" y2="659.6"/>
		<line class="st26" x1="1086.1" y1="656" x2="1086.1" y2="659.6"/>
		<line class="st26" x1="1088.7" y1="656" x2="1088.7" y2="659.6"/>
		<line class="st26" x1="1091.2" y1="656" x2="1091.2" y2="659.6"/>
		<line class="st26" x1="1093.8" y1="656" x2="1093.8" y2="659.6"/>
		<line class="st26" x1="1096.4" y1="656" x2="1096.4" y2="659.6"/>
		<line class="st26" x1="1099" y1="656" x2="1099" y2="659.6"/>
		<line class="st26" x1="1101.6" y1="656" x2="1101.6" y2="659.6"/>
		<line class="st26" x1="1104.1" y1="656" x2="1104.1" y2="659.6"/>
		<line class="st26" x1="1106.7" y1="656" x2="1106.7" y2="659.6"/>
		<line class="st26" x1="1109.3" y1="656" x2="1109.3" y2="659.6"/>
		<line class="st26" x1="1111.9" y1="656" x2="1111.9" y2="659.6"/>
		<rect x="1072.7" y="660.4" class="st8" width="19.3" height="4.5"/>
		<rect x="1093.8" y="660.5" class="st8" width="19.3" height="4.5"/>
		<path d="M357.6,710.5c-0.1,3.5-1,6.9-1.6,10.3c-0.6,2.9-1.3,5.8-2.4,8.6c-0.4,0.8-0.9,1.5-1.4,2.3c-0.2,0.4-0.6,0.5-1,0.6
			c-2.3,0.7-4.5,0.4-6.6-0.4c-1.4-0.5-1.9-1.6-2-3c-0.1-1.9-0.4-3.9-0.2-5.8c0.2-2.1,0-4.1-0.1-6.2c-0.1-2.2-0.2-4.3-0.4-6.5
			c-0.4-5.2-1.3-10.2-2.1-15.4c-0.6-3.5-1.3-6.9-2.4-10.2c-0.3-1-0.3-1-1.3-1c-5.4-0.1-10.8-0.1-16.2,0c-0.5,0-0.8,0.2-1.1,0.5
			c-2,2.4-3.1,5.2-4.1,8c-1.1,3.2-1.7,6.5-2.4,9.7c-1.4,6.4-2.8,12.8-4.1,19.2c-0.7,3.3-1.3,6.6-1.9,10c-0.2,1.1-0.5,2.1-1.1,3.1
			c-0.1,0.1-0.2,0.2-0.2,0.3c-0.4,2.6-2.4,3.6-4.4,4.3c-2.3,0.8-4.6,0.5-6.8-0.6c-1.6-0.8-2.4-2.1-2.5-3.9c-0.2-2.6-0.1-5.2-0.4-7.9
			c-0.5-4.6-0.6-9.3-1.2-13.9c-0.4-2.4-0.5-4.9-1-7.3c-0.1-0.3,0-0.6-0.3-1c-0.4,0.8-0.5,1.7-0.6,2.5c-0.4,2-0.7,4-1.1,5.9
			c-0.3,1.1-0.4,2.3-0.4,3.5c0.2,3.3-0.2,6.6-0.5,9.9c-0.1,1.3-0.2,2.7-0.2,4c0,1.8-0.5,3.4-1.5,4.8c-1.1,1.6-2.9,2.2-4.9,2
			c-0.9-0.1-1.8-0.4-2.7-0.7c-1.9-0.7-3.2-2.9-2.9-4.7c0.2-1.2,0.2-2.5,0-3.7c-0.4-2.9-0.5-5.9-0.8-8.8c-0.3-2.2-0.3-4.3-0.4-6.5
			c-0.1-4.2-0.4-8.5-1-12.7c-0.3-2.1-0.4-4.3-0.7-6.5c-0.7-4.8-1.5-9.5-2.6-14.3c-0.3-1.1-0.4-2.2-0.6-3.3c-0.1-0.6-0.3-1.1-0.7-1.6
			c-2.2-3.1-3.5-6.6-4-10.4c-0.5-4.4-0.6-8.8-0.8-13.2c-0.3-4.6,0-9.2-0.2-13.8c-0.2-5.6-0.2-11.2-0.6-16.8
			c-0.1-1.9-0.3-3.8,0.1-5.7c0.1-0.3,0-0.4-0.3-0.6c-0.5-0.4-0.9-0.9-1.3-1.4c-1.5-1.9-1.6-3.9-0.6-6c0.2-0.4,0.3-0.7,0-1.2
			c-1.3-2.6-0.8-5.1,1.5-6.9c0.1-0.1,0.1-0.1,0.2-0.2c1-0.4,1-1.1,1.1-2.1c0.1-1.6,0.2-3.1,0.2-4.7c0.1-2,0.2-4,0-6
			c-0.1-0.8-0.1-1.7,0.1-2.5c0.5-2.5,0.4-5,0-7.5c-0.2-1.5-0.3-3,0.1-4.4c0.3-1.1,0.2-2.3,0.3-3.5c0.1-2,0.3-4,0.2-6
			c-0.1-1.9,0.1-3.8,0.6-5.7c0.4-1.8,0.5-3.5,0.1-5.3c-0.4-1.5-0.3-3-0.1-4.4c0.2-1.4,0.2-2.7,0-4.1c-0.4-2.6-0.2-5.2,0.5-7.8
			c0.2-0.7,0.4-1.4,0.5-2.1c0.1-0.4,0.1-0.7-0.3-1.1c-0.9-0.9-1.5-2-2-3.1c-1.2-2.9-2.7-5.8-3.3-8.9c-0.4-2.2-0.9-4.4-0.9-6.6
			c0-0.4,0-0.8,0.1-1.2c0.3-1.2,1.2-1.9,2.5-1.9c1,0,2,0.4,2.8,1c1.8,1.3,3.3,2.9,4.7,4.5c1.6,1.9,3.2,3.7,4.8,5.6
			c0.5,0.6,0.9,0.7,1.6,0.4c3.5-1.4,7.2-1.2,10.9-1c1.1,0.1,2,0.4,3,0.9c0.6,0.3,1.1,0.3,1.5-0.3c1.6-1.9,3.2-3.8,4.9-5.7
			c1.4-1.6,2.9-3.2,4.6-4.4c0.7-0.5,1.5-0.8,2.3-1c1.8-0.4,3.1,0.6,3.2,2.5c0.1,1.3-0.1,2.6-0.3,4c-0.5,4.7-2.4,8.9-4.4,13.1
			c-0.4,0.7-0.8,1.4-1.4,2c-0.4,0.4-0.4,0.8-0.3,1.4c0.5,1.9,1,3.7,1.1,5.7c0.1,1.7,0.1,3.3-0.3,4.9c-0.2,0.8,0,1.7,0.1,2.5
			c0.3,1.8,0.3,3.6-0.1,5.4c-0.4,1.7-0.3,3.3,0.2,4.9c0.5,2.1,0.6,4.2,0.6,6.4c0,3,0,6,0.5,8.9c0.4,2,0.1,4-0.1,5.9
			c-0.2,1.7-0.2,3.4,0.1,5.1c0.2,1.3,0.4,2.6,0.2,4c0,0.1-0.1,0.3,0.2,0.4c0.3-0.3,0.7-0.6,1-0.9c2.1-1.8,4.4-3.4,6.8-4.8
			c6.7-3.6,13.6-6.7,20.7-9.3c8.2-3,16.5-6.1,24.5-9.8c1.5-0.7,2.9-1.4,4.2-2.3c1.1-0.7,2.2-1.3,3.4-1.9c0.7-0.4,1.4-0.3,2,0.2
			c0.5,0.4,1,0.9,1.4,1.3c2.9,3.1,6.3,5.4,10.1,7.1c4.2,1.8,8.4,3.6,12.5,5.7c1.3,0.7,2.6,1.3,3.8,2.2c1.2,0.9,1.2,1.6,0,2.5
			c-0.7,0.5-1.4,1-2.1,1.4c-4,2.1-7.9,4.3-12.1,6.1c-1.3,0.6-2.7,1-4.1,1.5c-4.1,1.3-8.2,2.8-12.5,3.9c-2.4,0.6-4.9,0.8-7.4,1.1
			c-6.7,0.8-13.4,1.9-19.9,4.1c-3.8,1.3-7.3,3.1-10.9,4.9c-2.5,1.3-4.9,2.7-7.4,4.1c0.2,0.4,0.5,0.2,0.7,0.3
			c8.9,0.3,17.8-0.1,26.7-0.7c5.6-0.4,11.2-0.5,16.8-0.3c2.7,0.1,5.4,0.6,7.9,1.5c1.4,0.5,2.6,1.1,3.8,2.1c0.4,0.3,0.6,0.4,0.9-0.1
			c0.6-1.1,1.6-1.8,2.7-2.3c1.5-0.7,3.1-1.4,4.8-1.7c2.4-0.4,4.7,0.2,7,0.8c4.6,1.2,7.3,4.5,9.3,8.6c0.7,1.4,1.1,2.9,1.2,4.5
			c0.1,0.7,0,1.4-0.2,2.2c-0.6,2.1-2.4,3.2-4.4,3.3c-0.3,0-0.5-0.1-1-0.1c0.2,0.9,0.3,1.7,0.3,2.5c0,1.4-0.2,2.7-1.1,3.9
			c-1.4,1.9-3.3,2.1-5.4,1.6c-1-0.2-1.8-0.7-2.7-1.2c0.1,1.1,0.2,1.9,0.3,2.8c0.1,1.1,0.3,2.3,0.4,3.5c0.4,5.6,0.7,11.1,0.6,16.7
			c-0.1,5.7-0.6,11.4-0.9,17c-0.3,5.3-0.7,10.6-1.1,15.8c-0.4,4.8-1,9.6-1.5,14.5c-0.8,7.1-1.9,14.2-3.1,21.3
			c-0.6,3.4-1.3,6.8-2.2,10.2c-0.2,0.8-0.5,1.6-0.9,2.4c-0.3,0.5-0.5,1-1.1,1.1c-1.2,0.4-2.4,1.1-3.7,0.9c-1.5-0.2-3.1-0.2-4.6-0.4
			c-0.5-0.1-1-0.2-1.4-0.3c-1.4-0.4-2.4-1.3-2.6-2.8c-0.2-1.1-0.4-2.3-0.4-3.5c-0.2-2.3-0.4-4.6-0.6-6.9c-0.2-2.3-0.7-4.5-1.1-6.8
			c-0.2-1.1-0.4-2.1-0.8-3.2C357.7,710,357.7,710.3,357.6,710.5z"/>
		<path class="st27" d="M357.6,710.5c0-0.1-0.1-0.2,0-0.4c0-0.1,0-0.4,0.2-0.3s0.3,0.2,0.2,0.4C357.8,710.3,357.7,710.4,357.6,710.5
			z"/>
		<path class="st28" d="M270.2,678c0.9,0.9,1.9,1.7,2.9,2.5c1.5,1.1,3.1,2.1,4.7,2.9c0.4,0.2,0.9,0.4,1.4,0.4c0.7,0,0.9-0.3,0.6-0.9
			c-0.3-0.6-0.9-1.1-1.4-1.5c-2-1.6-4.1-3.2-6.1-4.8c-4.8-4-7.1-9.2-7.6-15.4c-0.6-8.5-0.7-16.9-1-25.4c-0.2-4.9-0.1-9.8-0.6-14.7
			c-0.2-2-0.2-4-0.3-6.1c0.6,0,1.1,0.3,1.6,0.5c2.3,0.6,4.6,1,6.9,1.1c1.1,0,2.2-0.1,3.3-0.2c2.1-0.2,4.2-0.4,6.3-0.7
			c0.8-0.1,1.5,0.1,2.3,0.1c0.7,0,1.3,0.1,1.9-0.2c1.1-0.6,2.2-0.6,3.4-0.8c2.5-0.2,4.9-0.8,7.3-1.5c2.4-0.8,4.9-1.5,7.1-2.6
			c2.3-1.1,4.4-2.5,5.6-4.8c0.2-0.4,0.4-0.6,0.8-0.6c0.3,0,0.6-0.1,1-0.1c7.4,0.1,14.8,0.3,22.3,0c4-0.1,8-0.4,12-0.6
			c1.6-0.1,3.2,0,4.9-0.1c3.2-0.2,6.3-0.2,9.4,0c2.9,0.1,5.7,0.7,8.4,1.8c1.8,0.7,3.3,1.8,4.6,3.2c0.3,0.4,0.6,0.7,1.1,0.9
			c0.3,0.1,0.6,0.2,0.9,0c0.3-0.3,0.4-0.6,0.3-1c-0.1-0.5-0.3-0.9-0.6-1.3c-0.3-0.4-0.2-0.6,0.1-0.9c0.7-0.7,1.5-1.3,2.4-1.9
			c3.2-1.9,6.5-2.1,10-0.8c1.6,0.6,3,1.4,4.2,2.6c2.4,2.3,4.1,5,4.6,8.3c0.1,0.8,0.2,1.6-0.2,2.4c-0.5,1.2-2.1,2-3.4,0.8
			c-0.4-0.4-0.7-0.7-1.1-1c-0.3-0.2-0.5-0.4-0.8-0.6c-0.4-0.2-0.9-0.3-1.2,0.1c-0.3,0.4-0.2,0.8,0.1,1.1c0.4,0.6,0.9,1.1,1.1,1.9
			c0.7,1.8,0.9,3.6,0.3,5.5c-0.3,1.1-1.1,1.7-2.3,1.9c-2.5,0.3-4.9-1.3-5.7-3.7c-0.3-1-0.7-2-1.1-3.1c-0.1-0.3-0.3-0.6-0.4-0.9
			c-0.2-0.3-0.5-0.4-0.8-0.4c-0.3,0.1-0.4,0.3-0.5,0.6c-0.1,0.6,0,1.1,0.1,1.7c0.5,2.1,1.2,4.1,1.4,6.3c0.4,3,0.8,5.9,0.9,8.9
			c0,0.9,0.1,1.8,0.2,2.6c0.4,7.6,0,15.1-0.6,22.6c-0.2,3.1-0.3,6.3-0.6,9.4c-0.6,7-1.1,14-1.9,21c-0.8,7.5-1.9,15-3,22.6
			c-0.6,4.3-1.4,8.6-2.4,12.8c-0.2,1-0.5,1.9-0.9,2.9c-0.2,0.5-0.5,0.8-1.2,0.8c-2-0.2-4-0.3-5.9-0.4c-0.4,0-0.7-0.1-1.1-0.2
			c-0.5-0.1-0.8-0.4-0.9-0.9c-0.1-0.8-0.3-1.7-0.4-2.5c-0.3-2.8-0.5-5.7-0.8-8.6c-0.4-3.2-1-6.4-1.9-9.5c-1.3-4.3-2.6-8.6-3.9-12.9
			c-1.4-4.5-3.6-8.7-6.2-12.7c-0.8-1.3-1.7-1.9-3.2-2.2c-1.6-0.2-3.2-0.4-4.8-0.5c-6.4-0.3-12.9-0.3-19.4-0.3c-0.7,0-1.4,0.1-2,0.1
			c-1.9-0.1-3.3,1-4.3,2.5c-2,2.7-3.3,5.8-4.2,9.1c-1.6,5.8-2.7,11.6-3.9,17.5c-0.8,4-1.7,7.9-2.5,11.8c-0.6,3-1,6-1.4,9
			c-0.2,1-0.4,2.1-0.5,3.1c-0.1,0.4-0.4,0.6-0.6,0.9c-2.3,2-6.1,2.4-8.7,1.1c-0.6-0.3-0.9-0.7-0.9-1.4c0-2.5,0.1-4.9-0.3-7.4
			c-0.5-4.4-0.5-8.8-1.1-13.3c-0.9-7-1.8-14-3.4-20.9c-0.6-2.4-1.5-4.8-2.6-7c-0.5-1-1.1-1.8-2-2.4c-0.3-0.2-0.6-0.4-1-0.4
			c-0.5,0-0.9,0.4-0.7,0.9c0.1,0.3,0.4,0.6,0.6,0.9c0.9,1,1.4,2.1,2,3.3c1.2,2.8,2,5.7,2.5,8.7c0.2,1,0.1,1.9-0.3,2.9
			c-0.7,1.9-1.1,3.9-1.5,5.8c-0.5,3.1-1.3,6.2-1.7,9.3c-0.1,0.4-0.1,0.8-0.1,1.2c0.1,4.3-0.3,8.6-0.4,12.8c0,0.9-0.1,1.7-0.2,2.5
			c-0.2,1.9-1.4,3.1-3.3,3c-1.5-0.1-3-0.4-4-1.7c-0.2-0.3-0.4-0.5-0.4-0.9c0.4-2.3,0.1-4.6-0.2-6.9c-0.5-5.2-0.9-10.4-1-15.7
			c-0.1-3.9-0.6-7.8-1.1-11.7c-0.5-4.1-1.2-8.2-1.9-12.3c-0.4-2.2-0.9-4.3-1.4-6.5c-0.1-0.3-0.1-0.6-0.2-0.9
			C270.1,678.1,270.1,678,270.2,678z"/>
		<path class="st28" d="M297.6,529.3c-1.2-1.8-1.2-1.8-0.3-3.5c1.1-2.1,2.3-4.2,3.1-6.4c0.3-1,0.6-1.9,0.6-3c0-0.6-0.2-1.2-0.8-1.5
			c-0.6-0.3-1.1,0-1.6,0.4c-0.5,0.5-1.1,1-1.6,1.5c-1.7,1.9-3.5,3.5-4.6,5.8c-0.2,0.4-1,0.6-0.7,1.3c0.2,0.4,0.7,0.7,1,1.1
			c1.7,2.1,3.1,4.4,4,7c0.5,1.7,0.9,3.4,1.1,5.1c0.1,0.9,0.1,0.9-0.8,1.1c-2.2,0.6-4.4,1.2-6.7,1.8c-0.2,0.1-0.4,0.1-0.6,0.2
			c-0.5,0.2-0.5,0.6-0.1,0.9c0.3,0.2,0.5,0.3,0.5,0.7c0.4,1.6,1.4,2.6,3,2.8c1.6,0.2,3.1,0,4-1.6c0.1-0.1,0.1-0.1,0.3-0.1
			c-0.1,1.8,0.1,3.6,0.4,5.5c0.1,0.4,0,0.7,0,1.1c-0.5,2.3-0.4,4.6,0.1,6.9c0.5,2.5,0.6,5,0.3,7.6c-0.2,1.9,0,3.7,0.3,5.6
			c0.4,2,0.5,4.1,0.3,6.1c-0.2,2.1-0.2,4.2,0.1,6.3c0.2,1.3,0.2,2.6,0.1,4c-0.1,3.5-0.1,7,0.3,10.5c0.1,1.1-0.1,1.8-0.9,2.6
			c-3.6,3.8-7.7,7.1-11.9,10.2c-0.1,0.1-0.3,0.2-0.4,0.3c-0.4,0.6-0.8,0.5-1.4,0.2c-1.1-0.5-2.2-0.3-3.1,0.3c-0.5,0.3-0.9,0.3-1.4,0
			c-2.5-1.2-4.9-2.5-7.1-4.1c-3-2.2-6.1-4.3-8.7-6.9c-0.6-0.6-0.9-1.2-0.8-2.1c0.4-4.1,0.5-8.1,0.3-12.2c0-0.7,0-1.4,0.1-2
			c0.4-2.9,0.3-5.7,0.1-8.6c-0.1-1.2,0-2.3,0.2-3.5c0.4-2.5,0.7-5,0.4-7.6c-0.3-2.4,0-4.9,0.5-7.2c0.4-2,0.4-4,0-6
			c-0.1-0.4-0.2-0.9-0.1-1.3c0.3-1.5,0.4-3,0.5-4.7c1.4,1.3,3,1.3,4.6,1c1.3-0.3,2.2-1.1,2.7-2.4c0.2-0.4,0.3-0.9,0.9-0.7
			c0.3,0.1,0.7,0,0.7-0.4c0-0.4-0.3-0.5-0.6-0.6c-2-0.5-4.1-1-6.1-1.4c-0.7-0.2-1.3-0.3-2-0.4c-0.6-0.1-0.7-0.4-0.6-0.9
			c0.3-2.5,0.8-4.9,1.8-7.2c1-2.3,2.2-4.4,4-6.1c0.2-0.2,0.5-0.5,0.4-0.8s-0.4-0.5-0.8-0.4s-0.5-0.1-0.7-0.3c-0.4-0.5-0.7-1.1-1-1.6
			c-1.1-1.8-2.4-3.4-3.7-4.9c-0.3-0.4-0.6-0.6-1-0.9c-1.1-0.8-2.1-0.4-2.2,1c-0.1,0.9,0,1.8,0.3,2.6c1.1,2.9,2,6,3.7,8.6
			c0.4,0.7-0.2,1-0.4,1.5c-0.4-0.3-0.6-0.7-0.8-1.1c-2.3-4-4.2-8.2-5-12.8c-0.2-1.2-0.2-2.4-0.2-3.6c0.1-1.3,0.7-1.7,1.9-1.3
			c0.9,0.3,1.6,0.8,2.3,1.5c2.3,2.1,4.3,4.6,6.4,6.9c0.6,0.6,1.1,1.3,1.7,1.9c0.4,0.4,0.6,0.8,0.7,1.3c0.1,0.6,0.5,0.8,1.1,0.6
			c0.2-0.1,0.3-0.1,0.4-0.2c1-0.7,2.2-1,3.4-1.1c3.4-0.6,6.7-0.4,10,0.3c0.5,0.1,1,0.4,1.4,0.7c1,0.6,1.4,0.4,1.7-0.6
			c0.1-0.3,0.3-0.6,0.5-0.8c2.7-3,5.2-6.3,8.2-9c0.6-0.6,1.3-1.2,2.2-1.5c1.4-0.5,2,0,2.1,1.5c0.2,2.8-0.5,5.5-1.4,8.2
			c-0.9,2.6-2.1,5.1-3.5,7.6C298.3,528.2,298,528.7,297.6,529.3z"/>
		<path class="st29" d="M390,575.1c-1.7,0.9-3.3,1.8-4.9,2.6c-2.6,1.4-5.3,2.7-8,3.9c-1.4,0.6-2.8,1.1-4.3,1.6
			c-3.5,1.1-6.9,2.2-10.4,3.2c-3.2,1-6.5,1.3-9.9,1.7c-4.2,0.5-8.4,1.1-12.5,2.1c-3.6,0.9-7.2,1.8-10.6,3.2
			c-2.6,1.1-5.2,2.4-7.7,3.8c-2.8,1.5-5.6,3.1-8.4,4.8c-1.1,0.6-2.3,1-3.5,1.4c-0.4,0.1-0.7,0.1-0.8-0.4c-0.4-1.2-1.3-2.1-2.5-2.7
			c-0.4-0.2-0.5-0.5-0.5-1c0-0.7,0-1.4-0.2-2c-0.3-0.8-0.8-1.4-1.7-1.6c-0.8-0.2-1.6-0.4-2.4-0.4c-0.5,0.1-0.7-0.1-0.8-0.6
			c0-0.4-0.1-0.8-0.1-1.2c0-1.1,0.1-2.1-0.1-3.1c-0.2-1.2,0.2-2,1.1-2.8c3.1-2.8,6.5-4.8,10.2-6.6c7.9-3.9,16-7,24.3-10
			c7.2-2.6,14.3-5.6,21.2-8.9c1.6-0.8,3.1-1.7,4.6-2.6c0.4-0.3,0.8-0.3,1.1,0.2c2.8,3.7,6.6,6,10.8,7.8c4.5,2,9,4.1,13.5,6.3
			C388.2,574,389,574.5,390,575.1z"/>
		<path class="st28" d="M339.3,683.9C339.4,683.9,339.4,683.9,339.3,683.9c2.7,0.1,5.3,0,7.8,0.5c0.6,0.1,1,0.4,1.2,1
			c0.4,0.8,0.8,1.6,1.2,2.3c3,4.9,4.6,10.3,6.3,15.6c0.1,0.4,0.1,0.8,0,1.2c-0.4,1.7-0.5,3.4-0.6,5.2c-0.2,3.6-1,7-1.7,10.5
			c-0.6,2.8-1.3,5.6-2.4,8.3c-0.1,0.3-0.3,0.6-0.4,0.9c-0.2,0.5-0.6,0.7-1.2,0.8c-1.3,0.1-2.6-0.1-4-0.2c-0.7-0.1-1-0.4-1-1.1
			c0-2-0.1-4-0.1-5.9c0-2.6,0-5.2-0.3-7.9c-0.2-2.2-0.2-4.4-0.4-6.6c-0.5-4.8-1.3-9.5-2.1-14.2c-0.6-3.4-1.3-6.7-2.6-9.9
			C339.3,684.2,339.3,684.1,339.3,683.9z"/>
		<path class="st29" d="M260.7,606.9c0.4,0.2,0.7,0.3,0.9,0.4c0.4,0.2,0.9,0.2,1.2-0.3c0.3-0.5,0-0.8-0.3-1.1
			c-0.4-0.4-0.8-0.7-1.2-1.1c-1.6-1.5-0.9-4.1,0.6-5c0.4-0.2,0.6-0.3,0.9,0.1c0.1,0.1,0.2,0.2,0.3,0.3c3.1,3.5,7,6,10.8,8.5
			c1.8,1.1,3.6,2.2,5.5,3c0.5,0.2,0.7,0.4,0.6,1c-0.1,0.4-0.1,0.9,0.1,1.3c0.2,0.4-0.1,0.6-0.4,0.6c-0.6,0.1-1.3,0.2-1.9,0.2
			c-2.5,0-4.9,0.6-7.3,0.3c-2.5-0.2-4.9-0.8-7.2-1.9c-0.8-0.4-1.5-0.9-2.1-1.6C260.1,610.1,260,608.6,260.7,606.9z"/>
		<path class="st29" d="M288.8,613.1c-0.4-0.1-0.9,0.4-1.2,0c-0.3-0.3-0.3-0.7-0.4-1.1c-0.1-0.2-0.1-0.3-0.2-0.4
			c-0.4-0.4-0.1-0.6,0.3-0.9c2.1-1.3,4-3,6-4.4c2.5-1.8,4.6-4,6.7-6.3c0.7-0.7,1.1-1.6,1.1-2.6c0-0.4,0.2-0.6,0.6-0.5
			c0.4,0.1,0.8,0.1,1.2,0.2c1.2,0.3,1.7,1.3,1.2,2.5c-0.2,0.5-0.5,0.9-0.8,1.4c-0.2,0.4-0.3,0.7,0.1,1c0.3,0.3,0.7,0.2,1,0.1
			c0,0,0.1,0,0.1-0.1c0.3-0.1,0.5-0.6,0.8-0.5c0.4,0.1,0.9,0.4,1.2,0.7c0.9,0.7,1.2,1.6,0.9,2.4c-0.4,1-1,1.9-1.7,2.6
			c-1.5,1.4-3.4,2.4-5.3,3c-3.2,1.1-6.5,2.2-9.9,2.8C290,613,289.4,613.1,288.8,613.1z"/>
		<path class="st30" d="M266.7,527.1c-1.2-1.2-1.9-2.6-2.4-4c-0.6-1.7-1.2-3.5-1.7-5.3c-0.1-0.4-0.1-0.8-0.1-1.2
			c0-0.3-0.1-0.6,0.3-0.7c0.3-0.1,0.5,0.1,0.8,0.3c1,0.9,1.9,1.9,2.6,3.1c0.9,1.4,1.7,2.8,2.6,4.2c0.4,0.5,0.4,1-0.2,1.3
			C267.8,525.4,267.4,526.3,266.7,527.1z"/>
		<path class="st30" d="M295.8,526.5c-0.5-1-1.4-1.7-2.2-2.5c-0.4-0.4-0.4-0.7-0.1-1.1c1.2-1.9,2.6-3.6,4.1-5.4
			c0.4-0.5,0.8-1.1,1.4-1.5c0.6-0.4,1-0.3,1.1,0.5c0,0.2,0,0.4,0,0.6c-0.4,1.5-0.7,3.1-1.5,4.5c-0.8,1.3-1.5,2.7-2.2,4.1
			C296.3,526,296.2,526.3,295.8,526.5z"/>
		<path class="st29" d="M283.6,614.4c-0.1,0-0.4,0-0.5-0.1c-0.9-0.1-1.4-0.5-1.5-1.2c-0.1-0.7,0.4-1.5,1.1-1.8
			c1.3-0.5,2.6-0.2,3.1,1c0.4,0.7,0.3,1.1-0.4,1.6C285,614.2,284.4,614.4,283.6,614.4z"/>
		<path class="st31" d="M268,541.9c-0.6,0-1-0.3-1-0.8c0-0.5,0.3-0.9,0.7-0.9c0.6,0,0.9,0.3,1,0.8
			C268.7,541.6,268.5,541.9,268,541.9z"/>
		<path class="st32" d="M293.8,541.1c-0.1,0.4-0.2,0.8-0.7,0.9c-0.4,0.1-0.9-0.3-0.9-0.8c0-0.5,0.3-0.7,0.8-0.8
			C293.5,540.4,293.7,540.7,293.8,541.1z"/>
		<path class="st33" d="M282.3,542.8c0.6-0.7,1.4-1.1,2.3-1c1.5,0,2.6,1,2.6,2.4c0.1,0.7,0.1,1.5-0.2,2.1c-0.2,0.6-0.2,1,0.4,1.4
			c1.2,1,1.8,2.2,1.7,3.8c0,0.6-0.2,1.2-0.6,1.7c-0.6,0.5-0.9,1.2-1.2,1.9c-0.7,1.5-1.9,2.2-3.4,2.4c-1.6,0.3-3.2-0.2-4.6-1.1
			c-0.7-0.5-1.2-1.1-1.5-2c-0.1-0.4-0.3-0.7-0.7-0.9c-1.4-1-1.8-2.6-0.9-4c0.3-0.5,0.6-1,1-1.3c0.6-0.5,0.7-1,0.5-1.7
			c-0.3-0.9-0.1-1.8,0.2-2.7c0.6-1.8,2.1-2.3,3.7-1.3C281.9,542.6,282.1,542.7,282.3,542.8z"/>
		<path class="st28" d="M286,553.2c-0.9-0.1-1.8-0.6-2.5-1.6c-0.9-1.4-0.9-1.4-1.8,0c-0.7,1.1-1.7,1.6-2.9,1.5
			c-1.7-0.1-2.5-1.8-1.6-3.2c0.4-0.5,0.8-1,1.3-1.4c0.8-0.6,0.9-0.7,0.5-1.7c-0.2-0.7-0.4-1.3-0.4-2c0.1-1.5,1.3-2.2,2.7-1.4
			c0.2,0.1,0.4,0.3,0.6,0.4c0.5,0.3,0.9,0.3,1.2-0.3c0.4-0.7,1-0.7,1.7-0.7c0.7,0.1,1.1,0.5,1.4,1.2c0.2,0.4,0.1,0.7,0,1.1
			c-0.2,0.5-0.4,1-0.6,1.4c-0.4,1-0.4,1.2,0.6,1.7c0.9,0.4,1.5,0.9,1.9,1.8C288.8,551.6,287.8,553.2,286,553.2z"/>
		<path class="st34" d="M279.1,554.3c1.8-0.2,1.9-0.2,3.7-2c1,1.3,2.2,2,3.9,1.9c-0.5,1.5-1.6,2.2-3.2,2.2
			C281.6,556.5,279.5,556.1,279.1,554.3z"/>
		<path class="st35" d="M280.5,545c0.1,0,0.3,0.1,0.4,0.2c0.3,0.4,0.6,0.9,0.6,1.4c0,0.3-0.1,0.5-0.4,0.6c-0.2,0.1-0.4,0-0.5-0.2
			c-0.4-0.4-0.7-0.9-0.6-1.5C280,545.2,280.2,545,280.5,545z"/>
		<path class="st36" d="M283.4,546c0.1-0.2,0.2-0.5,0.4-0.9c0.1-0.3,0.4-0.5,0.7-0.3c0.2,0.1,0.4,0.4,0.3,0.6
			c-0.1,0.4-0.2,0.7-0.3,1c-0.1,0.3-0.4,0.6-0.7,0.4C283.4,546.7,283.4,546.4,283.4,546z"/>
		<path class="st19" d="M1179,556h11v-13h-11V556z"/>
		<path class="st37" d="M1179,543h11v-7h-11V543z"/>
		<path class="st19" d="M1170,555.6h4.4V549h-4.4V555.6z"/>
		<rect x="60" y="43" class="st38" width="70" height="71"/>
		<path class="st19" d="M75.4,619.9l-10,36.5c-1.6,5.9,1.8,12.1,7.7,13.8c1.5,0.4,3,0.7,4.8,0.7c1.3,0,2.5-0.1,3.6-0.3
			c6.7-1,10.8-7.6,9-14l-10.1-36.8C79.8,617.4,76.2,617.4,75.4,619.9z"/>
		<path class="st20" d="M78,680v-14"/>
		<path class="st20" d="M75,654c0,0,0,0,0,2c0,4,3,2,3,5c0,3,0,5,0,5s8,0,8-6"/>
		<path class="st20" d="M78,664c0,0-7,0.5-7-5"/>
		<path class="st19" d="M233,611c7.7,0,14-6.3,14-14s-6.3-14-14-14s-14,6.3-14,14S225.3,611,233,611z"/>
		<path class="st20" d="M233,651v-45"/>
		<path class="st20" d="M236,594c0,0,0,0,0,2c0,4-3,2-3,5s0,5,0,5s-7,0-7-6"/>
		<path class="st20" d="M233,603c0,0,7,0.4,7-4"/>
		<path class="st19" d="M1289.4,610c7.7,0,14-6.3,14-14s-6.3-14-14-14s-14,6.3-14,14S1281.7,610,1289.4,610z"/>
		<path class="st20" d="M1289.4,650v-45"/>
		<path class="st20" d="M1292.4,593c0,0,0,0,0,2c0,4-3,2-3,5s0,5,0,5s-7,0-7-6"/>
		<path class="st20" d="M1289.4,602c0,0,7,0.4,7-4"/>
		<path class="st20" d="M933.4,648.5v-22"/>
		<path class="st19" d="M926.1,626.5H949c4.3,0,4.8-6.7,0.6-7c-0.2,0-0.4,0-0.6,0c-5.6,0,0.3-14-12.6-14c-8.5,0-10.3,4.3-11,7
			c-0.3,1.4-1.5,1.9-3,2c-2.7,0.3-7.9,0.3-7.9,8c0,3,1.2,4,3.4,4H926.1z"/>
		<path class="st20" d="M933.4,623.5c-4.5,0-6-1.3-6-4"/>
		<path class="st20" d="M937.4,614.5v2c0,4.5-4,2.7-4,6v4"/>
		<path class="st20" d="M937.4,618.5c0,0,3,0.2,3-2"/>
		<path class="st20" d="M876.9,718.5v-22"/>
		<path class="st19" d="M869.6,696.5h22.9c4.3,0,4.8-6.7,0.6-7c-0.2,0-0.4,0-0.6,0c-5.6,0,0.3-14-12.6-14c-8.5,0-10.3,4.3-11,7
			c-0.3,1.4-1.5,1.9-3,2c-2.7,0.3-7.9,0.3-7.9,8c0,3,1.2,4,3.4,4H869.6z"/>
		<path class="st20" d="M876.9,693.5c-4.5,0-6-1.3-6-4"/>
		<path class="st20" d="M880.9,684.5v2c0,4.5-4,2.7-4,6v4"/>
		<path class="st20" d="M880.9,688.5c0,0,3,0.2,3-2"/>
		<path class="st19" d="M437,665.5c0-7.5,4-37.5,9-37.5s9,30,9,37.5s-4,9.5-9,9.5S437,673,437,665.5z"/>
		<path class="st20" d="M446,688v-22c0-3.3-4-3.3-4-11"/>
		<path class="st20" d="M448,647c0,0,0,3,0,4.9c0,2-0.7,8.1-5,8.1"/>
		<path class="st20" d="M446,668c0,0,4-0.2,4-5"/>
		<path class="st19" d="M141.4,510.9l-10,36.5c-1.6,5.9,1.8,12.1,7.7,13.8c1.5,0.4,3,0.7,4.8,0.7c1.3,0,2.5-0.1,3.6-0.3
			c6.7-1,10.8-7.6,9-14l-10.1-36.8C145.8,508.4,142.2,508.4,141.4,510.9z"/>
		<path class="st20" d="M144,571v-14"/>
		<path class="st20" d="M141,545c0,0,0,0,0,2c0,4,3,2,3,5c0,3,0,5,0,5s8,0,8-6"/>
		<path class="st20" d="M144,555c0,0-7,0.5-7-5"/>
		<path class="st19" d="M804.4,638.9l-10,36.5c-1.6,5.9,1.8,12.1,7.7,13.8c1.5,0.4,3,0.7,4.8,0.7c1.3,0,2.5-0.1,3.6-0.3
			c6.7-1,10.8-7.6,9-14l-10.1-36.8C808.8,636.4,805.2,636.4,804.4,638.9z"/>
		<path class="st20" d="M807,699v-14"/>
		<path class="st20" d="M804,673c0,0,0,0,0,2c0,4,3,2,3,5c0,3,0,5,0,5s8,0,8-6"/>
		<path class="st20" d="M807,683c0,0-7,0.5-7-5"/>
		<path class="st19" d="M1359.4,653.9l-10,36.5c-1.6,5.9,1.8,12.1,7.7,13.8c1.5,0.4,3,0.7,4.8,0.7c1.3,0,2.6-0.1,3.6-0.3
			c6.7-1,10.8-7.6,9-14l-10.1-36.8C1363.8,651.4,1360.2,651.4,1359.4,653.9z"/>
		<path class="st20" d="M1362,714v-14"/>
		<path class="st20" d="M1359,688c0,0,0,0,0,2c0,4,3,2,3,5c0,3,0,5,0,5s8,0,8-6"/>
		<path class="st20" d="M1362,698c0,0-7,0.5-7-5"/>
	</g>
</g>
</svg>
