<svg width="453" height="364" viewBox="0 0 453 364" fill="none" xmlns="http://www.w3.org/2000/svg">
<path d="M420.048 133.013C407.597 127.124 420.038 82.7606 376.607 67.7306C338.496 54.5424 307.502 69.2365 300.566 42.2582C287.459 -8.7242 140.131 22.5399 105.759 36.1936C-6.02307 80.5998 0.0585685 176.002 0.0585685 190.529V272.064L432.575 275.143C437.507 275.151 448.244 263.094 453 238.319L451.478 182.843C451.478 172.579 448.631 162.446 443.001 153.448C437.67 144.927 430.205 137.817 420.048 133.013Z" fill="#F4F3F3"/>
<path d="M346.313 194.847C299.131 202.622 235.388 253.949 175 283.913V306.33L453 307.143V263.064C426.595 228.854 386.127 188.286 346.313 194.847Z" fill="#D1D1D1"/>
<path d="M33.6715 261.624C33.6715 261.624 111.346 140.94 140.944 135.553C170.541 130.169 195.894 179.522 195.894 179.522C195.894 179.522 209.295 168.243 229.895 172.647C250.497 177.051 361 277.143 361 277.143L28 273.136L33.6715 261.624Z" fill="#E0E0E0"/>
<path opacity="0.7" d="M182 111.143C180.603 105.043 175.161 100.493 168.658 100.493C167.465 100.493 166.307 100.646 165.201 100.934C161.993 94.0488 155.024 89.2808 146.949 89.2808C144.859 89.2808 142.848 89.5996 140.95 90.1934C136.601 82.9716 128.7 78.1426 119.676 78.1426C108.937 78.1426 99.7915 84.9801 96.3264 94.5465C93.8713 93.1755 91.0504 92.3896 88.0424 92.3896C78.631 92.3896 71 100.044 71 109.483C71 110.042 71.0305 110.597 71.0827 111.143H182Z" fill="white"/>
<path d="M180.281 171.062C181.976 170.456 183.67 170.759 185.123 169.909C184.396 166.451 183.549 163.113 183.004 159.715C182.52 156.741 182.218 153.768 182.036 150.795C181.794 146.122 181.612 141.389 181.976 136.716C182.218 133.561 183.186 130.587 184.094 127.553C184.215 127.25 184.396 126.947 184.578 126.643C185.365 125.49 186.575 125.551 187.301 126.825C187.785 127.675 187.785 128.646 187.785 129.617C187.785 132.226 187.785 134.835 187.664 137.384C187.483 141.996 188.209 146.486 188.754 151.037C189.238 154.982 189.904 158.865 190.63 162.749C190.993 164.63 191.477 166.451 191.961 168.453C193.232 168.089 194.503 168.15 195.774 167.664C195.169 164.509 194.443 161.414 193.898 158.319C193.232 154.375 193.051 150.37 192.809 146.304C192.627 142.603 192.688 138.962 192.99 135.26C193.232 132.651 193.898 130.163 194.564 127.675C194.745 127.068 194.987 126.522 195.29 125.976C195.653 125.308 195.774 124.277 196.924 124.459C197.711 124.58 198.618 125.672 198.679 126.704C198.739 129.495 198.861 132.347 198.618 135.078C198.376 137.869 198.679 140.661 198.921 143.452C199.405 148.185 200.071 152.918 200.858 157.591C201.221 160.079 201.826 162.506 202.492 164.933C203.036 166.997 203.218 169.06 203.218 171.123C203.218 172.579 201.947 173.611 200.131 174.218C196.863 175.31 193.474 176.16 190.146 176.949C188.996 177.191 189.056 177.616 189.238 178.587C189.54 180.043 190.085 181.439 190.206 182.956C190.327 184.23 190.932 185.383 190.025 186.658C189.783 187.022 190.085 187.811 190.206 188.417C191.175 192.969 192.143 197.459 193.051 202.01C194.019 206.622 194.866 211.234 195.835 215.785C195.956 216.513 196.198 217.241 196.379 217.909C196.984 218.152 197.287 217.787 197.65 217.484C199.042 216.27 200.737 215.542 202.31 214.632C207.394 211.598 211.449 207.472 215.261 203.042C218.771 198.915 222.342 194.789 225.913 190.663C226.7 189.752 227.063 189.024 226.7 187.75C226.336 186.597 226.276 185.323 226.215 184.109C226.155 182.046 226.639 179.983 227.91 178.283C228.636 177.313 228.636 176.524 228.213 175.431C227.849 174.4 227.668 173.308 227.607 172.215C227.365 168.696 228.878 166.147 231.965 164.569C232.752 164.145 233.054 163.72 232.933 162.87C232.752 161.839 232.752 160.807 232.509 159.836C231.541 155.831 231.723 151.826 232.509 147.821C233.236 144.302 232.933 140.721 232.388 137.202C231.965 134.35 231.541 131.558 231.662 128.646C231.723 126.4 232.025 124.155 232.691 121.971C233.841 118.208 234.144 114.325 233.478 110.441C232.812 106.618 232.994 102.856 233.599 99.0329C234.144 95.5133 234.386 91.9938 233.78 88.4136C233.478 86.6538 233.538 84.894 233.72 83.1342C233.962 81.1924 234.204 81.3745 232.146 81.0104C225.489 79.736 218.772 78.3404 212.477 75.731C208.846 74.2747 205.881 71.9688 203.097 69.2988C202.189 68.4492 201.463 67.4783 200.858 66.386C198.982 63.1699 198.921 59.893 200.979 56.7376C203.581 52.7326 206.668 49.2737 211.207 47.3319C213.022 46.543 214.777 45.6328 216.593 44.7226C216.351 43.6303 214.898 43.4483 214.656 42.2953C215.14 41.8705 215.322 42.356 215.624 42.538C216.169 43.0235 216.714 43.5696 217.319 44.0551C217.622 44.2978 217.985 44.2978 218.227 44.0551C218.469 43.8123 218.287 43.5696 218.166 43.3269C217.985 42.9628 217.743 42.6594 217.501 42.2953C217.319 41.9919 217.137 41.6278 217.501 41.4458C217.864 41.2637 218.166 41.5064 218.348 41.8098C218.408 41.8705 218.408 41.9312 218.469 41.9919C219.014 42.4773 218.772 43.6303 219.74 43.6303C220.406 43.6303 221.011 43.2662 221.676 43.0235C224.279 42.2953 226.881 41.5064 229.544 40.7782C230.391 40.5355 230.996 40.2928 230.512 39.1398C228.878 34.8314 228.273 30.2803 227.728 25.7291C227.486 23.7873 227.426 21.7848 227.607 19.7823C227.668 19.2968 227.668 18.8114 227.789 18.3866C228.697 14.8064 231.481 13.2893 234.991 14.503C236.08 14.8671 237.048 15.5346 237.956 16.2628C240.256 17.9619 242.314 20.025 244.129 22.2096C245.34 23.6659 246.55 25.183 247.7 26.7C248.124 27.2462 248.487 27.4889 249.213 27.2462C260.47 23.666 271.787 24.5155 283.104 27.1248C284.254 27.3675 285.041 27.3675 285.767 26.3966C286.614 25.3044 288.188 24.6975 288.43 23.4232C288.672 22.1489 288.188 20.7532 287.946 19.4182C286.917 13.35 283.407 9.0416 278.383 5.76477C273.784 2.79136 268.7 2.24523 263.435 2.60932C261.014 2.79137 258.714 3.27683 256.475 4.12637C250.181 6.49297 246.126 10.9834 244.19 17.4157C244.008 18.0225 243.827 18.5687 243.645 19.1755C243.464 19.6003 243.161 19.843 242.677 19.7823C242.193 19.7216 241.951 19.3575 241.89 18.9328C241.708 18.0225 241.89 17.173 242.132 16.3234C243.766 10.8621 246.853 6.55365 252.057 3.88365C252.663 3.58024 253.328 3.39818 253.752 2.79136C253.389 1.82045 252.239 1.39568 251.936 0C252.905 0.424773 253.207 1.09227 253.752 1.63841C254.115 2.0025 254.297 2.73069 255.023 2.3666C255.81 2.00251 255.204 1.45636 255.023 1.03159C254.962 0.788863 254.841 0.546137 255.023 0.30341C255.325 0.121364 255.507 0.24273 255.749 0.485457C256.112 0.849549 255.991 1.6991 256.596 1.75978C257.08 1.82046 257.625 1.51705 258.17 1.39569C265.251 -0.303408 272.21 -0.18204 278.807 3.27683C282.075 4.97592 284.677 7.46387 286.554 10.6193C288.369 13.7141 289.943 16.8696 290.185 20.5105C290.185 20.8139 290.366 21.178 290.427 21.4814C291.153 21.6028 291.395 20.9959 291.819 20.6925C293.271 19.5396 294.663 18.3866 296.297 17.4157C296.963 17.0516 297.629 16.6875 298.355 16.5055C302.107 15.4132 304.709 16.9909 305.375 20.8139C305.799 23.0591 305.436 25.3044 304.952 27.5496C304.165 31.2512 302.833 34.7707 301.32 38.1689C301.078 38.7151 300.836 39.2612 300.594 39.8073C301.018 40.3535 301.562 40.3535 302.107 40.5355C305.436 41.6885 308.825 42.9021 311.851 44.7226C312.698 45.208 313.182 45.026 313.787 44.4799C314.937 43.4483 316.148 42.4773 317.721 42.0526C316.874 43.6303 315.179 44.5405 314.211 45.8755C315.24 47.5746 316.632 46.6037 317.903 46.4823C318.084 47.2712 317.176 47.2712 317.116 48.0601C319.658 49.8805 321.655 52.3078 323.289 55.0992C324.681 57.4051 325.589 59.8931 325.649 62.6237C325.71 64.869 324.923 66.7501 323.471 68.3885C320.626 71.6653 317.116 73.9106 313.061 75.3063C307.735 77.1267 302.289 78.0976 296.6 78.0976C296.116 78.0976 295.631 77.9763 295.147 78.2797C295.934 81.6779 296.237 85.1367 295.813 88.5956C295.692 89.5058 295.51 90.3554 295.389 91.2049C294.603 95.8168 295.026 100.368 295.934 104.858C296.963 110.259 297.084 115.72 296.781 121.182C296.721 122.395 296.721 123.67 296.6 124.883C296.237 129.92 296.902 134.835 297.931 139.75C298.476 142.42 298.657 145.151 297.992 147.882C297.75 148.853 297.871 149.884 297.81 150.855C298.536 151.037 298.779 150.491 299.081 150.188C304.77 144.241 311.306 139.326 318.145 134.775C325.71 129.738 333.517 125.187 342.111 122.092C349.191 119.543 356.454 117.359 363.656 115.053C370.979 112.747 378.241 110.138 385.14 106.74C388.106 105.344 391.132 104.13 393.976 102.492C396.215 101.217 398.454 99.8218 400.512 98.3047C401.844 97.3338 402.086 97.3945 403.236 98.4868C403.478 98.7295 403.72 98.9722 404.022 99.1543C407.472 101.157 410.437 103.766 413.463 106.254C417.216 109.349 421.452 111.715 425.809 113.839C431.377 116.509 437.005 119.119 442.513 121.971C444.752 123.124 446.87 124.519 448.807 126.158C449.23 126.522 449.654 126.886 449.957 127.311C450.743 128.464 450.622 129.252 449.412 129.981C447.052 131.437 444.51 132.651 441.968 133.804C434.766 136.898 427.685 140.236 420.726 143.816C411.224 148.792 401.057 151.28 390.345 151.887C384.111 152.251 377.817 152.372 371.584 153.04C358.996 154.375 347.013 157.652 335.453 162.81C328.131 166.086 321.473 170.516 314.695 174.643C313.666 175.31 312.577 175.917 311.548 176.584C310.338 177.373 310.943 178.83 310.398 179.922C309.551 181.56 308.704 183.199 307.312 184.412C306.283 185.323 306.283 185.383 307.372 186.415C310.459 189.449 313.243 192.786 316.269 195.881C320.324 200.008 324.015 204.559 328.615 208.2C331.701 210.627 335.272 212.326 338.6 214.389C340.84 215.785 343.139 216.999 345.5 218.152C347.981 219.426 350.281 221.004 351.794 223.492C352.641 224.887 353.367 226.283 353.246 227.982C353.065 231.259 351.975 234.172 349.494 236.356C347.376 238.237 344.592 239.087 341.747 238.48C337.874 237.57 333.88 237.206 330.007 236.113C326.86 235.264 323.894 233.807 320.868 232.654C318.387 231.744 315.966 230.713 313.908 229.014C313.545 228.71 312.94 228.589 312.335 228.285C313.122 231.744 314.029 234.96 314.453 238.359C314.877 241.453 315.3 244.487 315.724 247.582C316.027 249.949 316.329 252.255 316.571 254.621C317.358 263.117 316.632 271.552 315.906 280.047C314.998 290.363 312.638 300.436 311.125 310.691C310.398 315.364 308.825 319.915 307.493 324.466C307.251 325.316 306.949 326.165 306.767 327.015C306.586 327.986 306.283 328.957 306.888 329.928C307.372 330.777 307.191 331.809 307.07 332.719C306.828 334.782 306.646 336.906 306.162 338.969C305.799 340.729 304.649 341.7 302.954 341.882C302.228 341.943 301.865 342.185 301.623 342.853C300.231 346.676 298.839 350.499 297.75 354.443C297.387 355.778 297.387 357.113 297.387 358.509C297.447 360.208 296.6 361.118 295.147 361.786C293.332 362.574 291.456 362.696 289.58 362.635C287.159 362.574 284.738 362.21 282.317 361.907C281.167 361.786 280.138 361.24 279.049 360.815C277.96 360.39 277.597 359.358 277.476 358.327C276.991 355.353 276.507 352.441 276.568 349.406C276.628 347.283 276.265 345.219 276.447 343.096C276.507 342.549 276.144 342.428 275.721 342.367C274.994 342.307 274.45 341.943 274.147 341.275C273.481 339.576 272.755 337.816 272.937 335.935C272.997 335.389 273.058 334.843 272.876 334.357C272.634 333.386 272.876 332.537 273.663 331.991C274.51 331.384 274.268 330.777 274.268 329.928C274.208 327.925 273.905 325.983 273.723 324.041C273.239 319.854 273.118 315.667 272.634 311.48C272.21 307.718 272.15 303.895 271.908 300.133C271.787 300.072 271.726 300.011 271.666 300.011C270.637 300.011 269.487 299.708 268.7 300.254C267.671 300.922 268.398 302.135 268.337 303.106C267.732 312.148 267.792 321.25 266.945 330.292C266.885 331.081 267.006 331.566 267.792 331.869C268.156 331.991 268.458 332.355 268.519 332.78C268.761 335.632 269.063 338.423 267.732 341.154C267.429 341.7 267.127 342.185 266.461 342.367C265.614 342.549 265.553 343.156 265.553 343.945C265.614 346.676 265.614 349.406 265.614 352.137C265.614 354.382 265.19 356.628 264.887 358.812C264.706 360.208 263.859 360.997 262.648 361.422C260.349 362.271 257.928 362.514 255.507 362.878C253.086 363.303 250.786 363.181 248.426 362.757C245.763 362.21 244.916 361.118 245.158 358.387C245.279 356.992 244.795 355.839 244.371 354.625C243.161 351.288 241.829 348.011 240.559 344.734C240.135 343.702 239.59 343.096 238.38 342.974C236.988 342.853 236.08 341.943 235.656 340.547C234.749 337.816 234.567 334.964 234.265 332.112C234.204 331.869 234.265 331.505 234.386 331.323C235.172 329.988 234.688 328.714 234.204 327.5C232.449 322.767 230.936 317.973 229.665 313.119C228.818 309.963 228.273 306.747 227.607 303.531C226.7 299.162 225.731 294.732 224.884 290.363C224.037 285.873 223.31 281.382 222.826 276.831C222.342 272.765 221.858 268.7 221.676 264.634C221.495 260.629 221.555 256.563 222.04 252.558C222.463 249.281 222.645 246.005 223.008 242.788C223.371 239.147 223.734 235.446 224.702 231.866C224.884 231.32 225.066 230.713 224.884 230.045C224.702 230.106 224.4 230.045 224.279 230.167C221.253 232.958 217.44 234.232 213.809 235.931C210.057 237.691 206.183 239.087 202.068 239.815C200.737 240.058 200.737 240.118 201.039 241.635C202.189 247.461 203.278 253.286 204.428 259.051C205.578 264.695 206.789 270.399 207.878 276.042C209.028 281.685 210.117 287.39 211.207 293.094C212.114 297.706 213.083 302.317 213.99 306.868C215.14 312.512 216.23 318.216 217.319 323.859C217.319 323.981 217.319 324.163 217.319 324.284C217.622 325.012 218.287 325.741 217.501 326.529C216.593 327.44 215.867 328.471 214.414 328.775C212.72 329.078 211.207 328.653 209.633 328.046C208.967 327.804 208.786 327.258 208.665 326.59C207.152 318.034 205.578 309.478 203.944 300.922C202.189 291.819 200.616 282.717 198.921 273.615C197.832 267.729 196.682 261.842 195.532 255.956C194.685 251.527 193.837 247.157 193.051 242.728C192.93 241.939 192.748 241.575 191.901 241.393C187.241 240.118 184.88 236.66 184.033 232.169C183.549 229.56 184.638 227.193 186.333 225.191C187.059 224.341 187.785 223.552 188.754 223.006C189.419 222.642 189.48 222.157 189.359 221.428C187.906 214.45 186.938 207.35 185.546 200.311C184.759 196.427 183.912 192.604 183.489 188.66C183.428 188.357 183.489 187.993 183.186 187.75C181.854 186.536 181.733 184.898 181.552 183.259C181.37 181.985 180.947 180.893 180.523 179.679C178.465 180.589 176.287 180.589 174.168 181.014C172.171 181.439 170.174 181.621 168.117 181.924C167.753 181.985 167.451 181.985 167.088 181.985C164.667 182.046 163.759 181.5 162.912 179.194C162.367 177.616 161.822 175.978 161.459 174.339C160.249 169.667 159.16 164.933 158.736 160.14C158.07 152.615 157.405 145.03 158.918 137.505C159.22 136.11 159.523 134.714 159.946 133.318C160.188 132.408 160.552 131.498 161.217 130.77C161.822 130.041 162.488 129.981 163.093 130.648C163.941 131.498 164.183 132.529 164.122 133.682C163.88 138.901 163.699 144.18 164.243 149.399C164.667 153.586 165.393 157.773 165.938 161.96C166.422 165.662 167.451 169.303 168.177 172.943C168.419 174.036 168.722 174.278 169.872 174.036C173.261 173.429 173.503 173.247 172.716 169.97C171.808 166.147 170.961 162.263 170.598 158.319C169.932 150.795 169.266 143.209 170.779 135.685C171.203 133.622 171.566 131.498 172.595 129.617C172.837 129.192 173.019 128.585 173.684 128.524C174.29 128.524 174.895 128.464 175.258 129.192C175.681 129.92 175.863 130.648 175.863 131.498C175.803 136.716 175.439 141.996 176.045 147.214C176.468 151.098 176.952 154.921 177.558 158.744C178.344 162.931 179.071 166.936 180.281 171.062Z" fill="#010101"/>
<path d="M263.254 7.64655C262.528 8.55677 261.862 9.40632 261.136 10.3165C260.954 10.4986 260.712 10.62 260.41 10.4379C260.168 10.2559 260.107 10.0131 260.289 9.70973C261.015 8.67813 261.741 7.70723 263.254 7.64655Z" fill="#222222"/>
<path d="M274.752 11.4699C273.784 10.8024 273.118 9.89218 272.694 8.86059C272.573 8.61786 272.634 8.31444 272.936 8.19308C273.118 8.1324 273.36 8.25377 273.481 8.37514C274.026 9.28537 274.692 10.2563 274.752 11.4699Z" fill="#222222"/>
<path d="M266.098 10.4973C265.674 9.52642 265.614 8.79824 265.856 8.13074C265.916 7.88801 266.159 7.70596 266.461 7.76664C266.703 7.82733 266.945 7.94868 267.006 8.25209C267.066 8.98027 266.824 9.64778 266.098 10.4973Z" fill="#242424"/>
<path d="M277.355 330.656C277.234 329.381 277.053 328.168 276.992 326.954C276.689 321.007 276.084 315.06 275.358 309.114C275.055 306.565 274.934 303.956 274.39 301.407C274.148 300.375 274.692 300.011 275.6 300.072C276.508 300.133 277.355 299.829 278.202 299.647C278.626 299.526 278.929 299.222 278.929 298.798C278.989 298.252 278.687 297.827 278.142 297.705C277.476 297.523 276.811 297.402 276.145 297.402C271.787 297.099 267.43 297.22 263.073 297.645C262.346 297.705 261.741 298.009 261.62 298.798C261.56 299.647 262.225 299.769 262.83 299.89C263.496 300.011 264.162 300.011 264.888 300.072C266.159 300.193 266.22 300.193 266.159 301.528C265.856 305.412 265.554 309.296 265.191 313.179C265.07 314.332 264.949 315.485 265.009 316.638C265.13 320.947 264.343 325.194 264.586 329.503C264.646 330.474 264.283 330.838 263.315 330.777C258.836 330.656 254.358 330.595 249.879 329.928C246.248 329.381 242.556 329.26 238.925 328.896C238.017 328.775 237.473 328.593 237.17 327.622C235.839 322.949 234.386 318.398 233.115 313.725C232.268 310.509 231.663 307.233 230.997 303.956C229.968 299.283 228.879 294.671 227.971 289.999C227.063 285.569 226.216 281.2 226.034 276.649C225.853 273.069 225.49 269.428 225.006 265.847C224.643 263.299 224.521 260.689 224.703 258.08C225.248 250.798 225.49 243.456 226.579 236.235C227.124 232.533 227.366 228.771 228.334 225.13C228.576 224.159 228.939 223.552 230.029 223.491C231.965 223.431 233.781 223.006 235.657 222.521C235.96 222.46 236.323 222.399 236.625 222.399C238.38 222.278 238.502 222.278 238.623 223.977C238.744 224.948 238.986 225.858 239.349 226.708C240.922 230.409 246.006 230.834 247.882 228.589C248.85 227.436 249.032 225.979 249.335 224.644C249.577 223.552 248.971 222.035 249.819 221.368C250.545 220.821 251.876 220.943 252.966 220.882C257.505 220.639 262.044 220.093 266.583 220.215C270.94 220.336 275.298 220.215 279.655 220.275C281.955 220.275 284.254 220.518 286.554 220.579C287.522 220.639 287.886 221.064 287.886 221.974C287.886 223.249 288.128 224.523 288.551 225.737C289.459 228.103 290.609 229.135 292.969 229.196C295.087 229.256 297.387 227.8 298.053 225.797C298.416 224.705 298.84 223.613 298.84 222.46C298.84 221.61 299.263 221.186 300.111 221.246C302.834 221.428 305.436 222.338 308.16 222.278C308.765 222.278 308.825 222.885 308.946 223.309C309.794 226.101 310.096 229.014 310.702 231.866C311.791 237.266 312.396 242.728 313.122 248.189C313.606 251.83 314.03 255.471 314.212 259.112C314.393 261.964 314.03 264.816 313.849 267.668C313.606 271.43 313.425 275.132 313.304 278.894C313.183 281.989 312.638 285.144 312.093 288.178C310.702 295.824 309.31 303.41 308.099 311.055C307.615 314.15 306.526 317.124 305.92 320.158C305.436 322.282 304.71 324.345 304.165 326.469C303.984 327.197 303.802 327.682 302.894 327.743C297.569 327.986 292.304 329.139 287.038 329.867C284.92 330.17 282.741 330.413 280.563 330.292C279.655 330.413 278.626 330.534 277.355 330.656Z" fill="#828282"/>
<path d="M292.666 72.9397C292.061 75.8524 292.485 78.7652 292.969 81.6779C293.332 84.0445 293.332 86.4718 292.848 88.8384C291.698 94.4818 291.698 100.125 292.848 105.708C293.937 111.109 293.937 116.57 293.695 122.031C293.453 128.342 293.695 134.593 295.026 140.782C295.511 143.027 295.511 145.212 295.087 147.518C294.603 150.248 295.026 152.979 295.087 155.71C295.208 158.441 295.692 161.171 295.208 163.902C295.208 163.963 295.147 164.023 295.208 164.084C296.297 166.39 294.482 167.786 293.332 169.121C291.274 171.548 288.974 173.854 286.675 176.038C282.378 180.043 277.778 183.684 272.876 186.9C272.21 187.325 271.726 187.386 271.061 186.961C268.942 185.687 266.885 185.869 265.069 187.568C264.282 188.296 263.677 188.296 262.709 187.932C259.441 186.597 256.415 184.959 253.631 182.835C247.7 178.344 241.951 173.672 236.625 168.453C236.262 168.089 235.717 167.846 235.959 167.118C236.988 164.569 236.383 161.96 235.838 159.472C234.991 155.588 235.112 151.766 235.838 147.882C236.504 144.484 236.262 141.086 235.778 137.687C235.475 135.26 234.991 132.833 234.991 130.345C234.93 127.614 235.293 124.944 236.141 122.274C237.412 118.148 237.593 113.961 236.927 109.713C236.383 106.558 236.504 103.463 236.988 100.307C237.593 96.3629 237.654 92.4186 236.927 88.4743C236.625 86.7752 236.685 85.0761 237.049 83.377C237.533 80.707 238.38 78.0977 238.259 75.0029C240.256 77.0054 242.435 77.6122 244.916 77.4909C248.487 77.3088 250.665 75.7918 251.755 72.3936C251.997 71.6047 251.936 70.6945 253.268 71.2406C253.934 71.4834 254.478 70.9372 254.539 70.2697C254.599 69.5415 254.055 69.1774 253.389 69.0561C250.968 68.5706 248.547 68.1458 246.187 67.6604C243.887 67.2356 241.648 66.7502 239.348 66.3254C238.44 66.1433 238.319 65.7792 238.38 64.9297C238.985 57.7692 240.68 51.0942 245.521 45.4508C246.308 44.5406 247.095 44.1158 248.245 44.0551C256.778 43.6303 265.251 43.8731 273.784 44.4799C277.294 44.7226 280.865 45.026 284.375 45.4508C285.767 45.6329 286.614 46.179 287.34 47.2713C290.003 51.3976 291.637 55.9488 292.424 60.8033C292.606 61.9563 292.666 63.1093 292.848 64.2622C293.029 65.2938 292.606 65.7186 291.637 65.9613C288.551 66.6288 285.525 67.357 282.499 68.0852C281.591 68.3279 280.623 68.4493 279.715 68.8134C278.747 69.1774 278.626 69.7842 279.533 70.3911C280.017 70.6945 280.139 70.9979 280.139 71.4834C280.26 73.8499 281.591 75.2456 283.77 75.9131C286.433 76.7627 289.761 76.6413 292.666 72.9397Z" fill="white"/>
<path d="M446.568 128.524C442.634 130.526 438.76 131.983 434.948 133.621C429.925 135.745 425.023 138.111 420.181 140.599C411.164 145.333 401.541 147.76 391.434 148.427C383.506 148.973 375.517 149.216 367.589 150.308C355.667 152.008 344.168 155.345 333.214 160.442C325.952 163.78 319.234 168.149 312.456 172.336C312.032 172.579 311.669 172.882 311.246 173.125C310.822 173.428 310.519 173.428 310.217 172.943C309.43 171.486 308.159 170.576 306.707 169.909C306.222 169.666 305.98 169.363 306.041 168.816C306.101 168.27 306.101 167.724 306.041 167.178C305.859 163.476 303.923 161.049 300.412 160.018C298.415 159.411 298.597 159.411 298.294 157.53C298.052 155.831 298.657 154.799 299.868 153.707C309.067 145.029 319.234 137.747 330.067 131.315C336.482 127.553 343.442 124.822 350.462 122.516C357.725 120.15 364.987 117.904 372.249 115.538C379.27 113.232 385.866 110.016 392.523 106.8C395.126 105.525 397.486 104.008 399.786 102.248C401.299 101.095 401.299 101.217 402.812 102.248C407.472 105.404 411.285 109.53 416.126 112.382C419.092 114.081 422.057 115.72 425.144 117.176C430.469 119.664 435.735 122.152 440.939 124.883C442.997 125.914 444.873 126.885 446.568 128.524Z" fill="#31C77F"/>
<path d="M308.523 219.73C305.255 219.79 302.471 218.637 299.445 219.002C298.96 217.606 299.081 216.089 298.96 214.632C298.476 208.382 297.508 202.193 296.842 196.003C296.661 194.486 296.6 192.848 295.934 191.452C295.632 190.724 295.874 190.481 296.479 190.238C298.779 189.267 301.2 188.539 303.439 187.326C304.044 187.022 304.347 187.386 304.649 187.69C305.739 188.782 306.949 189.814 307.978 190.967C310.641 194.183 313.485 197.277 316.451 200.19C319.719 203.528 322.745 207.108 326.436 210.021C329.402 212.387 332.488 214.511 335.938 216.15C337.451 216.878 338.782 217.97 340.235 218.88C342.111 220.094 344.35 220.519 346.287 221.793C347.497 222.582 348.647 223.431 349.555 224.463C351.249 226.405 351.673 228.65 350.463 231.077C350.342 231.32 350.221 231.563 350.1 231.805C349.01 235.022 345.803 236.175 343.14 235.507C339.569 234.658 335.938 234.293 332.367 233.565C329.947 233.08 327.707 232.17 325.468 231.199C324.5 230.774 323.471 230.349 322.442 229.985C319.658 229.014 317.177 227.436 314.817 225.798C314.696 225.737 314.635 225.616 314.514 225.555C311.67 224.524 311.125 222.036 310.641 219.487C310.459 218.395 310.096 217.363 309.793 216.332C309.612 215.785 309.249 215.361 308.583 215.543C307.978 215.725 308.038 216.21 308.038 216.696C307.917 217.606 307.978 218.577 308.523 219.73Z" fill="white"/>
<path d="M228.816 191.876C231.116 195.395 234.384 197.398 238.076 198.854C239.044 199.279 239.347 199.825 239.286 200.857C239.105 203.83 238.923 206.804 238.56 209.838C238.257 212.811 237.955 215.845 238.197 218.819C238.257 219.607 238.197 220.154 237.229 220.154C234.566 220.093 232.024 221.003 229.301 221.367C228.998 220.214 229.603 219.061 229.179 217.969C228.998 217.544 229.179 216.937 228.514 216.937C227.909 216.937 227.666 217.362 227.545 217.848C227.061 219.911 226.577 221.974 226.214 224.037C226.032 225.008 225.851 225.736 224.883 226.1C224.64 226.222 224.398 226.404 224.217 226.586C219.678 230.53 214.171 232.775 208.724 235.021C205.153 236.477 201.34 237.266 197.588 238.176C197.165 238.297 196.741 238.176 196.378 238.419C194.32 239.693 192.505 238.844 190.568 238.055C189.479 237.63 188.873 236.72 188.268 235.81C187.905 235.203 187.542 234.535 187.3 233.807C186.15 230.591 187.239 227.496 190.507 225.19C192.262 223.977 194.199 222.945 196.136 221.913C197.044 221.428 197.951 221.064 198.799 220.457C200.433 219.243 202.248 218.394 204.003 217.302C209.208 214.207 213.263 209.838 217.257 205.408C221.13 200.978 224.822 196.488 228.816 191.876Z" fill="white"/>
<path d="M202.008 61.8955C202.008 59.9536 202.916 58.3152 204.187 56.9195C206.426 54.4923 209.089 52.6111 211.994 51.0941C216.775 48.6668 221.98 47.4532 227.124 46.3002C228.576 45.9968 230.089 45.7541 231.542 45.4507C232.571 45.2686 233.176 45.5113 233.66 46.4822C234.689 48.7275 235.778 50.912 237.412 52.7932C237.957 53.4 237.654 53.9461 237.473 54.4923C235.96 59.2861 235.234 64.2014 234.87 69.1773C234.689 71.3618 235.052 73.5464 234.992 75.7309C234.81 79.5539 234.689 79.0685 231.602 78.4616C225.127 77.1873 218.712 75.6703 212.599 72.9396C209.573 71.6046 206.91 69.7234 204.611 67.3568C202.856 65.6577 202.069 63.7766 202.008 61.8955Z" fill="#808285"/>
<path d="M287.643 218.456C285.465 218.335 283.286 218.274 281.168 218.031C276.145 217.546 271.121 217.728 266.098 217.728C261.196 217.667 256.355 218.335 251.513 218.881C251.271 218.881 250.968 218.941 250.726 219.002C250 219.123 249.576 218.82 249.576 218.031C249.576 216.696 249.455 215.301 249.516 213.966C249.819 209.961 250.303 205.955 250.363 201.95C250.363 200.858 251.089 200.798 251.816 200.615C254.6 200.009 257.444 199.523 260.107 198.613C261.015 198.31 261.923 198.067 262.77 197.703C264.464 196.975 266.038 196.428 267.974 197.096C269.487 197.642 271.122 197.096 272.392 196.004C273.179 195.336 273.966 195.093 274.934 195.033C277.839 194.729 280.744 194.426 283.649 193.88C285.102 193.637 285.162 193.698 285.344 195.033C285.646 197.399 285.888 199.766 286.191 202.133C286.675 206.562 287.401 210.992 287.643 215.483C287.764 216.393 287.825 217.364 287.643 218.456Z" fill="white"/>
<path d="M174.35 131.194C174.35 132.165 174.41 133.196 174.35 134.167C174.108 137.505 174.289 140.842 174.35 144.18C174.35 146.122 174.592 148.124 174.773 150.066C175.258 155.042 175.742 159.957 176.771 164.872C177.255 167.239 177.92 169.606 178.586 171.972C178.949 173.186 179.494 173.489 180.704 173.186C182.338 172.822 183.972 172.336 185.667 172.033C187.24 171.729 187.604 171.062 187.18 169.545C186.03 165.358 185.062 161.11 184.336 156.802C183.912 154.253 183.73 151.644 183.609 149.095C183.367 143.391 183.125 137.626 184.396 131.983C184.699 130.587 185.001 129.191 186.03 127.978C186.03 128.827 186.03 129.616 186.03 130.466C186.03 134.349 186.03 138.233 186.091 142.117C186.151 144.544 186.454 147.032 186.696 149.459C186.998 152.736 187.422 155.952 187.906 159.168C188.451 162.566 189.419 165.783 190.206 169.12C190.569 170.637 191.295 170.88 192.808 170.455C193.898 170.152 195.048 169.788 196.137 169.545C196.863 169.424 197.287 168.877 197.831 168.453C198.679 167.785 197.771 167.239 197.65 166.632C196.682 161.838 195.35 157.105 194.927 152.19C194.684 149.581 194.563 147.032 194.442 144.423C194.2 139.083 194.321 133.803 195.895 128.585C196.076 127.978 196.137 127.25 196.924 126.703C197.166 128.281 197.105 129.738 197.045 131.194C196.924 136.837 197.105 142.481 197.71 148.124C198.134 152.008 198.618 155.831 199.223 159.654C199.587 162.02 200.373 164.266 200.918 166.571C201.221 167.664 201.16 168.756 201.221 169.788C201.281 170.941 200.676 171.547 199.647 171.851C196.621 172.64 193.716 173.853 190.751 174.824C189.056 175.37 187.664 176.463 185.909 176.766C185.546 176.827 184.88 177.069 185.062 177.676C185.243 178.222 185.849 178.04 186.333 177.919C186.454 177.858 186.575 177.858 186.696 177.798C187.301 177.616 187.604 177.798 187.664 178.465C187.967 180.346 188.269 182.227 188.693 184.109C188.814 184.776 188.632 185.14 188.088 185.444C187.483 185.747 186.877 186.05 186.212 186.232C184.638 186.718 183.912 186.232 183.549 184.655C183.186 182.713 182.52 180.832 182.217 178.89C182.036 177.737 181.491 177.737 180.765 177.798C179.554 177.919 178.344 178.101 177.134 178.344C173.866 179.072 170.537 179.254 167.208 179.497C164.848 179.679 164.848 179.497 164.243 177.251C163.275 173.429 162.427 169.606 161.52 165.722C160.854 162.87 160.43 159.957 160.188 157.044C159.825 152.068 159.522 147.093 159.886 142.117C160.067 139.083 160.612 136.17 161.641 133.318C161.701 133.075 161.762 132.772 162.125 132.711C162.367 133.196 162.306 133.743 162.306 134.289C162.306 138.172 162.246 142.056 162.306 145.94C162.367 147.942 162.488 149.884 162.73 151.886C163.275 156.741 163.698 161.656 164.727 166.45C165.272 169.059 165.998 171.608 166.664 174.157C167.027 175.37 168.116 176.22 169.266 175.977C170.779 175.734 172.353 175.613 173.805 174.946C175.56 174.157 175.681 173.732 175.197 171.851C173.563 165.54 172.05 159.168 171.869 152.554C171.808 150.066 171.626 147.517 171.566 144.969C171.445 140.964 171.869 137.08 172.837 133.196C173.26 132.711 173.442 131.922 174.35 131.194Z" fill="#808285"/>
<path d="M323.895 62.867C324.016 64.8088 323.229 66.3258 321.958 67.7215C319.356 70.5736 316.209 72.5154 312.577 73.6683C307.373 75.3068 301.926 75.9743 296.54 76.5811C295.208 76.7631 295.087 76.5811 295.39 75.2461C296.903 68.1463 295.935 61.2892 293.877 54.4322C293.756 54.0074 293.453 53.5826 293.877 53.0972C295.148 51.7622 295.813 50.1237 296.661 48.6067C297.084 47.8785 297.448 47.6965 298.295 47.8785C304.165 49.0315 309.975 50.5485 315.361 53.3399C317.843 54.6749 320.142 56.2526 322.079 58.3158C323.229 59.6508 324.137 61.0465 323.895 62.867Z" fill="#808285"/>
<path d="M230.148 179.498C231.721 180.469 232.69 182.411 234.929 181.986C234.929 180.894 234.203 180.408 233.719 179.862C232.024 177.92 230.753 175.796 230.39 173.187C230.148 171.245 230.451 169.546 231.964 168.15C232.508 167.665 232.932 167.604 233.477 168.211C236.442 171.913 240.073 174.886 243.462 178.163C248.667 183.2 254.477 187.204 261.134 190.117C261.739 190.36 262.647 190.481 262.829 191.088C263.131 192.059 263.252 193.091 263.555 194.062C263.676 194.426 263.252 194.608 262.889 194.729C261.195 195.518 259.561 196.367 257.745 196.55C255.385 196.853 253.085 197.399 250.725 197.945C246.428 198.977 242.312 198.188 238.5 196.125C236.079 194.85 233.9 193.333 231.842 191.392C228.695 188.54 227.848 183.564 230.148 179.498Z" fill="#31C77F"/>
<path d="M298.718 162.021C301.865 162.628 303.801 164.752 304.043 167.665C304.104 168.575 303.741 169.243 303.257 169.91C302.651 170.76 302.046 171.549 301.502 172.398C301.078 173.005 300.957 173.733 301.562 174.279C302.288 174.947 302.954 174.522 303.559 174.097C304.285 173.551 304.528 172.641 305.254 171.973C306.525 172.823 307.856 173.551 308.401 175.25C309.248 178.223 308.159 180.529 305.254 182.532C302.47 184.413 299.323 185.566 296.297 186.962C289.942 189.874 283.164 191.27 276.265 192.18C274.873 192.362 274.812 192.362 274.449 190.845C274.268 190.178 273.36 189.632 273.905 188.843C274.328 188.297 274.933 187.933 275.478 187.569C279.291 184.838 283.225 182.229 286.735 179.134C290.79 175.554 294.481 171.67 297.749 167.361C298.476 166.451 299.02 165.48 298.476 164.145C298.233 163.478 298.536 162.75 298.718 162.021Z" fill="#31C77F"/>
<path d="M213.022 327.075C211.751 327.075 211.267 326.65 211.025 325.376C209.875 319.368 208.664 313.361 207.515 307.353C206.425 301.528 205.457 295.702 204.368 289.877C203.46 285.083 202.491 280.289 201.644 275.435C200.736 270.641 199.95 265.786 199.042 260.992C198.376 257.23 197.589 253.528 196.863 249.766C196.379 247.339 195.955 244.972 195.471 242.545C195.29 241.756 195.653 241.392 196.318 241.271C199.284 240.785 198.8 240.057 199.405 243.091C200.373 247.642 201.221 252.133 202.128 256.684C203.278 262.449 204.428 268.153 205.578 273.918C206.728 279.561 207.938 285.265 209.028 290.909C209.935 295.52 210.843 300.132 211.751 304.683C212.901 310.266 214.111 315.849 215.261 321.432C215.443 322.16 215.503 322.888 215.685 323.616C216.229 325.497 214.958 327.075 213.022 327.075Z" fill="white"/>
<path d="M242.494 343.096C247.88 343.096 253.025 343.096 258.108 343.096C259.379 343.096 260.711 342.974 261.981 342.914C263.737 342.792 263.797 342.853 263.676 344.673C263.616 345.887 263.555 347.101 263.373 348.314C262.889 351.409 263.071 354.565 262.708 357.659C262.587 358.812 262.284 359.359 260.953 359.662C258.048 360.39 255.082 360.572 252.117 360.633C251.33 360.633 250.483 360.451 249.696 360.269C247.699 359.783 247.517 359.601 247.457 357.538C247.396 355.232 246.367 353.23 245.581 351.106C244.733 348.557 243.644 346.009 242.494 343.096Z" fill="white"/>
<path d="M299.867 342.308C298.96 344.553 298.173 346.616 297.507 348.619C296.539 351.713 295.207 354.687 295.389 358.024C295.449 358.935 294.542 359.299 293.876 359.42C289.7 360.391 285.585 360.209 281.409 359.299C280.38 359.056 280.138 358.328 280.077 357.539C279.775 354.687 279.472 351.895 279.23 349.043C279.109 347.769 278.928 346.495 278.807 345.22C278.504 342.854 278.564 342.854 280.864 342.793C281.893 342.793 282.922 342.732 283.89 342.793C287.945 342.854 292 342.429 296.055 342.368C297.326 342.247 298.415 342.308 299.867 342.308Z" fill="white"/>
<path d="M317.66 51.7014C316.389 51.58 315.602 50.5484 314.513 50.063C310.034 47.9391 305.374 46.6041 300.593 45.5118C295.025 44.2375 289.276 43.8734 283.708 42.7205C279.956 41.9316 276.143 41.8102 272.331 41.5675C262.466 40.8393 252.601 40.7786 242.736 41.5675C238.803 41.8709 234.869 41.9923 230.996 42.9632C230.814 43.0239 230.632 42.9025 230.451 42.8418C230.814 42.053 231.601 42.1136 232.206 41.9316C238.44 40.6573 244.673 39.3223 250.967 38.23C253.69 37.7445 256.535 37.7445 259.319 37.6839C266.339 37.3804 273.359 37.1984 280.38 37.8052C286.795 38.3514 293.21 39.1402 299.322 41.5068C301.501 42.3564 303.68 43.0846 305.858 43.8734C309.308 45.1477 312.455 47.0896 315.481 49.0921C316.449 49.6989 317.236 50.6091 318.083 51.3373C318.144 51.7014 318.083 51.9441 317.66 51.7014Z" fill="#FEFEFE"/>
<path d="M283.834 28.6421C281.958 30.948 280.082 32.7685 278.569 34.8317C277.843 35.8026 276.814 35.8026 275.785 35.6812C272.154 35.0744 268.462 35.1958 264.831 35.3171C261.866 35.4385 258.84 35.6205 255.874 35.8026C255.39 35.8026 254.966 35.9846 254.603 35.4992C253.03 33.3753 251.396 31.3121 249.58 28.8848C261.139 26.5182 272.335 26.0328 283.834 28.6421Z" fill="#31C77F"/>
<path d="M304.588 329.503C304.83 332.173 304.528 334.54 304.165 336.907C303.801 338.97 303.438 339.334 301.381 339.455C298.899 339.577 296.358 339.577 293.876 339.637C291.577 339.698 289.277 339.759 286.977 340.001C284.193 340.365 281.409 340.123 278.625 340.244C276.87 340.305 276.991 340.183 276.326 338.545C275.781 337.331 275.599 336.057 275.66 334.783C275.66 333.569 275.962 333.205 277.173 333.084C280.32 332.841 283.527 332.659 286.674 332.355C289.821 332.052 292.968 331.506 296.115 330.899C298.839 330.474 301.623 330.049 304.588 329.503Z" fill="#A7A9AC"/>
<path d="M261.678 340.303C260.346 340.424 259.075 340.607 257.865 340.546C254.415 340.485 250.966 340.364 247.455 340.424C245.821 340.424 244.187 340.425 242.553 340.485C241.948 340.485 241.343 340.546 240.738 340.546C238.68 340.364 238.014 339.818 237.651 337.815C237.349 335.995 237.167 334.174 237.046 332.354C236.925 330.958 237.107 330.776 238.499 330.958C241.888 331.383 245.216 331.747 248.605 332.293C251.752 332.779 254.96 333.143 258.167 333.021C260.346 332.961 262.525 333.203 264.704 333.385C266.398 333.507 266.398 333.689 266.398 335.388C266.398 336.784 265.914 338.058 265.732 339.393C265.672 340.06 265.188 340.303 264.643 340.364C263.614 340.425 262.585 340.607 261.678 340.303Z" fill="#A7A9AC"/>
<path d="M289.76 219.85C289.518 214.935 289.397 210.809 289.034 206.682C288.671 202.556 288.187 198.43 287.279 194.425C287.098 193.454 287.279 193.029 288.187 192.786C289.7 192.422 291.213 191.997 292.726 191.573C293.694 191.33 293.694 192.119 293.876 192.604C294.541 195.032 295.086 197.459 295.207 200.007C295.449 204.316 296.115 208.624 296.599 212.933C297.023 216.452 297.204 219.911 296.539 223.431C296.236 224.948 295.752 226.283 294.118 226.89C292.423 227.496 291.394 227.132 290.729 225.494C289.881 223.431 290.002 221.185 289.76 219.85Z" fill="#828282"/>
<path d="M236.926 38.836C233.537 39.989 233.598 39.989 232.569 36.9549C231.056 32.4038 230.39 27.6706 229.846 22.9374C229.725 21.7238 229.725 20.4494 229.967 19.2358C230.451 16.6871 232.145 15.8376 234.506 17.0512C236.14 17.9008 237.592 19.0537 238.924 20.3281C242.978 24.2117 246.489 28.5201 249.757 33.1319C250.483 34.1635 251.209 35.2558 251.935 36.3481C250.543 37.0156 249.151 36.8335 247.88 37.1976C246.973 37.4404 246.731 36.7122 246.368 36.1054C244.733 33.1319 242.615 30.4013 240.376 27.8526C239.468 26.821 238.5 25.8501 237.35 25.1219C235.716 24.0903 234.566 24.5758 234.385 26.5176C234.143 28.7628 234.385 31.0081 234.99 33.1926C235.474 35.0738 236.14 36.8942 236.926 38.836Z" fill="#FEFEFE"/>
<path d="M248.245 201.404C248.124 204.681 247.7 207.776 247.821 210.931C247.882 212.691 247.7 214.451 247.821 216.271C247.942 218.88 247.518 221.429 247.458 224.038C247.458 224.645 247.276 225.252 247.095 225.859C246.792 226.708 246.732 227.861 245.521 227.983C244.19 228.104 242.919 227.861 242.072 226.708C241.466 225.859 241.103 224.948 240.922 223.917C240.256 220.276 240.559 216.574 240.74 212.933C240.922 209.293 241.285 205.591 241.588 201.95C241.709 200.433 241.769 200.494 243.161 200.736C244.674 200.858 246.369 201.1 248.245 201.404Z" fill="#828282"/>
<path d="M281.773 35.923C281.712 35.1341 282.257 34.8307 282.62 34.406C287.038 29.3087 292.061 24.8182 297.326 20.5705C297.992 20.0244 298.718 19.4782 299.565 19.1748C301.442 18.3859 302.47 18.9928 302.652 20.9953C302.834 23.3012 302.652 25.6071 302.168 27.913C301.381 31.4932 300.171 35.0128 298.597 38.3503C298.416 38.7751 298.295 39.3819 297.689 39.2605C297.024 39.1392 296.297 39.0785 295.753 38.6537C295.45 38.411 295.692 38.0469 295.813 37.6828C296.418 35.8016 297.145 33.9812 297.508 32.0394C297.689 30.9471 297.871 29.8548 297.75 28.7626C297.568 26.6994 296.116 25.9712 294.482 27.1848C292.666 28.5805 290.972 30.1582 289.459 31.9787C288.49 33.1316 287.522 34.2846 286.675 35.4982C286.07 36.3478 285.404 36.6512 284.436 36.4085C283.649 36.2264 282.741 36.1051 281.773 35.923Z" fill="#FEFEFE"/>
<path d="M188.392 187.508C188.997 190.421 189.542 193.151 190.086 195.882C190.813 199.705 191.478 203.467 192.265 207.29C192.991 210.81 193.717 214.329 194.444 217.849C194.807 219.609 194.746 219.669 193.052 220.458C192.568 220.701 192.083 220.883 191.478 221.126C190.813 219.912 190.813 218.516 190.57 217.242C189.481 212.084 188.452 206.865 187.484 201.647C186.697 197.581 186.031 193.515 185.245 189.45C185.124 188.782 185.184 188.357 185.91 188.297C186.758 188.175 187.484 187.872 188.392 187.508Z" fill="#FDFDFD"/>
<path d="M245.22 37.563C243.344 37.9271 241.468 38.2305 239.592 38.5339C238.926 38.6553 238.442 38.6553 238.14 37.8664C236.748 34.5896 235.356 31.3128 235.356 27.6718C235.356 27.0043 235.114 26.1548 235.84 25.8514C236.566 25.548 237.05 26.2762 237.474 26.7616C240.258 29.9171 242.981 33.1939 245.099 36.8955C245.16 37.0775 245.16 37.2596 245.22 37.563Z" fill="#FEFEFE"/>
<path d="M287.704 37.0772C290.003 33.5577 292.243 30.4629 295.874 28.4604C296.418 29.3099 296.358 30.1595 296.237 31.009C295.874 33.2542 295.027 35.3174 294.179 37.3806C293.877 38.0481 293.514 38.3515 292.787 38.1695C291.153 37.8054 289.519 37.4413 287.704 37.0772Z" fill="#FDFDFD"/>
<path d="M268.337 188.296C270.395 188.235 272.392 190.238 272.452 192.362C272.452 193.94 271.242 195.032 269.487 195.092C266.885 195.153 265.008 193.697 264.948 191.694C264.887 189.874 266.461 188.357 268.337 188.296Z" fill="#31C77F"/>
<path d="M235.837 45.2078C236.624 44.7223 237.35 44.783 238.016 44.7223C239.65 44.601 240.497 45.1471 241.042 46.6642C241.163 47.0889 241.042 47.271 240.861 47.5744C240.255 48.606 239.59 49.6376 238.924 50.7298C237.714 48.9701 236.866 47.1496 235.837 45.2078Z" fill="#F6F6F6"/>
<path d="M294.239 47.3323C293.694 48.3639 293.15 49.3348 292.363 50.1843C291.697 49.5775 291.455 48.8493 291.153 48.2425C290.79 47.4536 291.213 46.7861 292.121 46.7255C292.363 46.7255 292.666 46.7861 292.908 46.7861C293.392 46.9075 293.815 46.9682 294.239 47.3323Z" fill="#EAEAEA"/>
<path d="M243.827 70.6344C243.827 71.2413 243.706 71.8481 243.04 71.9694C242.375 72.0908 241.588 71.3626 241.527 70.6344C241.467 69.9063 241.769 69.4208 242.556 69.4208C243.403 69.4208 243.766 69.9669 243.827 70.6344Z" fill="#E5E5E5"/>
<path d="M285.463 71.7265C284.919 71.6658 284.434 71.4231 284.313 70.8162C284.253 70.3308 284.434 69.7846 284.979 69.7846C285.645 69.7846 286.129 70.1487 286.189 70.8769C286.189 71.3017 285.947 71.6051 285.463 71.7265Z" fill="#C9C9C9"/>
<path d="M243.282 44.2359C242.858 45.0854 242.737 45.6923 242.011 45.5102C241.708 45.4495 241.466 45.0248 241.647 44.6607C242.011 43.9932 242.616 44.4786 243.282 44.2359Z" fill="#BEBEBE"/>
<path d="M317.662 51.7008C317.783 51.5794 317.904 51.458 318.085 51.3367C318.63 51.458 318.872 51.8221 318.993 52.429C318.388 52.429 317.964 52.1862 317.662 51.7008Z" fill="#A6A6A6"/>
<path d="M287.22 242.788C287.341 245.943 286.433 248.978 284.86 251.83C282.56 255.956 279.171 258.565 274.33 259.293C269.851 259.961 265.615 259.111 261.741 257.048C258.05 255.046 256.234 251.587 255.326 247.582C254.782 245.033 254.842 242.424 255.326 239.875C255.629 238.298 255.871 238.055 257.445 237.994C259.139 237.873 260.834 237.751 262.528 237.812C267.309 237.873 272.03 237.751 276.75 238.419C278.99 238.722 281.229 238.601 283.468 238.662C284.376 238.662 285.223 238.662 286.131 238.783C286.918 238.904 287.523 239.147 287.281 240.239C287.099 240.968 287.462 241.817 287.22 242.788Z" fill="#020202"/>
<path d="M275.177 77.3702C275.177 77.5523 275.177 77.613 275.177 77.6736C275.116 79.9796 275.782 81.618 277.295 83.1957C279.594 85.623 279.352 89.5066 276.75 91.5091C275.963 92.1159 275.419 92.7834 275.237 93.7544C275.116 94.2398 274.813 94.786 274.511 95.2107C272.332 98.0021 269.306 99.0337 265.978 98.5482C262.71 98.0628 260.168 96.2423 259.32 92.7835C259.139 92.116 258.776 91.7519 258.292 91.3878C254.66 88.5964 254.781 84.1666 258.715 81.8C259.865 81.1325 259.986 80.465 259.684 79.3727C259.381 78.1591 259.199 77.0062 259.562 75.7318C260.289 73.1225 262.831 71.7875 265.312 72.9405C266.341 73.4259 266.946 73.608 268.035 72.6977C270.093 70.9986 273.785 72.3943 274.813 75.0036C274.995 75.7925 275.237 76.5814 275.177 77.3702Z" fill="#030303"/>
<path d="M291.093 223.43C291.033 221.974 292.001 221.003 293.454 221.003C294.785 221.003 295.753 222.034 295.753 223.491C295.753 224.643 294.543 225.857 293.454 225.857C292.364 225.796 291.154 224.522 291.093 223.43Z" fill="#0D0D0C"/>
<path d="M244.19 221.794C245.4 221.794 246.429 222.886 246.429 224.16C246.429 225.252 245.158 226.587 244.129 226.648C243.04 226.648 241.708 225.495 241.648 224.403C241.648 222.947 242.737 221.854 244.19 221.794Z" fill="#0F0E0E"/>
<path d="M267.187 240.119C271.907 239.997 277.112 240.725 282.377 240.543C283.103 240.543 283.89 240.604 284.616 240.604C285.222 240.604 285.403 240.968 285.403 241.514C285.403 247.097 283.769 252.012 279.17 255.532C277.172 257.049 274.691 257.716 272.27 257.656C269.365 257.595 266.46 257.413 263.737 256.017C260.651 254.44 258.593 252.073 257.564 248.796C256.656 246.065 256.596 243.335 257.019 240.543C257.14 239.815 257.383 239.694 258.048 239.694C260.953 239.876 263.858 239.754 267.187 240.119Z" fill="#D1D1D1"/>
<path d="M262.709 91.0239C261.62 91.0845 260.651 90.7811 259.744 90.2957C257.504 89.082 256.96 86.5941 258.533 84.5916C259.199 83.6814 260.046 83.0138 261.015 82.5284C262.225 81.9822 262.225 81.9216 261.741 80.6473C261.499 80.0404 261.257 79.3729 261.075 78.7054C260.833 77.8559 260.833 76.9457 261.136 76.0961C261.741 74.0936 263.314 73.4868 265.13 74.5791C265.19 74.6398 265.251 74.6397 265.311 74.7004C265.977 75.0645 266.34 75.9141 267.188 75.8534C268.035 75.7927 268.277 74.8825 268.822 74.397C269.608 73.6688 270.577 73.5475 271.484 73.8509C272.574 74.215 273.3 75.0038 273.482 76.2175C273.663 77.5525 273.3 78.7661 272.937 80.0404C272.816 80.5259 272.574 80.9507 272.453 81.3754C272.271 81.9823 272.453 82.4677 273.119 82.5891C273.421 82.6498 273.784 82.7711 274.087 82.8318C276.629 82.9532 278.142 86.5334 276.81 89.1427C276.144 90.4777 274.995 91.1452 273.421 90.9632C271.606 90.7205 270.032 90.1136 268.882 88.5359C267.914 87.2009 267.309 87.2616 266.643 88.7786C265.796 90.5991 264.404 91.0845 262.709 91.0239Z" fill="white"/>
<path d="M267.914 90.1744C269.972 91.8128 269.972 91.8128 273.845 92.6623C273.482 95.0896 271.424 96.728 268.156 97.1528C265.07 97.5776 262.225 95.8785 260.894 92.7837C263.617 93.0264 266.22 92.9657 267.914 90.1744Z" fill="#FCFCFC"/>
<path d="M294.722 223.49C294.722 223.976 293.814 224.704 293.269 224.643C292.664 224.583 291.938 223.672 292.059 223.005C292.24 222.277 292.846 222.216 293.451 222.155C294.056 222.155 294.782 222.944 294.722 223.49Z" fill="#E7E7E7"/>
<path d="M244.249 223.067C244.854 223.188 245.459 223.431 245.399 224.22C245.277 224.887 244.975 225.494 244.128 225.494C243.401 225.494 242.857 224.948 242.857 224.22C242.917 223.37 243.522 223.128 244.249 223.067Z" fill="#EAEAEA"/>
<path d="M261.499 242.607C267.551 242.243 273.603 242 279.595 243.153C279.474 243.699 279.171 243.881 278.808 243.942C272.998 244.063 267.188 243.76 261.499 242.607Z" fill="#070706"/>
<path d="M270.999 78.1582C270.878 78.6436 270.878 79.1898 270.454 79.6145C269.97 80.0393 269.486 80.0393 269.062 79.4932C268.517 78.765 269.062 77.0052 269.849 76.7018C270.514 76.5198 271.059 77.1873 270.999 78.1582Z" fill="#262626"/>
<path d="M265.311 79.251C265.311 79.6758 265.19 79.9792 264.827 80.1005C264.463 80.2826 264.1 80.0399 263.979 79.7971C263.556 79.1296 263.071 78.4015 263.374 77.5519C263.495 77.1878 263.858 77.0058 264.221 77.1878C265.008 77.6733 265.008 78.5835 265.311 79.251Z" fill="#262626"/>
<path opacity="0.7" d="M309 104.138C309.842 100.44 313.125 97.6867 317.054 97.6867C317.773 97.6867 318.475 97.7789 319.138 97.9546C321.074 93.7825 325.278 90.8927 330.157 90.8927C331.418 90.8927 332.634 91.0859 333.777 91.446C336.402 87.0675 341.168 84.1426 346.619 84.1426C353.098 84.1426 358.619 88.284 360.712 94.0855C362.194 93.2554 363.895 92.7768 365.713 92.7768C371.395 92.7768 376 97.4144 376 103.137C376 103.475 375.983 103.813 375.952 104.143H309V104.138Z" fill="white"/>
</svg>
