<?xml version="1.0" encoding="utf-8"?>
<!-- Generator: Adobe Illustrator 25.2.0, SVG Export Plug-In . SVG Version: 6.00 Build 0)  -->
<svg version="1.1" id="Layer_1" xmlns="http://www.w3.org/2000/svg" xmlns:xlink="http://www.w3.org/1999/xlink" x="0px" y="0px"
	 viewBox="0 0 109 109" style="enable-background:new 0 0 109 109;" xml:space="preserve">
<style type="text/css">
	.st0{fill:#31C77F;}
	.st1{fill:#4F4F4F;}
</style>
<path class="st0" d="M54.4,22.9c1.1,0,2-0.9,2-2V10.4c0-1.1-0.9-2-2-2c-1.1,0-2,0.9-2,2v10.4C52.3,22,53.3,22.9,54.4,22.9z"/>
<path class="st0" d="M39,26.2c0.4,0.6,1.1,1,1.7,1c0.4,0,0.7-0.1,1.1-0.3c1-0.6,1.2-1.9,0.6-2.8L37,15.4c-0.6-1-1.9-1.2-2.8-0.6
	c-1,0.6-1.2,1.9-0.6,2.8L39,26.2z"/>
<path class="st0" d="M66.9,26.9c0.3,0.2,0.7,0.3,1.1,0.3c0.7,0,1.3-0.3,1.7-1l5.4-8.6c0.6-1,0.3-2.2-0.6-2.8c-1-0.6-2.2-0.3-2.8,0.6
	l-5.4,8.6C65.7,25,66,26.3,66.9,26.9z"/>
<path class="st1" d="M106.1,56.5l-3.6-6.3c-0.6-1-1.8-1.3-2.8-0.8c-1,0.6-1.3,1.8-0.8,2.8l3.6,6.3c0.2,0.3,0.1,0.6,0.1,0.8
	c0,0.1-0.2,0.4-0.5,0.6l-5.5,3c-0.5,0.3-1.1,0.1-1.4-0.4l-1.4-2.5c0,0,0,0,0,0L79.5,34.6c-0.2-0.3-0.1-0.6-0.1-0.8
	c0-0.1,0.2-0.4,0.5-0.6l5.5-3c0.5-0.3,1.1-0.1,1.4,0.4l3.2,5.7c0.6,1,1.8,1.3,2.8,0.8c1-0.6,1.3-1.8,0.8-2.8l-3.2-5.7
	c-1.4-2.4-4.5-3.3-6.9-1.9l-5.5,3c-1.2,0.7-2,1.7-2.4,3.1c-0.3,1.2-0.2,2.5,0.3,3.7l-3,0.9c-1.3,0.4-2.1,0.6-2.5,0.6c0,0,0,0,0,0
	c-0.3,0-0.6-0.1-1.6-0.5c-0.4-0.2-0.9-0.4-1.6-0.6l-5.4-1.9c-3-1-4.3-1-6.2-0.8L46.4,35c-4.2,0.4-6.8,1.3-8.3,2.9L33,36.4
	c0.6-1.1,0.7-2.4,0.3-3.6c-0.4-1.3-1.2-2.4-2.4-3.1l-5.5-3c-2.5-1.4-5.6-0.5-6.9,1.9L2.7,56.5c-0.7,1.2-0.8,2.6-0.5,3.9
	c0.4,1.3,1.2,2.4,2.4,3.1l5.5,3c0.8,0.4,1.6,0.6,2.5,0.6c1.8,0,3.5-0.9,4.5-2.6l0.6-1c1.6,0.7,2.9,1.7,3.8,2.9
	c-0.9,1-1.4,2.3-1.6,3.7c-0.2,1.8,0.3,3.6,1.5,5.1c1.1,1.4,2.8,2.3,4.6,2.5c-0.2,1.8,0.3,3.6,1.5,5c1.2,1.5,2.8,2.3,4.6,2.5
	c-0.2,1.8,0.3,3.6,1.5,5c1.1,1.4,2.8,2.3,4.6,2.5c-0.2,1.8,0.3,3.6,1.5,5c1.4,1.7,3.4,2.6,5.4,2.6c1.5,0,3-0.5,4.3-1.5l4.3-3.4
	c0.3-0.3,0.6-0.6,0.9-0.9l2.4,2c1.3,1,2.8,1.5,4.3,1.5c2,0,4-0.9,5.4-2.6c0.7-0.9,1.2-1.9,1.4-3c0.7,0.2,1.5,0.4,2.2,0.4
	c0.3,0,0.5,0,0.8,0c1.8-0.2,3.5-1.1,4.6-2.5c1.1-1.4,1.7-3.2,1.5-5c1.7-0.2,3.4-1.1,4.6-2.5c1.2-1.5,1.6-3.3,1.5-5
	c1.8-0.2,3.4-1.1,4.6-2.5c1.1-1.4,1.7-3.2,1.5-5.1c-0.2-1.4-0.7-2.7-1.6-3.7c0.9-1.2,2.2-2.2,3.8-2.9l0.6,1c0.9,1.6,2.7,2.6,4.5,2.6
	c0.8,0,1.7-0.2,2.5-0.6l5.5-3c1.2-0.7,2-1.7,2.4-3C106.9,59.1,106.8,57.7,106.1,56.5z M13.5,62.6c-0.3,0.5-0.9,0.6-1.4,0.4l-5.5-3
	c-0.3-0.2-0.4-0.4-0.5-0.6c0-0.2-0.1-0.5,0.1-0.8L22,30.6c0.2-0.3,0.5-0.5,0.9-0.5c0.2,0,0.3,0,0.5,0.1l5.5,3c0,0,0,0,0,0
	c0.3,0.2,0.4,0.4,0.5,0.6c0,0.2,0.1,0.5-0.1,0.8L13.5,62.6z M28.4,73.1c-0.6,0.5-1.3,0.7-2,0.6c-0.7-0.1-1.4-0.4-1.9-1
	c-0.5-0.6-0.7-1.3-0.6-2c0.1-0.7,0.4-1.4,1-1.9l7.7-6.1c1.2-1,3-0.8,3.9,0.4c0.5,0.6,0.7,1.3,0.6,2c-0.1,0.7-0.4,1.4-1,1.9
	c0,0,0,0,0,0L28.4,73.1C28.4,73.1,28.4,73.1,28.4,73.1z M30.5,80.2c-0.5-0.6-0.7-1.3-0.6-2c0.1-0.7,0.4-1.4,1-1.9l0,0c0,0,0,0,0,0
	c0,0,0,0,0,0l11-8.8c1.2-1,3-0.8,3.9,0.4c0.5,0.6,0.7,1.3,0.6,2c-0.1,0.7-0.4,1.4-1,1.9l-11,8.8C33.2,81.6,31.5,81.4,30.5,80.2z
	 M38.4,88.7c-0.7-0.1-1.4-0.4-1.9-1c-0.5-0.6-0.7-1.3-0.6-2c0.1-0.7,0.4-1.4,1-1.9c0,0,0,0,0,0l7.6-6.1c0,0,0,0,0,0
	c1.2-1,3-0.8,3.9,0.4c0.5,0.6,0.7,1.3,0.6,2c-0.1,0.7-0.4,1.4-1,1.9l-7.7,6.1C39.9,88.6,39.2,88.8,38.4,88.7z M51.8,90.4
	c-0.1,0.7-0.4,1.4-1,1.9l-4.3,3.4c-1.2,1-3,0.8-3.9-0.4c-0.5-0.6-0.7-1.3-0.6-2c0.1-0.7,0.4-1.4,1-1.9c0,0,0,0,0,0l4.3-3.4
	c0,0,0,0,0,0c1.2-1,3-0.8,3.9,0.4C51.7,88.9,51.9,89.7,51.8,90.4z M84.3,72.6c-0.5,0.6-1.1,0.9-1.9,1c-0.7,0.1-1.5-0.1-2-0.6
	c0,0,0,0,0,0c0,0,0,0,0,0l-5.5-4.4C74,68,72.7,68.1,72,69c-0.7,0.9-0.6,2.2,0.3,2.9l5.5,4.4c1.2,1,1.4,2.7,0.4,3.9
	c-1,1.2-2.7,1.4-3.9,0.4l-5.9-4.7c-0.9-0.7-2.2-0.6-2.9,0.3c-0.7,0.9-0.6,2.2,0.3,2.9l5.9,4.7c0.6,0.5,0.9,1.1,1,1.9
	c0.1,0.7-0.1,1.5-0.6,2c-0.5,0.6-1.1,0.9-1.9,1c-0.7,0.1-1.5-0.1-2.1-0.6l-3-2.4c0,0,0,0,0,0l-2.5-2l-0.5-0.4
	c-0.9-0.7-2.2-0.6-2.9,0.3c-0.1,0.1-0.2,0.2-0.2,0.3c-0.3,0.6-0.3,1.3,0,1.8c0.1,0.3,0.3,0.5,0.6,0.7l3,2.4c1.2,1,1.4,2.7,0.4,3.9
	c-1,1.2-2.7,1.4-3.9,0.4l-3.4-2.7c0.1-1.7-0.4-3.5-1.5-4.8c-0.7-0.9-1.5-1.5-2.5-1.9c0.7-0.9,1.1-2.1,1.2-3.2
	c0.2-1.8-0.3-3.6-1.5-5.1c-0.7-0.9-1.5-1.5-2.5-1.9c0.7-0.9,1.1-2.1,1.2-3.3c0.2-1.8-0.3-3.6-1.5-5.1c-2-2.5-5.3-3.2-8.1-2
	c-0.2-1-0.7-2-1.3-2.8c-2.4-3-6.7-3.4-9.7-1.1l-5.5,4.4c-1.2-1.6-2.9-2.9-4.9-3.8L30.9,40l6,1.7c0,0.3,0.1,0.7,0.2,1
	c1.5,6,6.9,8.8,14.3,7.3c6.2-1.3,8.8,0.6,13.9,4.3c0.5,0.4,1.1,0.8,1.7,1.2c3.7,2.6,7.6,5.7,10.2,7.8l6.6,5.3c0.6,0.5,0.9,1.1,1,1.9
	C85,71.3,84.7,72.1,84.3,72.6z M84.2,63.8l-4.5-3.6c-2.7-2.1-6.7-5.3-10.4-8c-0.6-0.4-1.1-0.8-1.6-1.2c-5.3-3.9-9.1-6.6-17.1-5
	c-2.4,0.5-8.3,1.1-9.6-4.2c-0.2-0.7,0-1,0.1-1.1c0.3-0.4,1.4-1.3,5.7-1.7l9.1-0.8c1.5-0.1,2.2-0.2,4.5,0.6l5.4,1.9
	c0.6,0.2,1.1,0.4,1.5,0.5c2.6,1,3.3,1,6.6,0l3.9-1.1L89.1,60C87.1,60.9,85.5,62.2,84.2,63.8z"/>
<path class="st1" d="M96.2,45.3c1.1,0,2-0.9,2-2c0-1.1-0.9-2-2-2c-1.1,0-2,0.9-2,2v0C94.2,44.4,95.1,45.3,96.2,45.3z"/>
</svg>
