<svg width="257" height="68" viewBox="0 0 257 68" fill="none" xmlns="http://www.w3.org/2000/svg">
<path d="M8.42405 0.96637C8.63822 1.03795 8.78103 1.10952 8.78103 1.32426V7.80215C8.78103 8.01688 8.63822 8.16004 8.42405 8.16004H0.928201C0.714035 8.16004 0.571289 8.01688 0.571289 7.80215V1.32426C0.571289 1.10952 0.714035 0.96637 0.928201 0.96637H8.42405ZM8.42405 11.739C8.63822 11.8106 8.78103 11.8821 8.78103 12.0969V43.9495C8.78103 44.1642 8.63822 44.3074 8.42405 44.3074H0.928201C0.714035 44.3074 0.571289 44.1642 0.571289 43.9495V12.0969C0.571289 11.8821 0.714035 11.739 0.928201 11.739H8.42405Z" fill="#2E2E2F"/>
<path d="M39.4782 9.55573C46.9026 9.55573 51.6857 12.3831 53.7917 18.1094C54.3985 19.4336 54.684 20.722 54.684 22.0463V43.9494C54.684 44.1641 54.5412 44.3073 54.3271 44.3073H46.8312C46.6171 44.3073 46.4743 44.1641 46.4743 43.9494V22.1894C46.4743 19.7557 44.761 18.3241 41.37 17.7873H27.5206C24.3438 17.7873 22.3449 18.8968 21.5239 21.1873L21.3811 22.4399V43.9852C21.3811 44.1999 21.2383 44.3431 21.0242 44.3431H13.5283C13.3141 44.3431 13.1714 44.1999 13.1714 43.9852V22.5831C13.1714 16.9999 16.2054 12.8484 22.2021 10.3073C23.6656 9.80625 25.7001 9.6273 28.3415 9.6273H39.4782V9.55573Z" fill="#2E2E2F"/>
<path d="M100.158 10.1643C100.372 10.2359 100.515 10.3075 100.515 10.5222V18.038C100.515 18.2527 100.372 18.3959 100.158 18.3959H69.0325V23.2275H96.3745C98.9802 23.2275 101.193 24.9454 103.049 28.4169C103.406 29.6696 103.513 30.958 103.513 32.3538V35.6106C103.513 41.6233 100.337 44.6654 94.0186 44.6654H63.2143C63.0002 44.6654 62.8574 44.5222 62.8574 44.3075V36.7917C62.9288 36.5769 63.0002 36.4338 63.2143 36.4338H95.375V31.459H70.496C64.0353 31.459 60.7871 28.4169 60.7871 22.4043V19.0759C60.7871 14.8528 62.5004 12.0969 65.8914 10.7369C66.641 10.379 67.3549 10.2001 67.8189 10.2001H100.158V10.1643Z" fill="#2E2E2F"/>
<path d="M117.612 9.55575C117.827 9.62733 117.969 9.69891 117.969 9.91364V11.4168H118.112C119.29 10.7368 121.61 10.3789 125.287 10.3789H135.888C142.349 10.3789 146.775 12.3115 149.059 16.2484C150.63 18.2526 151.415 21.08 151.415 24.5873V30.0273C151.415 36.8631 148.31 41.4084 142.063 43.6989C140.742 44.0568 139.457 44.2357 138.137 44.2357H123.109C121.539 44.2357 119.79 43.9494 118.005 43.4126V52.4673C118.005 52.6821 117.862 52.8252 117.648 52.8252H110.152C109.938 52.8252 109.795 52.6821 109.795 52.4673V9.87785C109.795 9.66312 109.938 9.51996 110.152 9.51996H117.612V9.55575ZM117.934 30.0632C117.934 32.8905 118.826 34.7515 120.611 35.5747C121.36 35.9326 122.074 36.0757 122.538 36.0757H138.529C141.635 35.5747 143.134 33.7137 143.134 30.6358V24.2652C143.134 20.4715 140.992 18.6105 136.673 18.6105H124.43C120.075 18.6105 117.969 20.4715 117.969 24.2652V30.0632H117.934Z" fill="#2E2E2F"/>
<path d="M169.192 43.4484C163.053 43.4484 158.805 40.2631 156.378 33.8568C156.021 32.461 155.842 30.9578 155.842 29.2399V23.9073C155.842 22.1894 156.056 20.6505 156.449 19.2189C157.556 15.5684 159.34 13.0631 161.768 11.8463C162.517 11.3094 163.41 10.8084 164.373 10.3789C165.944 9.84204 168.3 9.55573 171.405 9.55573H181.935C185.861 9.91362 189.038 10.6652 191.287 11.8463C193.571 13.0273 195.142 14.8168 196.106 17.1073C196.998 23.5136 194.785 27.8799 189.431 30.3136L189.288 30.5284V30.3852C188.931 30.5999 188.538 30.7431 188.11 30.8863C186.789 31.2441 185.504 31.4231 184.184 31.4231H169.156C167.3 31.4231 165.587 31.1368 164.052 30.5284C164.266 32.8905 165.444 34.3936 167.55 35.0736L168.585 35.2884H195.106V43.5199H169.192V43.4484ZM182.827 17.7515H170.513C167.55 17.7515 165.551 18.6463 164.659 20.4357C165.194 21.6168 166.158 22.4399 167.621 22.9052L168.657 23.1199H184.719C186.718 22.762 188.039 21.9389 188.717 20.5073C187.789 18.6463 185.861 17.7515 182.827 17.7515Z" fill="#2E2E2F"/>
<path d="M0 62.3094C0 61.9873 0.0714 61.701 0.178483 61.4504C0.285567 61.1999 0.464035 60.9494 0.678202 60.7347C0.892368 60.5199 1.17791 60.3768 1.49916 60.2694C1.82041 60.162 2.17736 60.0905 2.57 60.0905C2.92695 60.0905 3.24821 60.1262 3.53377 60.1978C3.81934 60.2694 4.10486 60.3768 4.35472 60.5199L3.96208 61.1999C3.89069 61.1641 3.78358 61.0926 3.71219 61.0568C3.6051 61.021 3.49804 60.9852 3.39096 60.9494C3.28388 60.9136 3.17683 60.9136 3.03405 60.8778C2.92697 60.8778 2.78417 60.842 2.67708 60.842C2.39153 60.842 2.14164 60.8778 1.92747 60.9494C1.71331 61.021 1.53488 61.1283 1.35641 61.2357C1.17793 61.3431 1.10652 61.522 0.999441 61.701C0.928052 61.8799 0.892361 62.0589 0.892361 62.2736C0.892361 62.4883 0.928052 62.7031 0.999441 62.882C1.07083 63.061 1.21363 63.2041 1.35641 63.3473C1.49918 63.4904 1.71331 63.5978 1.92747 63.6694C2.14164 63.741 2.39153 63.7768 2.67708 63.7768C2.81986 63.7768 2.92695 63.7768 3.06973 63.741C3.2125 63.7052 3.31961 63.7052 3.42669 63.6694C3.53378 63.6336 3.64083 63.5978 3.78361 63.562C3.89069 63.5262 3.99774 63.4547 4.10483 63.4189L4.49746 64.0989C4.2476 64.242 3.99778 64.3852 3.67653 64.4568C3.35527 64.5283 3.03403 64.5999 2.67708 64.5999C2.24875 64.5999 1.8561 64.5283 1.49916 64.421C1.17791 64.3136 0.892336 64.1347 0.642475 63.9557C0.428308 63.741 0.249837 63.5262 0.142754 63.2399C0.071365 62.9178 0 62.5957 0 62.3094Z" fill="#2E2E2F"/>
<path d="M7.96016 63.419L6.06836 60.1621H7.0678L8.38853 62.6316L9.70919 60.1621H10.7086L8.85253 63.419V64.4926H7.96016V63.419Z" fill="#2E2E2F"/>
<path d="M12.4932 60.1621H14.8133C15.0988 60.1621 15.3487 60.1979 15.5629 60.2695C15.7771 60.3411 15.9555 60.4126 16.0983 60.52C16.241 60.6274 16.3482 60.7347 16.4196 60.9137C16.491 61.0926 16.5266 61.2 16.5266 61.379C16.5266 61.6653 16.4552 61.88 16.2768 62.0947C16.4909 62.2021 16.6337 62.3811 16.7408 62.56C16.8479 62.739 16.8836 62.9537 16.8836 63.2042C16.8836 63.419 16.8479 63.5979 16.7765 63.7411C16.7051 63.92 16.598 64.0274 16.4552 64.1705C16.3125 64.2779 16.134 64.3853 15.9199 64.4211C15.7057 64.4926 15.4558 64.5284 15.1702 64.5284H12.5288V60.1621H12.4932ZM15.1346 61.8084C15.206 61.8084 15.2773 61.8084 15.3487 61.8084C15.4558 61.7011 15.5272 61.5579 15.5272 61.4147C15.5272 61.2716 15.4558 61.1284 15.3487 61.0568C15.2416 60.9853 15.0631 60.9137 14.8133 60.9137H13.3499V61.8084H15.1346ZM15.1702 63.7411C15.4201 63.7411 15.5985 63.7053 15.7056 63.5979C15.8127 63.4905 15.8841 63.3474 15.8841 63.1684C15.8841 62.9895 15.8127 62.8463 15.7056 62.739C15.5985 62.6316 15.4201 62.5958 15.1702 62.5958H13.3855V63.7769H15.1702V63.7411Z" fill="#2E2E2F"/>
<path d="M18.8467 60.1621H22.5233V60.9495H19.7034V61.8084H22.202V62.5242H19.7034V63.7411H22.559V64.5284H18.811V60.1621H18.8467Z" fill="#2E2E2F"/>
<path d="M24.7003 60.1621H26.9133C27.2346 60.1621 27.5202 60.1979 27.7701 60.2695C28.0199 60.3411 28.2341 60.4484 28.3769 60.5558C28.5553 60.699 28.6624 60.8421 28.7338 61.0211C28.8052 61.2 28.8409 61.4147 28.8409 61.6653C28.8409 61.8442 28.8052 61.9874 28.7695 62.1305C28.7338 62.2737 28.6624 62.4168 28.591 62.5242C28.5196 62.6316 28.4126 62.739 28.2698 62.8463C28.127 62.9537 28.0199 63.0253 27.8414 63.0968L28.7695 64.4926H27.6986L26.8777 63.24H26.842H25.5213V64.4926H24.6289V60.1621H24.7003ZM26.9491 62.4884C27.1276 62.4884 27.2703 62.4526 27.3774 62.4169C27.4845 62.3811 27.5915 62.3095 27.6986 62.2379C27.77 62.1663 27.8414 62.0947 27.8771 61.9874C27.9128 61.88 27.9485 61.7726 27.9485 61.6653C27.9485 61.4147 27.8771 61.2358 27.6986 61.0926C27.5202 60.9495 27.2703 60.8779 26.9491 60.8779H25.5927V62.4526H26.9491V62.4884Z" fill="#2E2E2F"/>
<path d="M31.2321 63.2042C31.3749 63.2758 31.5534 63.3831 31.6962 63.4547C31.8746 63.5263 32.0174 63.5979 32.1959 63.6337C32.3744 63.6694 32.5528 63.7052 32.7313 63.741C32.9098 63.7768 33.124 63.7768 33.3381 63.7768C33.588 63.7768 33.8378 63.7768 34.0163 63.741C34.1948 63.7052 34.3376 63.6694 34.4803 63.5979C34.5874 63.5263 34.6945 63.4547 34.7302 63.3831C34.7659 63.3115 34.8016 63.2042 34.8016 63.0968C34.8016 62.9537 34.7302 62.8105 34.5874 62.7389C34.4446 62.6316 34.2662 62.5958 33.9806 62.5958C33.8735 62.5958 33.7308 62.5958 33.588 62.6316C33.4452 62.6316 33.3381 62.6673 33.1953 62.6673C33.0526 62.7031 32.9098 62.7031 32.8027 62.7031C32.6599 62.7031 32.5528 62.7389 32.4458 62.7389C32.2673 62.7389 32.0531 62.7031 31.8746 62.6673C31.6961 62.6316 31.5534 62.56 31.4106 62.4526C31.2678 62.3452 31.1608 62.2379 31.0894 62.0947C31.018 61.9516 30.9822 61.7726 30.9822 61.5579C30.9822 61.4505 30.9823 61.3073 31.018 61.2C31.0537 61.0926 31.0894 60.9852 31.1608 60.8779C31.2321 60.7705 31.3392 60.6631 31.4463 60.5915C31.5534 60.4842 31.6962 60.4126 31.839 60.341C31.9817 60.2694 32.1959 60.2337 32.4101 60.1979C32.6242 60.1621 32.8741 60.1263 33.1239 60.1263C33.3024 60.1263 33.5166 60.1263 33.6951 60.1621C33.9092 60.1979 34.0877 60.1979 34.2662 60.2694C34.4447 60.3052 34.6231 60.341 34.8016 60.4126C34.9801 60.4842 35.1228 60.52 35.2656 60.5915L34.873 61.3073C34.7659 61.2358 34.6231 61.2 34.4803 61.1642C34.3376 61.1284 34.1947 61.0926 34.052 61.0568C33.9092 61.021 33.7308 60.9852 33.588 60.9852C33.4095 60.9494 33.2667 60.9494 33.0883 60.9494C32.8384 60.9494 32.66 60.9852 32.4815 60.9852C32.3387 61.021 32.1959 61.0568 32.1245 61.1284C32.0174 61.2 31.9817 61.2358 31.946 61.3073C31.9103 61.3789 31.8746 61.4505 31.8746 61.5221C31.8746 61.6652 31.946 61.7726 32.0531 61.8442C32.1602 61.9158 32.3387 61.9515 32.5885 61.9515C32.6956 61.9515 32.8027 61.9515 32.9098 61.9158C33.0526 61.9158 33.1596 61.88 33.3024 61.88C33.4452 61.88 33.588 61.8442 33.7308 61.8442C33.8735 61.8442 34.0163 61.8084 34.1591 61.8084C34.409 61.8084 34.6231 61.8442 34.8372 61.88C35.0514 61.9516 35.1942 62.0231 35.337 62.1305C35.4797 62.2379 35.5869 62.381 35.6226 62.5242C35.6939 62.6673 35.7296 62.8463 35.7296 63.0252C35.7296 63.2758 35.6583 63.4905 35.5512 63.7052C35.4441 63.8842 35.2657 64.0631 35.0515 64.2063C34.8373 64.3494 34.5875 64.4568 34.2662 64.5284C33.9807 64.6 33.6237 64.6358 33.2668 64.6358C33.0169 64.6358 32.767 64.6358 32.5528 64.6C32.303 64.5642 32.0888 64.5284 31.8746 64.4568C31.6604 64.3852 31.4463 64.3494 31.2678 64.2421C31.0893 64.1705 30.9109 64.0631 30.7324 63.9915L31.2321 63.2042Z" fill="#2E2E2F"/>
<path d="M37.8721 60.1621H41.5486V60.9495H38.7288V61.8084H41.2274V62.5242H38.7288V63.7411H41.5843V64.5284H37.8364V60.1621H37.8721Z" fill="#2E2E2F"/>
<path d="M43.4761 62.3094C43.4761 61.9873 43.5475 61.701 43.6545 61.4504C43.7616 61.1999 43.9401 60.9494 44.1543 60.7347C44.3684 60.5199 44.654 60.3768 44.9752 60.2694C45.2965 60.162 45.6534 60.0905 46.0461 60.0905C46.403 60.0905 46.7243 60.1262 47.0098 60.1978C47.2954 60.2694 47.5809 60.3768 47.8308 60.5199L47.4382 61.1999C47.3668 61.1641 47.2597 61.0926 47.1883 61.0568C47.0812 61.021 46.9741 60.9852 46.867 60.9494C46.76 60.9136 46.6529 60.9136 46.5101 60.8778C46.403 60.8778 46.2602 60.842 46.1532 60.842C45.8676 60.842 45.6177 60.8778 45.4036 60.9494C45.1894 61.021 45.0109 61.1283 44.8325 61.2357C44.6897 61.3789 44.5826 61.522 44.4755 61.701C44.4041 61.8799 44.3684 62.0589 44.3684 62.2736C44.3684 62.4883 44.4041 62.7031 44.4755 62.882C44.5469 63.061 44.6897 63.2041 44.8325 63.3473C44.9752 63.4904 45.1894 63.5978 45.4036 63.6694C45.6177 63.741 45.8676 63.7768 46.1532 63.7768C46.2959 63.7768 46.403 63.7768 46.5458 63.741C46.6886 63.7052 46.7957 63.7052 46.9027 63.6694C47.0098 63.6336 47.1169 63.5978 47.2597 63.562C47.3668 63.5262 47.4739 63.4547 47.5809 63.4189L47.9736 64.0989C47.7237 64.242 47.4739 64.3852 47.1526 64.4568C46.8314 64.5283 46.5101 64.5999 46.1532 64.5999C45.7248 64.5999 45.3322 64.5283 44.9752 64.421C44.654 64.3136 44.3684 64.1347 44.1186 63.9557C43.9044 63.741 43.7259 63.5262 43.6189 63.2399C43.5118 62.9178 43.4761 62.5957 43.4761 62.3094Z" fill="#2E2E2F"/>
<path d="M49.9009 60.1621H50.7932V62.56C50.7932 62.7747 50.8289 62.9179 50.8646 63.0968C50.936 63.24 51.0074 63.3832 51.1145 63.4905C51.2216 63.5979 51.3644 63.6695 51.5071 63.7411C51.6499 63.8126 51.8641 63.8126 52.0425 63.8126C52.2567 63.8126 52.4352 63.7769 52.578 63.7411C52.7207 63.6695 52.8635 63.5979 52.9706 63.4905C53.0777 63.3832 53.1491 63.24 53.2205 63.0968C53.2562 62.9537 53.2919 62.7747 53.2919 62.56V60.1621H54.1842V62.6674C54.1842 62.9537 54.1485 63.2042 54.0414 63.4547C53.9344 63.7053 53.7916 63.8842 53.6131 64.0632C53.4346 64.2421 53.2205 64.3495 52.9349 64.4569C52.685 64.5642 52.3638 64.6 52.0425 64.6C51.6856 64.6 51.4 64.5642 51.1502 64.4569C50.9003 64.3495 50.6505 64.2421 50.472 64.0632C50.2935 63.8842 50.1507 63.7053 50.0437 63.4547C49.9366 63.2042 49.9009 62.9537 49.9009 62.6674V60.1621Z" fill="#2E2E2F"/>
<path d="M56.3966 60.1621H58.6096C58.9309 60.1621 59.2164 60.1979 59.4663 60.2695C59.7162 60.3411 59.9303 60.4484 60.0731 60.5558C60.2516 60.699 60.3587 60.8421 60.4301 61.0211C60.5014 61.2 60.5371 61.4147 60.5371 61.6653C60.5371 61.8442 60.5014 61.9874 60.4658 62.1305C60.4301 62.2737 60.3587 62.4168 60.2873 62.5242C60.2159 62.6316 60.1088 62.739 59.966 62.8463C59.8232 62.9537 59.7162 63.0253 59.5377 63.0968L60.4658 64.4926H59.3949L58.5739 63.24H58.5382H57.2176V64.4926H56.3252V60.1621H56.3966ZM58.6453 62.4884C58.8238 62.4884 58.9666 62.4526 59.0737 62.4169C59.1807 62.3811 59.2878 62.3095 59.3949 62.2379C59.4663 62.1663 59.5377 62.0947 59.5734 61.9874C59.6091 61.88 59.6448 61.7726 59.6448 61.6653C59.6448 61.4147 59.5734 61.2358 59.3949 61.0926C59.2164 60.9495 58.9666 60.8779 58.6453 60.8779H57.2889V62.4526H58.6453V62.4884Z" fill="#2E2E2F"/>
<path d="M62.6431 60.1621H63.5354V64.5284H62.6431V60.1621Z" fill="#2E2E2F"/>
<path d="M67.0696 60.9137H65.4634V60.1263H69.5325V60.9137H67.9263V64.4926H67.0339V60.9137H67.0696Z" fill="#2E2E2F"/>
<path d="M72.9597 63.419L71.0679 60.1621H72.0673L73.388 62.6316L74.7087 60.1621H75.7081L73.852 63.419V64.4926H72.9597V63.419Z" fill="#2E2E2F"/>
<path d="M80.5264 60.1621H82.8109C83.1321 60.1621 83.4177 60.1979 83.6675 60.2695C83.9174 60.3411 84.1315 60.4484 84.2743 60.5916C84.4528 60.7347 84.5599 60.8779 84.6313 61.0926C84.7027 61.2716 84.7383 61.5221 84.7383 61.7726C84.7383 61.9874 84.7027 62.2021 84.6313 62.4169C84.5599 62.6316 84.4171 62.7747 84.2743 62.9179C84.1315 63.0611 83.9174 63.1684 83.6675 63.24C83.4177 63.3116 83.1321 63.3474 82.8109 63.3474H81.3831V64.4926H80.4907V60.1621H80.5264ZM82.8465 62.56C83.025 62.56 83.1678 62.5242 83.2749 62.4884C83.4177 62.4526 83.489 62.3811 83.5961 62.3095C83.6675 62.2379 83.7389 62.1305 83.7746 62.059C83.8103 61.9516 83.846 61.8442 83.846 61.7011C83.846 61.4505 83.7746 61.2358 83.5961 61.0926C83.4177 60.9495 83.1678 60.8779 82.8465 60.8779H81.4188V62.5242H82.8465V62.56Z" fill="#2E2E2F"/>
<path d="M86.88 60.1621H89.093C89.4143 60.1621 89.6998 60.1979 89.9497 60.2695C90.1996 60.3411 90.4137 60.4484 90.5565 60.5558C90.735 60.699 90.8421 60.8421 90.9135 61.0211C90.9848 61.2 91.0205 61.4147 91.0205 61.6653C91.0205 61.8442 90.9848 61.9874 90.9491 62.1305C90.9135 62.2737 90.8421 62.4168 90.7707 62.5242C90.6993 62.6316 90.5922 62.739 90.4494 62.8463C90.3423 62.9537 90.1996 63.0253 90.0211 63.0968L90.9491 64.4926H89.8783L89.0573 63.24H89.0217H87.701V64.4926H86.8086V60.1621H86.88ZM89.093 62.4884C89.2715 62.4884 89.4143 62.4526 89.5214 62.4169C89.6285 62.3811 89.7355 62.3095 89.8426 62.2379C89.914 62.1663 89.9854 62.0947 90.0211 61.9874C90.0568 61.88 90.0925 61.7726 90.0925 61.6653C90.0925 61.4147 90.0211 61.2358 89.8426 61.0926C89.6641 60.9495 89.4143 60.8779 89.093 60.8779H87.7366V62.4526H89.093V62.4884Z" fill="#2E2E2F"/>
<path d="M92.9482 62.3095C92.9482 61.9874 93.0196 61.6653 93.1267 61.4148C93.2338 61.1285 93.4123 60.9137 93.6264 60.699C93.8406 60.5201 94.0905 60.3411 94.4117 60.2338C94.733 60.1264 95.0542 60.0548 95.4112 60.0548C95.7681 60.0548 96.125 60.1264 96.4106 60.2338C96.7319 60.3411 96.9817 60.4843 97.1959 60.699C97.41 60.878 97.5885 61.1285 97.6956 61.4148C97.8027 61.7011 97.8741 61.9874 97.8741 62.3095C97.8741 62.6316 97.8027 62.9537 97.6956 63.2043C97.5885 63.4548 97.41 63.7053 97.1959 63.9201C96.9817 64.1348 96.7319 64.278 96.4106 64.3853C96.0894 64.4927 95.7681 64.5643 95.4112 64.5643C95.0542 64.5643 94.6973 64.4927 94.4117 64.3853C94.0905 64.278 93.8406 64.1348 93.6264 63.9201C93.4123 63.7053 93.2338 63.4906 93.1267 63.2043C93.0196 62.918 92.9482 62.6316 92.9482 62.3095ZM93.8406 62.3095C93.8406 62.5243 93.8763 62.739 93.9477 62.918C94.0191 63.0969 94.1262 63.2401 94.2689 63.3832C94.4117 63.5264 94.5902 63.598 94.7687 63.6695C94.9471 63.7411 95.1613 63.7769 95.4112 63.7769C95.6253 63.7769 95.8395 63.7411 96.0537 63.6695C96.2321 63.598 96.4106 63.4906 96.5534 63.3832C96.6962 63.2401 96.8032 63.0969 96.8746 62.918C96.946 62.739 96.9817 62.5243 96.9817 62.3095C96.9817 62.0948 96.946 61.8801 96.8746 61.7011C96.8032 61.5222 96.6962 61.379 96.5534 61.2359C96.4106 61.1285 96.2321 61.0211 96.0537 60.9495C95.8752 60.878 95.661 60.8422 95.4112 60.8422C95.197 60.8422 94.9828 60.878 94.7687 60.9495C94.5902 61.0211 94.4117 61.0927 94.2689 61.2359C94.1262 61.3432 94.0191 61.5222 93.9477 61.7011C93.8763 61.8801 93.8406 62.0948 93.8406 62.3095Z" fill="#2E2E2F"/>
<path d="M100.016 60.1621H103.907V60.9495H100.908V62.0947H103.443V62.8105H100.908V64.5284H100.016V60.1621Z" fill="#2E2E2F"/>
<path d="M105.906 60.1621H109.582V60.9495H106.762V61.8084H109.261V62.5242H106.762V63.7411H109.618V64.5284H105.87V60.1621H105.906Z" fill="#2E2E2F"/>
<path d="M111.973 63.2042C112.116 63.2758 112.295 63.3831 112.437 63.4547C112.616 63.5263 112.759 63.5979 112.937 63.6337C113.116 63.6694 113.294 63.7052 113.473 63.741C113.651 63.7768 113.865 63.7768 114.079 63.7768C114.329 63.7768 114.579 63.7768 114.758 63.741C114.936 63.7052 115.079 63.6694 115.222 63.5979C115.329 63.5263 115.436 63.4547 115.471 63.3831C115.507 63.3115 115.543 63.2042 115.543 63.0968C115.543 62.9537 115.471 62.8105 115.329 62.7389C115.186 62.6316 115.007 62.5958 114.722 62.5958C114.615 62.5958 114.472 62.5958 114.329 62.6316C114.186 62.6316 114.079 62.6673 113.937 62.6673C113.794 62.7031 113.651 62.7031 113.544 62.7031C113.401 62.7031 113.294 62.7389 113.187 62.7389C113.008 62.7389 112.794 62.7031 112.616 62.6673C112.437 62.6316 112.295 62.56 112.152 62.4526C112.009 62.3452 111.902 62.2379 111.831 62.0947C111.759 61.9516 111.723 61.7726 111.723 61.5579C111.723 61.4505 111.723 61.3073 111.759 61.2C111.795 61.0926 111.831 60.9852 111.902 60.8779C111.973 60.7705 112.08 60.6631 112.188 60.5915C112.295 60.4842 112.437 60.4126 112.58 60.341C112.723 60.2694 112.937 60.2337 113.151 60.1979C113.365 60.1621 113.615 60.1263 113.865 60.1263C114.044 60.1263 114.258 60.1263 114.436 60.1621C114.65 60.1979 114.829 60.1979 115.007 60.2694C115.186 60.3052 115.364 60.341 115.543 60.4126C115.721 60.4842 115.864 60.52 116.007 60.5915L115.614 61.3073C115.507 61.2358 115.364 61.2 115.222 61.1642C115.079 61.1284 114.936 61.0926 114.793 61.0568C114.65 61.021 114.472 60.9852 114.329 60.9852C114.151 60.9494 114.008 60.9494 113.829 60.9494C113.58 60.9494 113.401 60.9852 113.223 60.9852C113.08 61.021 112.937 61.0568 112.866 61.1284C112.759 61.2 112.723 61.2358 112.687 61.3073C112.652 61.3789 112.616 61.4505 112.616 61.5221C112.616 61.6652 112.687 61.7726 112.794 61.8442C112.901 61.9158 113.08 61.9515 113.33 61.9515C113.437 61.9515 113.544 61.9515 113.651 61.9158C113.794 61.9158 113.901 61.88 114.044 61.88C114.186 61.88 114.329 61.8442 114.472 61.8442C114.615 61.8442 114.758 61.8084 114.9 61.8084C115.15 61.8084 115.364 61.8442 115.578 61.88C115.793 61.9516 115.935 62.0231 116.078 62.1305C116.221 62.2379 116.328 62.381 116.364 62.5242C116.435 62.6673 116.471 62.8463 116.471 63.0252C116.471 63.2758 116.399 63.4905 116.292 63.7052C116.185 63.8842 116.007 64.0631 115.793 64.2063C115.578 64.3494 115.329 64.4568 115.007 64.5284C114.722 64.6 114.365 64.6358 114.008 64.6358C113.758 64.6358 113.508 64.6358 113.294 64.6C113.044 64.5642 112.83 64.5284 112.616 64.4568C112.402 64.3852 112.188 64.3494 112.009 64.2421C111.831 64.1705 111.652 64.0631 111.474 63.9915L111.973 63.2042Z" fill="#2E2E2F"/>
<path d="M118.791 63.2042C118.934 63.2758 119.112 63.3831 119.255 63.4547C119.434 63.5263 119.577 63.5979 119.755 63.6337C119.933 63.6694 120.112 63.7052 120.29 63.741C120.469 63.7768 120.683 63.7768 120.897 63.7768C121.147 63.7768 121.397 63.7768 121.575 63.741C121.754 63.7052 121.897 63.6694 122.039 63.5979C122.146 63.5263 122.254 63.4547 122.289 63.3831C122.325 63.3115 122.361 63.2042 122.361 63.0968C122.361 62.9537 122.289 62.8105 122.147 62.7389C122.004 62.6316 121.825 62.5958 121.54 62.5958C121.433 62.5958 121.29 62.5958 121.147 62.6316C121.004 62.6316 120.897 62.6673 120.754 62.6673C120.612 62.7031 120.469 62.7031 120.362 62.7031C120.219 62.7031 120.112 62.7389 120.005 62.7389C119.826 62.7389 119.612 62.7031 119.434 62.6673C119.255 62.6316 119.112 62.56 118.97 62.4526C118.827 62.3452 118.72 62.2379 118.648 62.0947C118.577 61.9516 118.541 61.7726 118.541 61.5579C118.541 61.4505 118.541 61.3073 118.577 61.2C118.613 61.0926 118.648 60.9852 118.72 60.8779C118.791 60.7705 118.898 60.6631 119.005 60.5915C119.112 60.4842 119.255 60.4126 119.398 60.341C119.541 60.2694 119.755 60.2337 119.969 60.1979C120.183 60.1621 120.433 60.1263 120.683 60.1263C120.862 60.1263 121.076 60.1263 121.254 60.1621C121.468 60.1979 121.647 60.1979 121.825 60.2694C122.004 60.3052 122.182 60.341 122.361 60.4126C122.539 60.4842 122.682 60.52 122.825 60.5915L122.432 61.3073C122.325 61.2358 122.182 61.2 122.039 61.1642C121.897 61.1284 121.754 61.0926 121.611 61.0568C121.468 61.021 121.29 60.9852 121.147 60.9852C120.969 60.9494 120.826 60.9494 120.647 60.9494C120.397 60.9494 120.219 60.9852 120.041 60.9852C119.898 61.021 119.755 61.0568 119.684 61.1284C119.577 61.2 119.541 61.2358 119.505 61.3073C119.469 61.3789 119.434 61.4505 119.434 61.5221C119.434 61.6652 119.505 61.7726 119.612 61.8442C119.719 61.9158 119.898 61.9515 120.148 61.9515C120.255 61.9515 120.362 61.9515 120.469 61.9158C120.612 61.9158 120.719 61.88 120.862 61.88C121.004 61.88 121.147 61.8442 121.29 61.8442C121.433 61.8442 121.575 61.8084 121.718 61.8084C121.968 61.8084 122.182 61.8442 122.396 61.88C122.611 61.9516 122.753 62.0231 122.896 62.1305C123.039 62.2379 123.146 62.381 123.182 62.5242C123.253 62.6673 123.289 62.8463 123.289 63.0252C123.289 63.2758 123.217 63.4905 123.11 63.7052C123.003 63.8842 122.825 64.0631 122.611 64.2063C122.396 64.3494 122.147 64.4568 121.825 64.5284C121.54 64.6 121.183 64.6358 120.826 64.6358C120.576 64.6358 120.326 64.6358 120.112 64.6C119.862 64.5642 119.648 64.5284 119.434 64.4568C119.22 64.3852 119.005 64.3494 118.827 64.2421C118.648 64.1705 118.47 64.0631 118.292 63.9915L118.791 63.2042Z" fill="#2E2E2F"/>
<path d="M125.288 60.1621H126.18V64.5284H125.288V60.1621Z" fill="#2E2E2F"/>
<path d="M128.179 62.3095C128.179 61.9874 128.251 61.6653 128.358 61.4148C128.465 61.1285 128.643 60.9137 128.857 60.699C129.072 60.5201 129.321 60.3411 129.643 60.2338C129.964 60.1264 130.285 60.0548 130.642 60.0548C130.999 60.0548 131.356 60.1264 131.642 60.2338C131.963 60.3411 132.213 60.4843 132.427 60.699C132.641 60.9137 132.819 61.1285 132.927 61.4148C133.034 61.7011 133.105 61.9874 133.105 62.3095C133.105 62.6316 133.034 62.9537 132.927 63.2043C132.819 63.4548 132.641 63.7053 132.427 63.9201C132.213 64.1348 131.963 64.278 131.642 64.3853C131.32 64.4927 130.999 64.5643 130.642 64.5643C130.285 64.5643 129.928 64.4927 129.643 64.3853C129.321 64.278 129.072 64.1348 128.857 63.9201C128.643 63.7053 128.465 63.4906 128.358 63.2043C128.251 62.918 128.179 62.6316 128.179 62.3095ZM129.036 62.3095C129.036 62.5243 129.072 62.739 129.143 62.918C129.214 63.0969 129.321 63.2401 129.464 63.3832C129.607 63.5264 129.785 63.598 129.964 63.6695C130.142 63.7411 130.357 63.7769 130.606 63.7769C130.856 63.7769 131.035 63.7411 131.249 63.6695C131.427 63.598 131.606 63.4906 131.749 63.3832C131.891 63.2401 131.998 63.0969 132.07 62.918C132.141 62.739 132.177 62.5243 132.177 62.3095C132.177 62.0948 132.141 61.8801 132.07 61.7011C131.998 61.5222 131.891 61.379 131.749 61.2359C131.606 61.1285 131.427 61.0211 131.249 60.9495C131.07 60.878 130.856 60.8422 130.606 60.8422C130.357 60.8422 130.178 60.878 129.964 60.9495C129.785 61.0211 129.607 61.0927 129.464 61.2359C129.321 61.3432 129.214 61.5222 129.143 61.7011C129.072 61.8801 129.036 62.0948 129.036 62.3095Z" fill="#2E2E2F"/>
<path d="M135.247 60.1621H136.139L138.852 61.5937V60.1621H139.744V64.5284H138.852V62.5242L136.139 61.1284V64.5284H135.247V60.1621Z" fill="#2E2E2F"/>
<path d="M143.527 60.1621H144.455L146.561 64.5284H145.633L145.276 63.8126H142.778L142.456 64.5284H141.528L143.527 60.1621ZM144.955 63.0253L144.027 61.0568L143.099 63.0253H144.955Z" fill="#2E2E2F"/>
<path d="M148.381 60.1621H149.274V63.7411H151.808V64.5284H148.417V60.1621H148.381Z" fill="#2E2E2F"/>
<path d="M156.985 63.2042C157.127 63.2758 157.306 63.3831 157.449 63.4547C157.627 63.5263 157.77 63.5979 157.948 63.6337C158.127 63.6694 158.305 63.7052 158.484 63.741C158.662 63.7768 158.876 63.7768 159.091 63.7768C159.34 63.7768 159.59 63.7768 159.769 63.741C159.947 63.7052 160.09 63.6694 160.233 63.5979C160.34 63.5263 160.447 63.4547 160.483 63.3831C160.518 63.3115 160.554 63.2042 160.554 63.0968C160.554 62.9537 160.483 62.8105 160.376 62.7389C160.233 62.6316 160.054 62.5958 159.769 62.5958C159.662 62.5958 159.519 62.5958 159.376 62.6316C159.233 62.6316 159.091 62.6673 158.983 62.6673C158.841 62.7031 158.698 62.7031 158.591 62.7031C158.448 62.7031 158.341 62.7389 158.234 62.7389C158.055 62.7389 157.841 62.7031 157.663 62.6673C157.484 62.6316 157.341 62.56 157.199 62.4526C157.056 62.3452 156.949 62.2379 156.877 62.0947C156.806 61.9516 156.77 61.7726 156.77 61.5579C156.77 61.4505 156.77 61.3073 156.806 61.2C156.842 61.0926 156.877 60.9852 156.949 60.8779C157.02 60.7705 157.127 60.6631 157.234 60.5915C157.341 60.4842 157.484 60.4126 157.627 60.341C157.77 60.2694 157.984 60.2337 158.198 60.1979C158.412 60.1621 158.662 60.1263 158.912 60.1263C159.091 60.1263 159.305 60.1263 159.483 60.1621C159.697 60.1979 159.876 60.1979 160.054 60.2694C160.233 60.3052 160.411 60.341 160.59 60.4126C160.768 60.4842 160.911 60.52 161.054 60.5915L160.661 61.3073C160.554 61.2358 160.411 61.2 160.268 61.1642C160.126 61.1284 159.983 61.0926 159.84 61.0568C159.697 61.021 159.519 60.9852 159.376 60.9852C159.198 60.9494 159.055 60.9494 158.876 60.9494C158.626 60.9494 158.448 60.9852 158.27 60.9852C158.127 61.021 157.984 61.0568 157.913 61.1284C157.806 61.2 157.77 61.2358 157.734 61.3073C157.698 61.3789 157.663 61.4505 157.663 61.5221C157.663 61.6652 157.734 61.7726 157.841 61.8442C157.948 61.9158 158.127 61.9515 158.377 61.9515C158.484 61.9515 158.591 61.9515 158.698 61.9158C158.805 61.9158 158.948 61.88 159.091 61.88C159.233 61.88 159.376 61.8442 159.519 61.8442C159.662 61.8442 159.804 61.8084 159.947 61.8084C160.197 61.8084 160.411 61.8442 160.625 61.88C160.84 61.9516 160.982 62.0231 161.125 62.1305C161.268 62.2379 161.375 62.381 161.411 62.5242C161.446 62.6673 161.518 62.8463 161.518 63.0252C161.518 63.2758 161.446 63.4905 161.339 63.7052C161.232 63.8842 161.054 64.0631 160.84 64.2063C160.625 64.3494 160.376 64.4568 160.054 64.5284C159.769 64.6 159.412 64.6358 159.055 64.6358C158.805 64.6358 158.555 64.6358 158.341 64.6C158.091 64.5642 157.877 64.5284 157.663 64.4568C157.449 64.3852 157.234 64.3494 157.056 64.2421C156.877 64.1705 156.699 64.0631 156.521 63.9915L156.985 63.2042Z" fill="#2E2E2F"/>
<path d="M163.624 60.1621H167.3V60.9495H164.48V61.8084H166.979V62.5242H164.48V63.7411H167.336V64.5284H163.588V60.1621H163.624Z" fill="#2E2E2F"/>
<path d="M169.477 60.1621H171.69C172.011 60.1621 172.297 60.1979 172.547 60.2695C172.797 60.3411 173.011 60.4484 173.154 60.5558C173.296 60.699 173.439 60.8421 173.511 61.0211C173.582 61.2 173.618 61.4147 173.618 61.6653C173.618 61.8442 173.582 61.9874 173.546 62.1305C173.511 62.2737 173.439 62.4168 173.368 62.5242C173.296 62.6316 173.189 62.739 173.047 62.8463C172.904 62.9537 172.797 63.0253 172.618 63.0968L173.546 64.4926H172.475L171.655 63.24H171.619H170.298V64.4926H169.406V60.1621H169.477ZM171.69 62.4884C171.869 62.4884 172.011 62.4526 172.119 62.4169C172.261 62.3811 172.333 62.3095 172.44 62.2379C172.511 62.1663 172.583 62.0947 172.618 61.9874C172.654 61.88 172.69 61.7726 172.69 61.6653C172.69 61.4147 172.618 61.2358 172.44 61.0926C172.261 60.9495 172.011 60.8779 171.69 60.8779H170.334V62.4526H171.69V62.4884Z" fill="#2E2E2F"/>
<path d="M175.224 60.1621H176.187L177.544 63.4905L178.9 60.1621H179.864L177.972 64.5284H177.115L175.224 60.1621Z" fill="#2E2E2F"/>
<path d="M181.578 60.1621H182.47V64.5284H181.578V60.1621Z" fill="#2E2E2F"/>
<path d="M184.469 62.3094C184.469 61.9873 184.541 61.701 184.648 61.4504C184.755 61.1999 184.933 60.9494 185.147 60.7347C185.362 60.5199 185.647 60.3768 185.968 60.2694C186.29 60.162 186.647 60.0905 187.039 60.0905C187.396 60.0905 187.717 60.1262 188.003 60.1978C188.289 60.2694 188.574 60.3768 188.824 60.5199L188.431 61.1999C188.36 61.1641 188.253 61.0926 188.181 61.0568C188.074 61.021 187.967 60.9852 187.86 60.9494C187.753 60.9136 187.646 60.9136 187.503 60.8778C187.396 60.8778 187.253 60.842 187.146 60.842C186.861 60.842 186.611 60.8778 186.397 60.9494C186.183 61.021 186.004 61.1283 185.826 61.2357C185.683 61.3789 185.576 61.522 185.469 61.701C185.397 61.8799 185.362 62.0589 185.362 62.2736C185.362 62.4883 185.397 62.7031 185.469 62.882C185.54 63.061 185.683 63.2041 185.826 63.3473C185.968 63.4904 186.183 63.5978 186.397 63.6694C186.611 63.741 186.861 63.7768 187.146 63.7768C187.289 63.7768 187.396 63.7768 187.539 63.741C187.682 63.7052 187.789 63.7052 187.896 63.6694C188.003 63.6336 188.11 63.5978 188.253 63.562C188.36 63.5262 188.467 63.4547 188.574 63.4189L188.967 64.0989C188.717 64.242 188.467 64.3852 188.146 64.4568C187.825 64.5283 187.503 64.5999 187.146 64.5999C186.718 64.5999 186.325 64.5283 185.968 64.421C185.647 64.3136 185.362 64.1347 185.112 63.9557C184.898 63.741 184.719 63.5262 184.612 63.2399C184.505 62.9178 184.469 62.5957 184.469 62.3094Z" fill="#2E2E2F"/>
<path d="M191.072 60.1621H194.749V60.9495H191.929V61.8084H194.428V62.5242H191.929V63.7411H194.785V64.5284H191.037V60.1621H191.072Z" fill="#2E2E2F"/>
<path d="M237.118 64.4926C227.552 53.6842 213.703 37.4716 213.703 37.4716C213.703 37.4716 236.904 10.5579 237.118 10.4505H253.823V10.6652L231.157 37.1137V37.6505L253.823 64.2063V64.421H237.118V64.4926Z" fill="#1E3B68"/>
<g style="mix-blend-mode:multiply">
<g style="mix-blend-mode:multiply">
<path d="M214.881 10.4863C224.447 21.2947 238.296 37.5073 238.296 37.5073C238.296 37.5073 215.095 64.421 214.881 64.5284H198.176V64.3137L220.842 37.8652V37.3284L198.176 10.7726V10.5579H214.881V10.4863Z" fill="#0064B1"/>
</g>
</g>
</svg>
