<svg width="293" height="329" viewBox="0 0 293 329" fill="none" xmlns="http://www.w3.org/2000/svg">
<path d="M263.107 13.6205C262.194 13.4492 261.318 13.6327 260.471 13.946C259.292 14.3816 259.032 15.2407 259.524 16.3812C259.774 16.9612 260.148 17.3749 260.554 17.8032C262.449 19.7954 263.034 22.0421 262.038 24.6902C261.413 26.352 260.547 27.889 259.835 29.5019C257.649 34.4506 257.772 39.3797 260.229 44.1865C260.978 45.6525 261.979 47.0059 263.765 47.466C264.385 47.6251 264.069 48.2516 264.12 48.6677C264.182 49.1694 263.743 49.025 263.486 49.0275C257.152 49.0348 250.816 49.0226 244.482 49.0446C243.853 49.047 243.799 48.795 243.809 48.2761C243.924 41.8883 244 35.4956 243.836 29.1103C243.709 24.1371 243.885 19.159 243.606 14.1883C243.542 13.0478 243.464 11.9097 243.388 10.7717C243.268 8.9973 242.686 8.26797 240.96 7.74911C240.099 7.48968 239.208 7.39179 238.315 7.29634C234.626 6.90475 230.943 6.86069 227.264 7.41137C226.785 7.53863 226.097 7.50926 226.178 8.23125C226.249 8.88961 226.858 9.0022 227.428 9.02912C229.386 9.12212 231.332 8.75256 233.29 8.88472C235.698 9.0487 238.109 9.19554 240.493 9.57734C241.565 9.74866 241.619 9.86859 241.582 10.921C241.225 21.3568 241.509 31.7951 241.403 42.2334C241.386 43.9735 241.663 45.7014 241.579 47.444C241.528 48.516 241.457 48.6506 240.41 48.631C235.165 48.5257 229.922 48.8904 224.678 48.8023C224.379 48.7974 224.08 48.8023 223.782 48.7852C223.329 48.7607 223.084 48.5331 223.052 48.0754C223.038 47.8576 223.033 47.6398 223.033 47.4244C223.03 46.4993 223.023 45.5766 223.033 44.6515C223.143 34.2401 222.764 23.8312 222.871 13.4223C222.879 12.7639 222.744 12.1276 222.7 11.4765C222.634 10.5245 223.101 9.94201 223.88 9.52594C224.337 9.2812 224.829 9.13436 225.326 8.99241C226.126 8.76235 226.29 8.19454 225.796 7.53618C225.412 7.31836 225.005 7.36976 224.607 7.45542C224.022 7.58269 223.471 7.81274 222.93 8.06972C221.398 8.79416 220.588 9.86858 220.581 11.687C220.561 15.7106 220.615 19.7293 220.725 23.7504C220.74 24.2937 220.784 24.8371 220.774 25.3804C220.632 32.9087 220.762 40.4345 220.982 47.9604C221.016 49.1082 221.001 49.1082 219.856 49.1082C218.931 49.1082 218.006 49.0715 217.086 49.1205C216.454 49.1547 216.31 48.9198 216.327 48.3251C216.52 40.5814 216.268 32.8353 216.236 25.0916C216.219 20.5271 216.077 15.9651 215.989 11.4007C215.972 10.5123 215.404 9.96159 214.736 9.52594C213.835 8.93856 212.81 8.67179 211.748 8.53229C211.699 8.50537 211.652 8.46621 211.601 8.46131C211.07 8.41236 210.397 8.21902 210.225 8.91898C210.061 9.58224 210.715 9.71684 211.197 9.89551C212.095 10.2259 212.901 10.7301 213.693 11.2587C214.088 11.5206 214.132 11.9073 214.163 12.3258C214.249 13.4443 213.987 14.5432 213.995 15.6592C214.017 19.1395 214.012 22.6197 213.997 26.0999C213.992 27.4289 214.039 28.7579 213.875 30.0893C213.767 30.9728 213.816 31.8734 213.955 32.7692C214.158 34.0688 213.84 35.3684 213.838 36.6704C213.833 40.2877 213.84 43.9025 213.833 47.5199C213.831 48.7264 213.752 48.7999 212.521 48.8048C210.482 48.8096 208.436 48.91 206.405 48.7827C202.736 48.5551 199.07 48.7044 195.401 48.6383C194.452 48.6212 194.276 48.4988 194.325 47.537C194.53 43.5183 194.339 39.4898 194.513 35.476C194.738 30.2288 194.665 24.9839 194.579 19.744C194.54 17.3284 194.555 14.9103 194.464 12.4947C194.442 11.9171 194.662 11.5304 195.127 11.1926C196.434 10.243 197.876 9.71929 199.481 9.54797C200.612 9.42805 201.728 9.17596 202.861 9.03156C204.435 8.83087 206.009 8.91164 207.582 8.88472C207.908 8.87982 208.241 8.9043 208.559 8.84066C209.212 8.7085 209.327 8.35118 208.933 7.74911C207.724 7.00754 206.359 7.12502 205.054 7.15438C202.117 7.22047 199.217 7.65366 196.373 8.39768C195.127 8.72319 193.955 9.21757 193.008 10.1305C192.489 10.6297 192.325 11.2098 192.318 11.9538C192.293 14.8589 192.234 17.7664 192.083 20.6666C191.698 28.0824 191.899 35.4981 191.919 42.9138C191.924 44.7347 191.946 46.5556 191.977 48.374C191.985 48.7974 191.904 49.0201 191.405 49.0128C188.742 48.981 186.074 49.0813 183.421 48.9124C182.3 48.8415 181.199 48.6652 180.056 48.7166C179.322 48.7485 178.952 49.0005 178.739 49.6442C178.592 50.0921 178.58 50.5547 178.57 51.0148C178.529 52.9434 178.517 54.8719 178.477 56.8005C178.46 57.5984 178.69 58.242 179.434 58.6312C180.438 59.0056 181.498 58.9102 182.489 58.7584C184.437 58.4599 186.383 58.499 188.333 58.4941C190.994 58.4868 193.654 58.4843 196.314 58.4966C197.401 58.5015 197.56 58.6312 197.504 59.7325C197.428 61.2475 197.252 62.7527 197.511 64.2725C198.125 67.8507 197.665 71.4606 197.788 75.0534C197.861 77.2488 197.724 79.4466 197.854 81.6419C198.01 83.6194 197.682 83.6757 200.22 84.1163C201.346 84.3121 202.487 84.2533 203.622 84.1334C205.061 83.9817 205.328 83.6439 205.409 82.1681C205.534 79.8406 205.541 77.5156 205.409 75.188C205.38 74.6765 205.409 74.1601 205.409 73.6437C205.539 72.234 205.438 70.8218 205.463 69.4121C205.519 66.0836 205.911 62.7649 205.744 59.4315C205.712 58.778 206.016 58.477 206.669 58.4966C207.022 58.5064 207.377 58.4941 207.729 58.4941C223.848 58.4941 239.969 58.6189 256.085 58.4525C267.853 58.3326 279.617 58.406 291.385 58.3253C291.972 58.3204 292.606 58.4305 293 57.8088C293 57.3732 293 56.9376 293 56.5044C292.655 56.0834 292.17 56.1544 291.715 56.1519C288.345 56.1397 284.97 56.2376 281.602 56.1299C271.737 55.8142 261.871 56.125 252.006 55.9733C229.851 55.6306 207.697 55.9268 185.543 55.8142C184.461 55.8093 183.392 56.0712 182.298 55.8436C181.708 55.7212 181.436 55.4764 181.434 54.8842C181.434 53.986 181.427 53.0902 181.436 52.192C181.444 51.6291 181.71 51.3403 182.281 51.3232C183.392 51.2889 184.496 51.142 185.614 51.142C218.564 51.1543 251.516 51.1543 284.466 51.1469C286.992 51.1469 289.512 50.9095 292.041 50.9781C292.403 50.9879 292.748 50.9389 292.998 50.6305C292.998 50.141 292.998 49.6516 292.998 49.1621C292.214 49.3309 291.431 49.1547 290.646 49.1547C286.627 49.1547 282.606 49.1303 278.587 49.0984C278.333 49.096 277.941 49.282 277.855 48.8366C277.777 48.4254 278.147 48.3765 278.413 48.2663C279.855 47.6667 281.017 46.6779 281.982 45.4934C285.122 41.6411 285.905 37.3067 284.439 32.5709C283.918 30.8847 283.318 29.2253 282.363 27.7201C282.275 27.5831 282.217 27.4289 282.129 27.2918C280.163 24.1714 281.294 21.0974 283.357 18.6279C284.414 17.3626 284.341 16.32 283.034 15.3606C280.995 13.8628 278.616 13.3048 276.198 12.9523C272.774 12.4555 269.333 12.4433 265.914 13.109C265.848 13.1579 265.775 13.1873 265.692 13.1873C265.315 13.18 264.945 13.2289 264.923 13.7062C264.901 14.1956 265.268 14.3351 265.67 14.4037C265.75 14.4184 265.831 14.4208 265.914 14.4184C267.654 14.3351 269.385 14.619 271.12 14.5799C273.675 14.5236 276.132 15.04 278.582 15.669C279.476 15.8991 280.371 16.1218 281.179 16.5843C281.783 16.9294 281.845 17.2182 281.399 17.7469C280.029 19.3671 279.223 21.232 278.91 23.3221C278.719 24.6046 279.059 25.7891 279.537 26.9614C280.19 28.5743 281.118 30.0599 281.739 31.685C282.454 33.5499 282.966 35.4663 282.858 37.478C282.667 41.0758 280.499 45.0039 276.644 46.2252C276.487 46.2741 276.338 46.3353 276.186 46.3965C274.984 46.8884 274.735 47.5003 275.251 48.6897C275.18 48.8537 275.024 48.8292 274.904 48.8145C272.331 48.5037 269.747 48.7411 267.17 48.6604C266.866 48.6506 266.465 48.7901 266.318 48.3789C266.161 47.9433 266.497 47.7744 266.81 47.5737C267.503 47.1307 267.527 46.6241 266.915 46.0612C266.379 45.5692 265.699 45.3294 265.033 45.1189C263.053 44.4924 261.964 43.0631 261.372 41.181C260.855 39.5388 260.625 37.8598 260.838 36.132C260.941 35.2974 260.799 34.4457 260.917 33.6087C261.081 32.4412 261.475 31.3472 262.028 30.3071C262.897 28.6722 263.694 27.003 264.159 25.2066C264.962 22.1155 264.316 19.3499 262.172 16.9588C262.045 16.8168 261.908 16.6847 261.773 16.5525C261.411 16.1952 261.431 15.9186 261.908 15.6763C262.439 15.4071 263.002 15.1746 263.418 14.7292C263.898 14.2005 263.797 13.8701 263.107 13.6205Z" fill="#3F3F3F"/>
<path d="M292.996 153.087C289.623 153.068 286.253 153.026 282.88 153.046C282.144 153.051 282.021 152.887 282.244 152.192C284.515 145.111 286.742 138.016 289.026 130.94C289.403 129.773 289.496 128.865 288.681 127.72C287.08 125.468 285.771 123.011 284.329 120.647C284.033 120.16 283.725 119.675 283.36 119.239C283.008 118.818 282.653 118.72 282.288 119.323C279.072 124.636 276.353 130.211 273.531 135.733C273.191 136.398 272.817 136.797 272.073 137.054C268.891 138.146 265.834 139.558 262.755 140.914C261.82 141.325 260.929 141.849 259.904 142.057C259.28 142.184 259.153 142.718 259.228 143.278C259.449 144.92 259.689 146.56 259.916 148.2C260.102 149.546 260.239 150.899 260.472 152.236C260.584 152.887 260.459 153.08 259.774 153.077C256.186 153.063 252.596 153.1 249.008 153.114C245.692 153.126 242.373 153.136 239.057 153.136C238.778 153.136 238.379 153.303 238.242 153.002C238.122 152.735 238.438 152.466 238.606 152.236C240.66 149.428 242.738 146.638 244.784 143.824C246.093 142.022 247.491 140.285 248.719 138.422C249.15 137.769 249.167 137.196 248.785 136.533C245.594 130.975 242.493 125.363 239.098 119.922C238.342 118.708 237.412 118.664 236.56 119.748C232.833 124.492 229.296 129.374 225.777 134.271C225.072 135.253 225.185 135.901 225.657 136.805C228.366 141.976 231.09 147.14 233.927 152.243C234.429 153.146 234.419 153.156 233.396 153.153C215.15 153.126 196.905 153.097 178.659 153.07C178.495 153.07 178.334 153.068 178.17 153.07C176.292 153.08 175.786 153.535 175.722 155.403C175.673 156.842 175.688 158.283 175.693 159.725C175.695 160.094 175.685 160.408 175.313 160.628C175.034 160.794 174.973 161.105 175.01 161.423C175.098 162.189 176.711 163.041 177.357 162.625C177.636 162.446 177.898 162.407 178.196 162.407C184.097 162.385 189.998 162.373 195.896 162.324C196.577 162.319 196.682 162.564 196.687 163.171C196.711 168.227 196.768 173.283 196.821 178.34C196.826 178.8 196.856 179.265 196.929 179.72C197.007 180.217 197.14 180.719 197.842 180.579C197.891 180.569 197.969 180.56 197.994 180.587C199.105 181.769 200.549 181.181 201.856 181.318C202.017 181.336 202.196 181.284 202.343 181.333C203.128 181.602 203.454 181.198 203.598 180.508C203.716 180.249 203.66 179.972 203.662 179.703C203.667 177.447 203.701 175.19 203.655 172.933C203.591 169.845 204.137 166.776 203.948 163.685C203.909 163.031 204.249 162.74 204.888 162.752C205.187 162.757 205.485 162.747 205.784 162.747C228.809 162.747 251.832 162.725 274.858 162.777C277.516 162.782 280.181 162.977 282.839 162.889C285.472 162.804 288.106 162.786 290.739 162.706C291.5 162.681 292.408 162.843 292.996 162.064C292.996 161.575 292.996 161.085 292.996 160.596C292.567 159.889 291.821 159.94 291.177 159.943C288.162 159.955 285.154 159.668 282.134 159.739C279.907 159.791 277.675 159.727 275.448 159.754C243.753 160.121 212.057 159.81 180.36 159.913C178.201 159.921 178.324 159.987 178.326 157.855C178.326 157.365 178.311 156.876 178.334 156.386C178.37 155.608 178.529 155.456 179.325 155.417C179.704 155.398 180.086 155.41 180.465 155.41C217.331 155.41 254.194 155.412 291.06 155.4C291.711 155.4 292.433 155.625 292.993 155.053C292.996 154.392 292.996 153.738 292.996 153.087Z" fill="#3F3F3F"/>
<path d="M292.996 101.038C291.476 101.018 289.958 101.001 288.438 100.974C285.83 100.93 283.218 100.862 280.609 100.849C279.855 100.847 279.958 100.617 280.257 100.135C281.64 97.8904 283.022 95.6462 284.239 93.3064C284.589 92.6334 284.858 91.9163 285.227 91.2555C285.852 90.1394 285.607 89.1654 284.939 88.1546C282.364 84.2534 279.76 80.3742 276.918 76.659C276.671 76.3359 276.674 76.0202 276.669 75.6727C276.642 73.4431 276.449 71.2232 276.206 69.0108C276.101 68.0489 275.673 67.8311 274.836 68.3059C274.368 68.5702 273.95 68.9349 273.546 69.2947C270.46 72.048 267.802 75.237 264.716 77.9928C263.357 79.2043 262.231 80.7217 260.748 81.7325C259.402 82.6503 259.674 83.4702 260.078 84.6645C261.754 89.6402 263.35 94.6452 264.97 99.6379C265.433 101.065 265.364 100.83 264.091 100.83C257.319 100.837 250.55 100.835 243.778 100.835C242.581 100.835 242.471 100.69 243.122 99.6355C244.292 97.7411 245.462 95.8468 246.543 93.9011C247.941 91.3852 249.216 88.8031 250.494 86.2235C251.228 84.7428 250.929 83.4751 249.874 82.2612C246.896 78.8372 243.942 75.3888 240.985 71.9452C239.977 70.7705 238.961 69.5957 238.007 68.3793C237.488 67.721 236.998 67.6182 236.267 68.0269C233.954 69.3142 231.881 70.9467 229.73 72.4665C226.756 74.5664 223.856 76.774 220.86 78.8445C219.698 79.6473 219.475 80.6042 219.781 81.85C220.821 86.0865 221.841 90.3303 222.889 94.5644C223.337 96.3804 223.807 98.189 224.311 99.9903C224.502 100.673 224.365 100.854 223.631 100.847C217.649 100.791 211.667 100.769 205.684 100.751C197.201 100.727 188.715 100.712 180.233 100.695C179.445 100.693 178.652 100.678 177.878 100.864C177.403 100.979 176.992 101.202 176.985 101.767C176.978 102.293 177.347 102.577 177.793 102.651C178.363 102.744 178.348 103.045 178.331 103.51C178.265 105.328 178.214 107.149 178.358 108.97C178.365 109.075 178.39 109.188 178.365 109.286C178.106 110.284 178.196 110.463 179.229 110.654C180.358 110.862 181.505 110.852 182.643 110.85C187.267 110.837 191.887 110.801 196.511 110.774C197.683 110.766 197.685 110.769 197.639 111.98C197.475 116.383 197.47 120.789 197.558 125.192C197.58 126.303 197.722 127.409 197.58 128.527C197.499 129.159 197.837 129.582 198.515 129.749C199.582 130.011 200.657 130.081 201.748 130.057C202.326 130.045 202.889 129.92 203.442 130.351C203.797 130.627 204.252 130.378 204.377 129.893C204.484 129.477 204.509 129.036 204.57 128.608C204.687 128.349 204.631 128.072 204.634 127.803C204.638 125.847 204.648 123.889 204.634 121.934C204.607 118.549 205.118 115.179 204.905 111.792C204.873 111.28 205.118 111.036 205.622 111.026C205.813 111.021 206.002 111.014 206.193 111.014C211.628 111.014 217.064 110.945 222.497 111.026C245.43 111.371 268.365 111.072 291.297 111.168C291.872 111.17 292.511 111.344 292.988 110.818C292.988 110.164 292.988 109.513 292.988 108.86C292.739 108.551 292.391 108.512 292.029 108.51C288.74 108.498 285.443 108.383 282.161 108.549C279.576 108.681 276.992 108.75 274.422 108.627C269.691 108.4 264.963 108.454 260.237 108.525C238.758 108.845 217.279 108.605 195.803 108.63C191.241 108.635 186.674 108.525 182.11 108.498C181.082 108.493 180.942 108.343 180.933 107.301C180.92 106.214 180.933 105.125 180.928 104.038C180.925 103.463 181.187 103.182 181.765 103.189C182.036 103.192 182.308 103.182 182.58 103.182C186.114 103.182 189.65 103.201 193.185 103.179C224.289 102.971 255.393 103.032 286.495 103.003C288.365 103.001 290.237 102.82 292.112 102.844C292.45 102.849 292.758 102.773 292.986 102.499C292.996 102.017 292.996 101.527 292.996 101.038Z" fill="#3F3F3F"/>
<path d="M292.996 57.7992C292.565 57.8408 292.134 57.9191 291.703 57.9216C284.904 57.9411 278.108 57.9093 271.309 57.9705C249.639 58.1639 227.967 58.0806 206.298 58.088C205.463 58.088 205.309 58.2838 205.321 59.1208C205.385 63.6608 205.353 68.2008 205.358 72.7432C205.358 73.0418 205.387 73.3379 205.402 73.6365C205.569 73.3306 205.51 72.9977 205.51 72.6771C205.515 70.773 205.515 68.8714 205.515 66.9673C205.515 66.5904 205.515 66.2918 206.078 66.326C208.028 66.446 209.981 66.5806 211.932 66.583C228.736 66.6002 245.542 66.6589 262.346 66.5512C268.436 66.512 274.527 66.6124 280.612 66.3897C284.745 66.2379 288.867 66.5781 292.996 66.4484C292.996 63.5653 292.996 60.6823 292.996 57.7992Z" fill="#8E8E8E"/>
<path d="M292.996 102.506C290.582 102.555 288.167 102.636 285.754 102.651C281.405 102.677 277.055 102.663 272.704 102.668C266.015 102.675 259.329 102.68 252.64 102.692C228.851 102.739 205.062 102.793 181.273 102.819C180.556 102.819 180.47 103.001 180.507 103.669C180.592 105.213 180.566 106.767 180.548 108.316C180.544 108.737 180.578 108.923 181.092 108.923C193.162 108.94 205.233 109.007 217.304 109.004C239.054 109.002 260.805 108.965 282.555 108.936C286.038 108.933 289.518 108.894 292.996 108.869C292.996 106.748 292.996 104.628 292.996 102.506Z" fill="#FEFEFE"/>
<path d="M292.996 162.059C292.181 162.304 291.331 162.331 290.494 162.351C286.963 162.431 283.431 162.544 279.902 162.51C254.901 162.275 229.898 162.4 204.898 162.348C204.653 162.348 204.408 162.36 204.164 162.348C203.708 162.321 203.559 162.517 203.559 162.975C203.581 168.817 203.586 174.659 203.596 180.501C203.811 180.212 203.738 179.874 203.74 179.554C203.745 176.428 203.765 173.303 203.733 170.178C203.726 169.456 203.887 169.167 204.68 169.221C211.675 169.69 218.684 169.651 225.689 169.781C227.887 169.823 230.087 169.857 232.287 169.889C237.231 169.96 242.177 169.935 247.119 170.104C250.65 170.224 254.182 170.129 257.711 170.241C262.165 170.383 266.625 170.288 271.076 170.432C274.745 170.552 278.414 170.427 282.078 170.586C285.717 170.745 289.356 170.696 292.996 170.709C292.996 167.826 292.996 164.942 292.996 162.059Z" fill="#8F8F8F"/>
<path d="M292.995 110.827C289.762 110.825 286.527 110.82 283.293 110.817C263.993 110.805 244.695 110.832 225.395 110.761C218.791 110.737 212.186 110.742 205.583 110.705C204.366 110.697 204.44 110.602 204.496 111.823C204.596 113.994 204.557 116.17 204.565 118.343C204.574 121.767 204.574 125.191 204.579 128.618C204.78 128.324 204.714 127.986 204.716 127.665C204.721 124.836 204.741 122.009 204.707 119.183C204.699 118.493 204.929 118.311 205.595 118.316C209.675 118.338 213.755 118.392 217.832 118.302C225.852 118.123 233.873 118.277 241.89 118.116C246.484 118.023 251.08 118.14 255.669 117.961C259.612 117.807 263.553 117.966 267.49 117.81C273.58 117.57 279.669 117.785 285.756 117.626C288.169 117.562 290.592 117.629 293 117.354C292.995 115.179 292.995 113.003 292.995 110.827Z" fill="#8E8E8E"/>
<path d="M292.996 50.6207C283.292 50.6868 273.587 50.7871 263.883 50.8067C253.007 50.8263 242.133 50.7529 231.257 50.7553C215.649 50.7578 200.042 50.7896 184.437 50.8189C183.461 50.8214 182.484 50.9242 181.505 50.9511C181.175 50.9609 181.004 51.027 181.011 51.399C181.033 52.8674 181.05 54.3359 181.043 55.8019C181.04 56.2449 181.319 56.1568 181.584 56.1862C183.187 56.3624 184.787 56.1568 186.39 56.1617C210.155 56.2008 233.92 56.2253 257.682 56.284C269.236 56.311 280.793 56.3966 292.347 56.4578C292.562 56.4578 292.78 56.4847 292.996 56.497C292.996 54.5366 292.996 52.5786 292.996 50.6207Z" fill="#FEFEFE"/>
<path d="M292.995 155.045C280.812 155.048 268.631 155.082 256.448 155.048C242.172 155.006 227.896 154.977 213.62 155.021C202.036 155.057 190.453 155.055 178.869 155.043C178.145 155.043 177.888 155.192 177.937 155.963C178.012 157.155 177.993 158.356 177.949 159.551C177.927 160.128 178.096 160.275 178.668 160.273C182.393 160.251 186.118 160.27 189.846 160.268C216.794 160.251 243.743 160.253 270.689 160.197C277.243 160.182 283.795 160.06 290.347 160.268C291.238 160.297 292.139 160.295 292.998 160.593C292.995 158.743 292.995 156.893 292.995 155.045Z" fill="#FEFEFE"/>
<path d="M208.931 7.74136C209.269 8.50251 208.796 8.57349 208.228 8.55881C206.356 8.51475 204.481 8.43888 202.614 8.68852C200.463 8.97487 198.314 9.2808 196.292 10.135C195.994 10.2622 195.693 10.3944 195.411 10.5535C194.528 11.0576 194.031 11.6132 194.063 12.8467C194.207 18.6594 194.381 24.4744 194.3 30.292C194.239 34.6655 194.166 39.0415 194.09 43.4151C194.063 44.9913 194.021 46.5674 193.948 48.1411C193.921 48.7383 194.036 49.0026 194.728 49.005C200.925 49.0197 207.122 49.0638 213.319 49.1225C213.958 49.1274 214.227 48.9952 214.22 48.2757C214.168 43.7651 214.247 39.2545 214.281 34.7414C214.33 28.3022 214.345 21.863 214.406 15.4214C214.416 14.3372 214.457 13.2505 214.555 12.1688C214.616 11.4933 214.362 11.0968 213.774 10.8227C212.79 10.3626 211.816 9.88042 210.842 9.40072C210.639 9.30038 210.294 9.28325 210.346 8.96263C210.392 8.66649 210.715 8.69831 210.948 8.65425C211.214 8.60531 211.481 8.5637 211.748 8.5172C210.894 7.94695 209.856 8.04484 208.931 7.74136Z" fill="#8E8E8E"/>
<path d="M225.794 7.5288C226.109 8.15044 225.86 8.49798 225.245 8.68643C224.411 8.94341 223.62 9.30074 222.893 9.78778C222.512 10.0448 222.296 10.358 222.333 10.872C222.744 16.5451 222.355 22.2305 222.556 27.9061C222.793 34.6732 222.659 41.4404 222.693 48.2075C222.698 48.932 222.92 49.1351 223.628 49.1278C229.47 49.0715 235.314 49.0372 241.159 49.0348C241.9 49.0348 241.915 48.6848 241.9 48.1366C241.648 38.244 241.768 28.3515 241.736 18.4566C241.726 15.7399 241.793 13.0233 242.069 10.3189C242.12 9.80735 241.841 9.64582 241.455 9.52101C240.258 9.13431 239.01 9.03152 237.771 8.88467C235.424 8.60567 233.065 8.46861 230.698 8.53224C229.776 8.55672 228.865 8.76964 227.935 8.68643C227.801 8.67419 227.664 8.68154 227.529 8.67175C227.076 8.63259 226.452 8.69867 226.352 8.1896C226.254 7.69033 226.927 7.65117 227.257 7.40643C226.765 7.37216 226.276 7.39419 225.794 7.5288Z" fill="#8E8E8E"/>
<path d="M263.108 13.6201C263.673 13.9163 263.634 14.2565 263.137 14.5599C262.582 14.9001 262.009 15.211 261.426 15.5022C260.844 15.791 260.722 16.026 261.28 16.5424C263.756 18.8356 264.711 21.655 263.884 24.9566C263.414 26.8338 262.552 28.5764 261.657 30.2847C260.935 31.6601 260.548 33.0919 260.516 34.6509C260.474 36.6847 260.284 38.7185 260.866 40.7181C261.512 42.9379 262.579 44.7563 264.985 45.4563C265.602 45.635 266.228 45.865 266.732 46.3056C266.931 46.4793 267.217 46.6384 267.129 46.9566C267.056 47.2136 266.774 47.3237 266.539 47.3286C265.46 47.3506 265.942 48.1803 265.893 48.6526C265.832 49.2523 266.392 49.0051 266.681 49.01C269.562 49.0589 272.442 49.0858 275.323 49.103C275.595 49.1054 276.006 49.2743 276.113 48.917C276.204 48.6257 275.773 48.6502 275.597 48.5009C274.968 47.9698 275.103 47.2356 275.959 46.8367C276.816 46.4377 277.717 46.1563 278.568 45.7133C281.444 44.2179 283.754 39.3769 283.14 35.6568C282.751 33.2901 281.982 31.0948 280.884 28.9778C280.186 27.6341 279.41 26.2954 279.266 24.7413C279.028 22.1739 280.042 20.0079 281.576 18.0696C282.406 17.0196 282.46 16.7969 281.26 16.2242C279.356 15.3162 277.298 14.9222 275.237 14.5599C272.332 14.0509 269.388 14.2295 266.463 14.0974C266.356 14.0925 266.241 14.117 266.138 14.0925C265.78 14.0044 265.215 14.3176 265.115 13.7425C265.022 13.2114 265.67 13.3509 265.915 13.0964C264.926 12.9911 264.057 13.5247 263.108 13.6201Z" fill="#8E8E8E"/>
<path d="M197.849 81.6295C197.839 75.4424 197.996 69.2553 197.758 63.0682C197.705 61.6903 197.807 60.3026 197.883 58.9223C197.915 58.3373 197.78 58.1073 197.139 58.1097C192.986 58.1317 188.83 58.0167 184.682 58.1562C182.939 58.215 181.172 58.3618 179.43 58.6212C180.166 59.3628 181.16 59.6075 182.09 59.9453C186.985 61.7246 191.909 63.4206 196.88 64.9723C197.509 65.1681 197.722 65.4349 197.719 66.0957C197.695 70.9294 197.712 75.763 197.722 80.5967C197.724 80.9442 197.638 81.3065 197.849 81.6295Z" fill="#8E8E8E"/>
<path d="M203.268 71.9913C203.268 69.3285 203.278 66.6682 203.265 64.0054C203.258 62.324 203.481 60.6499 203.429 58.9636C203.41 58.3444 203.265 58.0654 202.6 58.1119C201.897 58.1609 201.185 58.1633 200.483 58.1119C199.807 58.063 199.575 58.3591 199.685 58.9685C199.937 60.344 199.822 61.7317 199.824 63.112C199.839 68.374 199.824 73.636 199.829 78.898C199.829 79.7399 199.797 80.5769 199.677 81.4115C199.594 81.9989 199.768 82.3415 200.468 82.2803C201.114 82.224 201.772 82.2314 202.421 82.273C203.057 82.3121 203.273 82.0894 203.265 81.4384C203.236 78.2886 203.253 75.1363 203.253 71.9864C203.26 71.9913 203.265 71.9913 203.268 71.9913Z" fill="#636363"/>
<path d="M237.617 122.609C236.802 124.873 236.026 127.051 235.231 129.225C234.433 131.41 233.628 133.593 232.803 135.769C232.576 136.369 232.563 136.907 232.732 137.553C233.926 142.172 235.111 146.792 236.056 151.472C236.083 151.599 236.132 151.721 236.242 152.084C236.721 150.742 237.113 149.6 237.539 148.469C238.843 145.006 239.742 141.391 241.357 138.043C241.46 137.832 241.428 137.627 241.374 137.411C240.175 132.607 238.98 127.8 237.781 122.993C237.759 122.891 237.7 122.798 237.617 122.609Z" fill="#C8C8C8"/>
<path d="M280.67 152.037C282.983 144.528 285.232 137.232 287.469 129.966C287.268 129.78 287.143 129.893 287.045 129.949C282.806 132.36 278.563 134.763 274.387 137.286C274.118 137.448 273.876 137.575 274.079 137.969C276.421 142.492 278.47 147.154 280.67 152.037Z" fill="#8E8E8E"/>
<path d="M263.504 153.072C268.964 153.072 274.206 153.067 279.446 153.08C280.139 153.082 280.06 152.815 279.823 152.35C277.936 148.682 276.208 144.935 274.485 141.188C274.096 140.343 273.726 139.489 273.244 138.41C272.772 140.172 272.368 141.677 271.967 143.185C271.563 144.702 271.147 146.219 270.765 147.742C270.537 148.652 269.691 148.914 269.067 149.357C267.476 150.488 265.807 151.506 264.172 152.573C263.996 152.69 263.834 152.825 263.504 153.072Z" fill="#6D6D6D"/>
<path d="M282.643 120.458C279.877 125.798 277.138 131.151 274.16 136.594C275.403 136.08 276.385 135.434 277.388 134.844C280.655 132.92 283.901 130.957 287.161 129.019C287.437 128.855 287.574 128.75 287.371 128.405C285.824 125.791 284.297 123.165 282.763 120.544C282.736 120.5 282.677 120.48 282.643 120.458Z" fill="#8E8E8E"/>
<path d="M238.163 150.082C239.698 148.009 241.095 146.112 242.502 144.22C244.088 142.086 245.669 139.944 247.287 137.835C247.603 137.423 247.363 137.188 247.194 136.902C245.412 133.828 243.614 130.762 241.842 127.68C240.858 125.967 239.918 124.229 238.853 122.521C238.868 122.68 238.866 122.842 238.902 122.996C240.031 127.732 241.161 132.467 242.299 137.201C242.405 137.636 242.287 137.994 242.172 138.424C241.151 142.247 239.495 145.838 238.224 149.568C238.197 149.641 238.205 149.727 238.163 150.082Z" fill="#C8C8C8"/>
<path d="M236.364 122.414C234.208 125.321 232.149 128.121 230.067 130.899C229.041 132.267 227.972 133.603 226.919 134.949C226.699 135.231 226.491 135.466 226.723 135.882C229.195 140.309 231.804 144.658 234.171 149.159C234.205 148.322 233.921 147.551 233.735 146.768C232.959 143.474 232.152 140.187 231.356 136.897C231.276 136.565 231.354 136.261 231.471 135.948C233.094 131.562 234.712 127.174 236.325 122.786C236.352 122.72 236.342 122.636 236.364 122.414Z" fill="#C8C8C8"/>
<path d="M201.953 170.706C201.953 168.205 201.933 165.704 201.967 163.202C201.977 162.544 201.752 162.37 201.121 162.365C198.531 162.348 198.534 162.331 198.531 164.876C198.526 169.064 198.524 173.249 198.509 177.437C198.507 178.002 198.213 178.731 198.468 179.091C198.788 179.544 199.478 178.988 200.039 179.001C201.938 179.049 201.938 179.01 201.938 177.145C201.938 174.997 201.938 172.85 201.938 170.701C201.945 170.706 201.95 170.706 201.953 170.706Z" fill="#636363"/>
<path d="M272.273 138.432C268.678 140.003 265.05 141.337 261.423 142.688C261.482 143.096 261.832 143.128 262.067 143.253C264.532 144.565 267.06 145.759 269.439 147.233C269.791 147.45 269.977 147.472 270.097 147.005C270.812 144.259 271.546 141.515 272.27 138.772C272.29 138.696 272.273 138.613 272.273 138.432Z" fill="#8E8E8E"/>
<path d="M262.043 152.759C263.602 151.726 265.019 150.789 266.433 149.849C267.153 149.369 267.86 148.868 268.592 148.405C268.959 148.173 269.108 147.987 268.617 147.752C266.142 146.574 263.788 145.179 261.406 143.833C261.274 143.76 261.103 143.625 260.971 143.775C260.905 143.848 260.932 144.027 260.949 144.154C261.301 146.964 261.661 149.778 262.043 152.759Z" fill="#6D6D6D"/>
<path d="M240.811 100.744C239.526 98.4285 238.398 96.0863 237.206 93.7735C236.88 93.1421 236.278 92.655 235.806 92.0995C233.576 89.4807 231.349 86.8595 229.12 84.2432C229.054 84.1649 228.956 84.1135 228.797 83.9911C228.439 86.1228 228.067 88.1811 227.752 90.2492C227.36 92.819 226.892 95.3717 226.364 97.9145C226.219 98.6023 226.08 99.2925 225.962 99.9851C225.882 100.47 225.967 100.861 226.596 100.861C231.293 100.849 235.99 100.839 240.684 100.827C240.706 100.829 240.725 100.803 240.811 100.744Z" fill="#6D6D6D"/>
<path d="M237.811 70.5522C237.811 77.8285 237.811 84.9627 237.811 92.19C238.858 91.4435 239.872 90.7387 240.865 90.0118C243.472 88.1052 246.066 86.184 248.677 84.2848C248.956 84.0816 249.049 83.9837 248.797 83.6778C245.244 79.3899 241.705 75.0947 238.158 70.8019C238.109 70.7456 238.031 70.7113 237.811 70.5522Z" fill="#8E8E8E"/>
<path d="M268.383 100.876C270.168 100.876 270.202 100.876 270.141 99.1237C270.057 96.6909 269.744 94.2753 269.539 91.8499C269.36 89.7476 269.267 87.6379 269.186 85.5282C269.164 84.953 269.032 84.7548 268.42 84.6912C266.43 84.4831 264.453 84.1797 262.47 83.9227C261.389 83.7832 261.332 83.8713 261.651 84.8967C263.129 89.6594 264.578 94.4319 266.088 99.1848C266.753 101.275 266.308 100.817 268.383 100.876Z" fill="#6D6D6D"/>
<path d="M236.778 91.8621C236.67 84.7303 236.562 77.7306 236.452 70.5303C235.743 71.2474 235.449 71.9767 235.038 72.6204C233.134 75.5891 231.269 78.5799 229.35 81.5364C228.868 82.278 228.951 82.7307 229.555 83.4111C231.839 85.9809 234.02 88.6413 236.239 91.2649C236.389 91.4436 236.55 91.6125 236.778 91.8621Z" fill="#6D6D6D"/>
<path d="M277.665 91.2969C276.742 86.7129 276.517 82.2561 275.665 77.9021C275.22 75.626 275.246 73.3352 274.985 70.9221C274.346 72.6646 273.761 74.2824 273.159 75.8952C272.209 78.4308 271.26 80.9639 270.278 83.4872C270.021 84.148 270.178 84.5518 270.711 85.0119C272.62 86.6615 274.331 88.5289 276.289 90.1246C276.705 90.4648 277.109 90.8221 277.665 91.2969Z" fill="#8E8E8E"/>
<path d="M274.091 70.8387C273.188 71.6659 272.439 72.3952 271.643 73.0707C268.178 76.0101 265.104 79.3631 261.751 82.4248C261.614 82.5496 261.376 82.6524 261.44 82.8604C261.516 83.1052 261.785 83.0734 261.998 83.0856C264.189 83.2055 266.352 83.5775 268.52 83.8835C269.184 83.9765 269.475 83.695 269.666 83.1541C270.354 81.2133 271.036 79.2701 271.729 77.3317C272.451 75.3175 273.107 73.2763 273.968 71.3135C274.01 71.2229 274.02 71.1201 274.091 70.8387Z" fill="#8E8E8E"/>
<path d="M202.77 121.309C202.866 119.459 202.717 117.181 202.876 114.895C202.954 113.776 202.827 112.628 202.932 111.498C202.983 110.94 202.7 110.79 202.198 110.81C201.574 110.834 200.945 110.852 200.323 110.808C199.665 110.759 199.503 111.03 199.488 111.657C199.413 115.137 199.709 118.607 199.67 122.085C199.65 123.877 199.437 125.661 199.484 127.457C199.501 128.172 199.741 128.397 200.411 128.223C200.947 128.086 201.5 128.062 202.026 128.197C202.668 128.36 202.778 128.072 202.775 127.531C202.761 125.6 202.77 123.669 202.77 121.309Z" fill="#636363"/>
<path d="M220.968 81.0616C222.39 86.5805 223.78 91.9844 225.192 97.4667C225.586 97.0066 225.517 96.4632 225.571 96.008C225.897 93.262 226.506 90.5674 226.993 87.8507C227.255 86.3847 227.524 84.9211 227.808 83.46C227.864 83.1737 227.85 83.0097 227.524 82.9192C225.363 82.3171 223.205 81.6979 220.968 81.0616Z" fill="#6D6D6D"/>
<path d="M269.872 85.795C270.376 90.5846 270.439 95.3522 271.11 100.186C272.062 98.9254 272.955 97.7115 273.883 96.5245C274.904 95.22 275.936 93.9278 277.001 92.6576C277.287 92.3174 277.378 92.1142 276.979 91.8181C274.735 90.1367 272.784 88.1225 270.667 86.2967C270.447 86.1083 270.261 85.8562 269.872 85.795Z" fill="#8E8E8E"/>
<path d="M241.555 99.4295C244.529 94.985 246.722 90.2933 248.983 85.4767C248.188 85.6848 247.738 86.1987 247.224 86.5781C244.429 88.6364 241.658 90.724 238.873 92.7946C238.469 93.0931 238.335 93.3256 238.626 93.8543C239.629 95.6507 240.55 97.4961 241.555 99.4295Z" fill="#6D6D6D"/>
<path d="M221.865 80.1879C223.931 80.7924 225.796 81.3455 227.665 81.8791C228.201 82.0333 228.368 81.5511 228.571 81.2329C230.13 78.8149 231.672 76.3846 233.216 73.9543C233.838 72.9753 234.45 71.9914 235.066 71.01C235.02 70.9586 234.976 70.9072 234.929 70.8558C230.627 73.9274 226.324 77.0013 221.865 80.1879Z" fill="#8E8E8E"/>
<path d="M276.682 78.8934C276.971 80.5577 277.275 82.0604 277.485 83.5754C277.82 86.013 277.98 88.4727 278.457 90.8932C278.545 91.3435 278.631 91.4365 279.061 91.2701C280.549 90.6876 282.05 90.1394 283.545 89.574C283.826 89.4688 284.032 89.3562 283.777 88.9989C281.516 85.8148 279.48 82.4716 277.103 79.3633C277.005 79.241 276.893 79.1308 276.682 78.8934Z" fill="#8E8E8E"/>
<path d="M277.818 92.927C276.609 94.5203 275.525 95.9667 274.424 97.396C273.663 98.3823 272.875 99.3466 272.099 100.318C272.001 100.443 271.837 100.553 271.905 100.732C271.981 100.923 272.182 100.869 272.334 100.871C273.964 100.871 275.591 100.857 277.221 100.866C277.691 100.869 277.826 100.651 277.823 100.218C277.813 97.8561 277.818 95.4944 277.818 92.927Z" fill="#6D6D6D"/>
<path d="M284.165 90.2911C282.31 91.0302 280.614 91.7106 278.91 92.3763C278.58 92.506 278.431 92.7116 278.485 93.0567C278.803 95.0783 278.563 97.1145 278.636 99.1434C278.641 99.2683 278.653 99.3931 278.678 99.7284C280.558 96.5124 282.112 93.3406 284.165 90.2911Z" fill="#8E8E8E"/>
<path d="M210.6 11.2243C206.792 11.4275 203.062 11.5743 199.219 11.3908C199.437 10.9429 200.056 10.7887 199.733 10.3017C199.445 9.86847 198.97 9.80239 198.495 9.85378C197.788 9.9321 197.1 10.1059 196.513 10.5268C195.874 10.9845 195.937 11.4764 196.647 11.7946C197.447 12.1544 198.321 12.3257 199.163 12.3967C201.344 12.5802 203.539 12.6585 205.73 12.5729C207.519 12.5043 209.305 12.3722 211.094 12.2816C211.564 12.2572 212.015 12.1666 212.428 11.9635C213.023 11.6698 213.072 11.1827 212.58 10.7324C212.203 10.3898 211.733 10.2429 211.249 10.1719C210.97 10.1303 210.639 10.0349 210.412 10.3188C210.155 10.637 210.549 10.8401 210.6 11.2243Z" fill="#3F3F3F"/>
<path d="M229.595 11.437C232.899 11.2535 236.217 11.3807 239.509 10.9549C239.832 10.9133 240.155 10.8619 240.469 10.7787C240.819 10.6857 241.178 10.5413 241.112 10.0787C241.044 9.60145 240.677 9.48153 240.263 9.51334C239.695 9.5574 239.132 9.64795 238.564 9.7018C234.529 10.0714 230.483 10.064 226.437 10.0249C226.227 10.0224 225.941 10.0763 225.84 9.86822C225.703 9.58677 225.618 9.30287 225.231 9.34447C224.741 9.39832 224.252 9.52069 223.855 9.80214C223.425 10.1081 223.601 10.7787 224.176 10.9304C224.827 11.1042 225.505 11.2021 226.178 11.2633C227.314 11.3636 228.449 11.5104 229.595 11.437Z" fill="#3F3F3F"/>
<path d="M272.033 17.6635C274.341 17.688 276.646 17.6268 278.94 17.3551C279.099 17.3355 279.263 17.3037 279.414 17.2499C279.735 17.1348 280.038 16.9635 279.965 16.5597C279.894 16.1657 279.549 16.1852 279.248 16.195C277.322 16.2684 275.393 16.3076 273.47 16.4324C270.721 16.6111 267.992 16.474 265.271 16.0996C264.7 16.0213 264.135 16.0115 263.567 16.0286C263.384 16.0335 263.146 16.0041 263.112 16.2562C263.083 16.4716 263.274 16.5866 263.44 16.6821C263.917 16.9537 264.448 17.0639 264.979 17.174C267.309 17.6561 269.671 17.6635 272.033 17.6635Z" fill="#3F3F3F"/>
<path d="M273.034 47.8451C273.494 47.8451 273.954 47.85 274.412 47.8427C274.647 47.8378 274.847 47.7521 274.862 47.478C274.877 47.2064 274.644 47.2259 274.471 47.1672C273.58 46.8662 272.647 47.0766 271.734 46.9347C270.782 46.7878 269.813 46.619 268.837 46.7071C268.589 46.7291 268.193 46.5847 268.168 46.9469C268.149 47.2431 268.54 47.2871 268.793 47.3483C270.185 47.6836 271.597 47.8818 273.034 47.8451Z" fill="#3F3F3F"/>
<path d="M172.906 291.885C172.18 289.984 171.202 288.202 170.319 286.374C166.514 278.488 162.693 270.612 159.124 262.618C158.891 262.098 158.707 261.556 158.506 261.026C158.265 260.389 158.022 259.815 157.393 259.382C156.565 258.808 156.283 257.765 155.777 256.928C151.844 250.407 147.964 243.856 144.346 237.156C144.132 236.761 143.931 236.357 143.744 235.948C143.655 235.756 143.598 235.523 143.392 235.447C141.304 234.681 139.85 233.018 138.174 231.691C132.343 227.082 126.653 222.294 120.755 217.768C121.86 217.219 122.656 216.293 123.539 215.475C123.964 215.491 124.254 215.767 124.554 216.011C131.008 221.278 137.621 226.348 144.11 231.572C144.757 232.092 145.366 232.271 146.239 232.168C149.995 231.721 153.77 231.431 157.531 231.006C160.722 230.646 163.928 230.426 167.11 230.099C167.265 229.809 167.026 229.69 166.91 229.546C159.695 220.409 152.657 211.139 145.61 201.874C140.11 194.646 134.748 187.313 129.256 180.079C123.961 173.109 119.016 165.88 113.787 158.864C109.527 153.149 105.096 147.56 100.85 141.835C100.406 141.236 99.9699 140.635 99.4526 140.072C99.8399 142.138 100.233 144.194 100.669 146.236C101.974 152.324 103.182 158.43 104.406 164.537C104.845 166.72 105.3 168.897 105.741 171.08C105.819 171.465 105.882 171.849 105.874 172.242C105.687 173.623 105.936 175.037 106.247 176.301C106.58 177.658 106.659 179.037 106.987 180.38C107.165 181.111 107.39 181.823 107.634 182.53C107.81 183.037 107.767 183.513 107.412 183.873C107.011 184.282 106.442 184.309 105.893 184.263C105.7 184.247 105.562 184.109 105.535 183.909C105.367 182.674 104.918 181.547 104.233 180.51C104.184 180.437 104.159 180.345 104.138 180.258C104.065 179.968 103.929 179.649 104.222 179.427C104.539 179.188 104.644 179.665 104.896 179.692C105.432 178.639 105.186 177.493 104.316 176.735C103.293 175.841 102.713 174.677 102.486 173.355C102.061 170.899 101.993 168.421 102.139 165.932C102.174 165.333 102.196 164.751 101.706 164.253C101.319 163.857 101.335 163.324 101.492 162.807C101.668 162.227 101.633 161.745 100.975 161.477C100.679 161.355 100.577 161.046 100.452 160.77C100.254 160.331 100.011 159.917 99.6503 159.589C99.3145 158.04 98.9516 156.497 98.6456 154.942C97.9361 151.319 97.1968 147.701 96.5739 144.064C96.0648 141.082 95.4392 138.127 95.2198 135.083C95.0898 133.272 95.9402 132.029 96.6687 130.694C98.9218 126.558 101.308 122.496 103.645 118.409C103.897 117.968 104.184 117.546 104.444 117.107C105.021 116.14 105.798 115.579 106.941 115.244C112.728 113.537 118.597 112.159 124.462 110.772C127.054 110.16 129.727 109.77 132.411 110.304C132.974 110.415 132.988 110.058 133.115 109.741C134.488 106.35 135.818 102.938 137.242 99.5689C139.368 94.5453 141.367 89.4675 143.717 84.5387C144.478 82.9463 145.664 82.2395 147.368 82.0743C150.095 81.8116 152.827 81.7412 155.56 81.6031C156.272 81.5679 156.567 81.2971 156.687 80.6309C157.358 76.8801 158.325 73.1916 159.154 69.476C160.649 62.7707 162.238 56.087 163.695 49.3735C164.51 45.62 165.583 41.9315 166.374 38.1726C166.942 35.4726 167.511 32.7699 168.294 30.1213C168.502 29.4145 168.692 28.6833 169.45 28.2825C170.352 27.8031 170.809 27.9006 171.248 28.8322C171.939 30.3027 172.405 31.8599 172.93 33.39C175.04 39.5456 177.117 45.7148 179.308 51.8433C181.477 57.915 183.503 64.0381 185.609 70.1341C187.088 74.413 188.672 78.6566 190.056 82.9653C190.709 84.9964 192.201 86.3938 193.363 88.0187C198.37 95.0219 203.792 101.719 208.718 108.782C209.127 109.367 209.593 109.567 210.283 109.603C215.627 109.871 220.964 110.201 226.307 110.448C227.932 110.523 229.303 111.062 230.603 112.007C235.843 115.815 241.308 119.295 246.656 122.946C247.596 123.587 248.52 124.254 249.44 124.923C249.933 125.283 250.337 125.816 250.028 126.388C248.796 128.671 249.205 131.208 248.866 133.618C248.357 137.245 247.951 140.887 247.409 144.511C246.952 147.571 246.616 150.647 246.136 153.702C245.178 159.812 244.403 165.948 243.572 172.077C242.922 176.867 242.237 181.65 241.554 186.435C240.994 190.359 240.395 194.275 239.848 198.202C239.391 201.474 239.011 204.756 238.546 208.027C238.036 211.594 237.468 215.152 236.918 218.714C236.885 218.917 236.858 219.144 236.755 219.312C233.812 224.024 231.458 229.051 228.945 233.99C224.588 242.551 220.322 251.16 215.946 259.709C214.281 262.962 212.477 266.147 210.703 269.345C209.024 272.37 206.519 274.634 204.32 277.169C199.854 282.312 195.221 287.305 190.657 292.364C190.538 292.497 190.444 292.651 190.335 292.795C190.351 293.128 190.154 293.355 189.951 293.58C188.209 295.522 186.308 297.32 184.621 299.311C183.497 300.635 182.056 301.645 181.073 303.113C180.426 304.077 179.278 304.104 178.406 303.332C177.918 302.902 177.645 302.33 177.385 301.759C176.039 298.81 174.633 295.89 173.185 292.993C173.014 292.641 172.743 292.313 172.906 291.885Z" fill="#FEFEFE"/>
<path d="M123.539 215.589C122.767 216.515 122.117 217.593 120.755 217.763C120.725 217.758 120.671 217.744 120.668 217.752C119.658 220.076 117.299 221.273 115.986 223.35C115.569 224.011 114.886 224.471 114.123 224.712C113.706 224.845 113.616 225.17 113.467 225.498C110.895 231.225 108.232 236.91 105.226 242.426C104.379 243.983 104.013 244.149 102.239 243.864C101.11 243.683 100.132 243.16 99.3254 242.35C98.123 241.143 98.0932 239.707 98.7106 238.261C99.9591 235.334 100.858 232.263 102.345 229.435C102.383 229.362 102.377 229.262 102.391 229.186C102.294 229.053 102.177 229.075 102.066 229.127C99.8318 230.183 97.4568 230.852 95.1332 231.667C94.5618 231.867 94.4074 232.127 94.4588 232.704C94.7838 236.306 94.6674 239.908 94.513 243.515C94.4047 246.071 94.1339 248.609 93.7168 251.125C93.3079 253.611 92.1623 255.761 90.5212 257.681C89.4244 258.965 88.3709 260.273 86.9492 261.218C86.7163 261.372 86.7054 261.605 86.6919 261.852C86.44 265.971 85.4759 269.979 84.7962 274.033C84.0704 278.352 83.1469 282.645 82.738 287.013C82.6053 288.435 82.7732 289.83 83.2471 291.184C84.2464 292.947 83.6669 294.553 81.7685 295.254C81.4733 295.362 81.2512 295.549 81.0508 295.777C79.8322 297.158 78.2289 297.659 76.4578 297.74C75.7374 297.773 75.0117 297.805 74.294 297.699C73.7822 297.624 73.5574 297.846 73.3245 298.274C72.336 300.085 70.7734 301.112 68.8073 301.724C65.7227 302.682 62.7357 302.057 59.7296 301.442C58.2591 301.141 56.8292 300.697 55.3153 300.559C53.9775 300.437 52.9376 299.557 52.3012 298.458C51.1367 296.446 50.4678 294.23 50.2186 291.904C48.8862 286.065 48.0575 280.151 47.4671 274.193C47.1584 271.087 46.5166 268.018 46.327 264.893C46.2864 264.202 46.2024 263.509 46.3189 262.824C46.3758 262.48 46.3243 262.266 46.04 262.058C42.2242 259.279 39.7544 255.479 37.8993 251.23C37.5581 250.45 37.271 249.901 36.2121 249.906C35.0395 249.912 34.051 249.229 33.3144 248.281C33.0788 247.978 32.8973 247.769 32.4342 247.986C31.305 248.514 30.3057 248.154 29.4824 247.314C27.9577 245.763 27.5081 243.788 27.7112 241.733C28.0064 238.74 29.2386 236.116 31.4512 234.028C32.8405 232.72 34.4356 231.992 36.3827 232.677C36.8214 232.831 36.9596 232.699 37.0164 232.265C37.4524 228.867 37.948 225.476 38.2676 222.064C38.6359 218.113 39.0854 214.169 39.4971 210.224C39.5458 209.747 39.5729 209.27 39.5404 208.775C38.9392 209.636 38.6874 210.641 38.3434 211.599C36.4044 217.027 34.5114 222.456 31.6949 227.531C28.1662 233.887 23.3376 238.865 16.9058 242.272C15.6302 242.946 14.658 242.545 14.2762 241.17C14.0487 240.352 13.6289 239.881 12.7163 239.675C11.4543 239.39 10.455 238.567 9.71293 237.497C7.95806 234.963 7.36768 232.149 7.72516 229.105C7.82536 228.241 7.88764 227.369 7.92827 226.5C8.00139 224.872 7.55183 223.564 5.86466 222.892C4.89785 222.508 4.73537 221.468 5.40969 220.647C5.92966 220.011 6.59586 219.556 7.31081 219.152C9.4692 217.934 11.7874 217.335 14.2545 217.175C17.4555 216.967 19.8224 215.231 21.691 212.78C24.3965 209.233 26.5711 205.346 28.7322 201.457C30.0646 199.061 31.4322 196.697 33.5473 194.866C34.5141 194.029 35.5784 193.355 36.7348 192.846C37.3766 192.564 37.5472 192.323 37.2629 191.603C36.7294 190.246 36.6644 188.843 37.5066 187.538C38.4003 186.148 39.6948 185.512 41.3278 185.612C41.8017 185.642 41.91 185.577 41.9046 185.065C41.864 181.401 41.7692 177.729 42.5248 174.113C42.7766 172.9 42.5546 171.703 42.4192 170.522C42.2458 169.008 42.2675 167.503 42.4896 166.03C42.9256 163.153 42.3515 160.334 42.2161 157.493C42.1321 155.722 42.0075 153.951 41.9561 152.177C41.91 150.582 41.688 149.003 41.5797 147.416C41.2628 142.875 41.4767 138.341 41.9046 133.819C42.3325 129.315 44.0982 125.424 47.6567 122.577C48.9268 121.562 49.612 120.384 50.2322 118.978C52.507 113.811 55.3262 108.958 58.9497 104.606C60.209 103.092 61.6172 101.733 63.6212 101.237C65.284 100.826 66.4566 101.454 66.9847 103.087C67.483 104.625 67.4803 106.228 67.4316 107.818C67.326 111.214 66.9847 114.588 66.4485 117.941C66.3483 118.558 66.4079 118.808 67.1662 118.832C68.6177 118.881 69.9826 119.414 71.3096 119.98C71.77 120.178 71.9758 120.116 72.3198 119.704C75.5641 115.848 79.0089 112.205 83.4177 109.63C84.2789 109.126 85.1889 108.752 86.1909 108.614C87.9106 108.381 89.0046 109.362 88.8557 111.1C88.7528 112.303 88.4251 113.464 87.9512 114.575C86.0988 118.919 83.9892 123.138 81.8091 127.322C81.5545 127.809 81.5166 128.197 81.7116 128.741C82.9547 132.243 83.8538 135.796 83.3148 139.579C83.1469 140.757 83.2363 141.976 83.3825 143.178C83.5125 144.237 83.0684 145.31 83.4069 146.387C83.4827 146.631 83.4123 146.859 83.7265 147.04C85.1997 147.89 85.6059 148.882 85.262 150.574C85.0724 151.503 84.7664 152.416 84.0758 153.055C83.4611 153.621 83.3988 154.195 83.4529 154.961C83.7644 159.367 84.1842 163.757 84.7935 168.134C84.9695 169.401 84.8801 170.72 84.8043 172.009C84.7339 173.228 84.8964 174.4 85.1726 175.576C85.4461 176.751 85.5653 177.948 85.5626 179.156C85.5599 179.508 85.5788 179.762 86.0582 179.819C87.2741 179.96 87.8537 180.794 88.1326 181.902C88.1949 182.148 88.1191 182.433 88.5118 182.517C90.4318 182.928 90.8245 184.483 90.9518 186.072C91.0168 186.88 91.3147 186.928 91.9376 186.869C95.6342 186.506 99.1683 185.488 102.64 184.215C104.065 183.692 104.07 183.7 104.398 185.198C104.463 185.49 104.522 185.785 104.585 186.078C104.441 186.546 104.002 186.66 103.637 186.844C100.636 188.347 97.4134 189.032 94.1122 189.436C93.186 189.55 92.2625 189.655 91.3282 189.615C90.941 189.596 90.7108 189.761 90.5808 190.118C90.3533 190.741 90.0337 191.324 89.7494 191.919C89.1888 192.713 89.1346 193.471 89.5002 194.435C90.0662 195.925 90.1231 197.552 90.3587 199.128C90.5374 200.312 90.6079 200.371 91.7994 200.182C93.4081 199.927 94.9842 199.543 96.517 198.99C99.3091 197.937 101.95 196.591 104.468 194.993C104.964 194.679 105.443 194.265 106.107 194.354C107.122 195.678 107.022 196.835 105.757 197.81C103.523 199.535 100.961 200.656 98.4127 201.809C96.471 202.69 94.448 203.185 92.3329 203.372C91.0872 203.483 91.0872 203.516 91.2876 204.702C91.6613 206.925 91.9457 209.162 92.4629 211.358C92.6579 212.184 92.9342 212.442 93.7656 212.369C97.0235 212.079 100.306 212.019 103.512 211.28C104.947 210.949 106.386 210.6 107.851 210.454C108.972 210.343 109.8 209.945 110.207 208.853C110.775 207.748 111.358 206.652 111.956 205.563C112.869 203.976 113.836 202.419 114.71 200.807C114.876 200.507 114.992 200.296 114.675 199.949C113.094 198.232 111.534 196.493 110.023 194.714C108.473 192.864 106.951 190.996 105.484 189.081C105.289 188.775 105.067 188.485 104.869 188.179C104.059 186.958 104.747 185.961 105.448 184.903C105.73 184.475 106.261 184.431 106.754 184.423C107.203 184.415 107.653 184.412 108.102 184.423C110.234 184.499 112.352 184.775 114.48 184.897C116.314 185 118.128 185.26 119.945 185.49C120.787 185.596 121.597 185.815 122.399 186.062C122.905 186.216 123.265 186.156 123.615 185.794C123.739 185.664 123.907 185.571 124.016 185.431C124.969 184.182 125.478 184.304 126.867 185.127C127.414 185.45 127.902 185.856 128.365 186.284C129.091 186.953 129.486 187.768 129.294 188.786C129.231 189.119 129.137 189.485 129.535 189.653C131.333 190.403 132.443 191.93 133.662 193.319C135.761 195.716 137.99 197.999 139.98 200.491C140.302 200.894 140.53 201.349 140.798 201.78C141.651 203.15 140.817 204.404 140.069 205.292C139.796 205.614 139.395 205.66 138.994 205.671C136.557 205.742 134.133 205.549 131.704 205.382C129.846 205.252 127.983 205.208 126.133 204.97C125.177 204.848 124.221 204.737 123.314 204.388C122.783 204.185 122.458 204.347 122.261 204.875C121.622 206.597 120.787 208.236 120.048 209.915C119.761 210.568 119.902 210.914 120.533 211.177C121.058 211.396 121.529 211.748 122.049 211.97C123.287 212.496 123.536 213.62 123.837 214.722C123.934 215.05 123.864 215.375 123.539 215.589Z" fill="black"/>
<path d="M172.906 291.885C174.547 295.333 176.283 298.732 177.846 302.217C178.52 303.72 180.042 304.188 180.825 303.089C182.005 301.434 183.587 300.186 184.909 298.68C186.669 296.673 188.519 294.745 190.33 292.784C191.98 292.977 193.629 293.172 195.278 293.367C195.07 294.13 194.479 294.621 193.975 295.162C193.377 295.804 192.819 296.473 192.378 297.226C191.977 297.911 192.126 298.277 192.879 298.515C193.423 298.688 193.989 298.845 194.555 298.851C196.627 298.87 198.704 299.035 200.767 298.715C201.916 298.539 202.224 298.033 201.767 296.971C201.423 296.17 201.011 295.401 200.605 294.626C200.456 294.342 200.207 294.079 200.348 293.711C202.333 293.952 204.318 294.185 206.3 294.442C208.488 294.726 210.674 295.035 212.859 295.333C213.003 295.82 212.656 296.126 212.415 296.451C211.348 297.908 210.195 299.298 209.171 300.787C208.984 301.061 208.784 301.323 208.605 301.602C207.882 302.734 208.112 303.311 209.461 303.33C212.827 303.379 216.193 303.436 219.562 303.273C222.866 303.113 226.178 303.081 229.482 303.314C230.955 303.417 232.428 303.338 233.902 303.379C234.316 303.39 234.755 303.322 235.099 303.65C235.367 306.076 233.785 307.243 231.927 308.115C228.439 309.754 224.697 310.479 220.913 311.081C218.49 311.465 216.055 311.739 213.626 312.072C212.483 312.229 211.299 312.066 210.184 312.478C209.618 312.603 209.409 312.11 209.114 311.82C207.787 310.52 206.53 309.147 204.762 308.4C203.27 307.769 201.753 307.211 200.239 306.637C199.541 306.371 199.015 306.504 198.474 307.054C196.648 308.914 194.801 310.753 193.038 312.676C192.797 312.938 192.581 313.337 192.096 313.196C191.855 312.922 191.533 313.044 191.246 313.041C189.74 313.031 188.237 313.066 186.731 313.028C182.406 312.922 178.081 312.863 173.762 312.646C169.543 312.435 165.321 312.164 161.12 311.714C157.521 311.327 153.917 310.978 150.334 310.406C148.571 310.125 146.808 309.746 145.01 309.664C144.712 309.862 144.43 309.729 144.156 309.613C142.253 308.798 140.346 307.993 138.348 307.433C137.909 307.308 137.668 306.964 137.424 306.618C136.766 305.681 136.035 304.811 135.201 304.023C134.312 303.186 133.903 303.162 132.923 303.858C132.211 304.364 131.62 305.014 130.908 305.518C130.673 305.686 130.486 305.968 130.128 305.865C128.276 305.172 126.434 304.462 124.967 303.062C123.093 301.274 123.225 299.122 125.329 297.575C126.643 296.608 128.151 296.013 129.695 295.56C131.528 295.024 133.4 294.618 135.26 294.174C135.607 294.09 135.975 294.098 136.333 294.063C136.785 294.862 136.52 295.763 136.701 296.611C136.961 297.841 137.151 298.106 138.366 298.404C143.157 299.579 148.037 300.254 152.904 301.009C154.984 301.331 156.831 300.744 158.488 299.509C159.504 298.753 160.595 298.122 161.681 297.483C162.464 297.023 162.577 296.719 162.195 295.866C161.778 294.935 161.283 294.038 160.844 293.118C160.682 292.776 160.419 292.438 160.66 292.021C161.551 291.842 162.453 291.945 163.349 291.937C166.545 291.902 169.727 291.899 172.906 291.885Z" fill="#585858"/>
<path d="M50.221 291.907C50.7248 293.534 51.2014 295.17 51.7376 296.789C52.5311 299.192 53.9772 300.172 56.4877 300.462C58.1749 300.654 59.8241 301.169 61.4896 301.54C64.0434 302.106 66.5945 302.225 69.1103 301.385C70.9979 300.754 72.5849 299.728 73.2484 297.718C73.4109 297.225 73.6817 297.353 74.0067 297.396C75.6884 297.624 77.3512 297.624 78.9653 296.976C79.4175 296.795 79.8535 296.584 80.211 296.27C80.9016 295.663 81.3918 294.896 82.4859 294.748C83.2685 294.639 83.6016 293.356 83.4093 292.161C83.3579 291.836 83.301 291.514 83.2495 291.189C85.7681 291.536 88.2948 291.801 90.808 292.196C93.5378 292.624 96.2134 293.22 98.8295 294.089C100.173 294.536 101.473 295.105 102.621 295.931C105.551 298.041 105.248 300.586 102.301 302.403C100.246 303.674 97.9439 304.334 95.6203 304.925C93.3861 305.491 91.1194 305.894 88.8473 306.254C86.7512 306.585 84.6415 306.888 82.5265 307.045C77.2591 307.438 71.9837 307.768 66.7001 307.608C62.6595 307.487 58.6244 307.292 54.5974 306.788C51.5345 306.406 48.4878 305.959 45.4953 305.233C42.7953 304.578 40.1197 303.787 37.8367 302.073C35.5429 300.348 35.6702 297.607 38.0723 296.072C40.8725 294.282 44.0086 293.496 47.1961 292.827C48.0437 292.649 48.8859 292.443 49.7363 292.264C49.9638 292.213 50.1236 292.11 50.221 291.907Z" fill="#585858"/>
<path d="M235.101 303.647C232.461 303.595 229.82 303.492 227.18 303.503C221.504 303.522 215.825 303.603 210.148 303.649C209.672 303.652 209.19 303.611 208.719 303.53C207.852 303.384 207.573 302.888 208.001 302.127C208.456 301.32 209.006 300.562 209.55 299.809C210.639 298.306 211.754 296.822 212.859 295.33C214.747 292.971 216.629 290.61 218.519 288.253C220.881 285.307 223.234 282.352 225.623 279.428C226.628 278.195 227.345 278.068 228.772 278.756C230.963 279.809 232.981 281.166 235.074 282.39C235.927 282.889 236.74 283.449 237.593 283.947C238.663 284.57 239.895 284.565 241.062 284.633C242.681 284.725 244.087 285.377 245.468 286.06C245.977 286.312 246.256 287.081 246.587 287.647C248.65 291.194 250.416 294.905 252.366 298.515C252.553 298.861 252.767 299.173 253.027 299.471C253.574 300.102 253.479 300.835 252.737 301.188C252.198 301.445 251.794 301.821 251.404 302.23C250.657 303.021 249.769 303.335 248.675 303.34C244.374 303.365 240.076 303.443 235.776 303.508C235.548 303.514 235.291 303.433 235.101 303.647Z" fill="#FEFEFE"/>
<path d="M160.673 292.018C161.263 293.261 161.867 294.501 162.438 295.752C162.956 296.884 162.82 297.136 161.756 297.718C160.862 298.206 159.966 298.723 159.178 299.36C156.884 301.209 154.349 301.634 151.487 301.101C147.01 300.267 142.493 299.671 138.057 298.615C137.058 298.377 136.578 297.949 136.494 296.936C136.413 295.98 136.394 295.018 136.348 294.057C136.383 293.946 136.462 293.827 136.448 293.721C136.224 291.947 137.017 290.591 138.071 289.245C139.503 287.419 140.223 285.193 141.198 283.113C141.591 282.277 141.954 281.424 142.366 280.598C142.688 279.945 143.322 279.723 143.963 279.837C145.756 280.159 147.538 280.554 149.317 280.944C149.87 281.066 150.252 281.467 150.574 281.908C152.055 283.939 153.485 286.006 154.62 288.259C154.842 288.7 155.118 288.974 155.646 289.117C156.535 289.358 157.388 289.743 158.243 290.1C159.227 290.515 160.036 291.159 160.673 292.018Z" fill="#FDFDFD"/>
<path d="M192.101 313.195C192.935 312.64 193.52 311.827 194.208 311.123C195.719 309.582 197.141 307.955 198.755 306.517C199.093 306.216 199.389 306.14 199.806 306.281C201.961 307.01 204.12 307.744 206.116 308.851C207.115 309.406 207.887 310.259 208.696 311.058C209.184 311.54 209.566 312.134 210.183 312.48C210.966 313.336 211.735 314.2 212.531 315.039C213.084 315.622 213.032 316.142 212.274 316.374C208.342 317.588 204.488 319.077 200.377 319.635C199.491 319.754 198.684 319.703 198.235 318.76C198.078 318.433 197.772 318.441 197.466 318.419C195.286 318.276 193.087 318.36 190.928 317.918C190.899 317.913 190.869 317.921 190.839 317.915C190.254 317.818 189.566 317.731 189.279 317.219C188.951 316.634 189.55 316.196 189.891 315.752C190.579 314.858 191.543 314.2 192.101 313.195Z" fill="#FDFDFD"/>
<path d="M130.141 305.862C131.119 305.068 132.105 304.285 133.069 303.476C133.822 302.845 134.491 303.002 135.143 303.616C135.975 304.402 136.768 305.228 137.402 306.181C137.819 306.807 138.317 307.164 139.057 307.4C140.652 307.906 142.195 308.575 143.761 309.176C144.18 309.339 144.6 309.499 145.02 309.661C145.581 310.051 146.138 310.446 146.704 310.826C147.216 311.167 147.311 311.605 146.867 312.014C145.678 313.108 144.508 314.24 143.078 315.029C142.201 315.513 140.971 315.676 139.888 315.546C135.715 315.05 131.531 314.714 127.333 314.471C126.144 314.403 124.931 314.403 123.769 314.04C123.658 314.005 123.52 313.964 123.425 314.002C123.003 314.175 122.572 314.268 122.318 313.796C122.036 313.274 122.404 312.873 122.721 312.518C124.243 310.815 125.976 309.336 127.726 307.876C128.536 307.205 129.337 306.533 130.141 305.862Z" fill="#FDFDFD"/>
<path d="M89.5625 191.884C89.8794 191.109 90.0202 190.172 90.5564 189.609C91.1251 189.011 92.1298 189.441 92.9395 189.346C96.9963 188.867 100.964 188.087 104.585 186.07C104.947 185.105 104.474 184.209 104.279 183.326C103.095 177.997 102.145 172.621 101.086 167.267C100.65 165.062 100.197 162.858 99.7641 160.654C99.6964 160.302 99.6855 159.939 99.6476 159.581C100.084 159.57 100.262 159.879 100.447 160.201C100.739 160.713 100.796 161.35 101.608 161.526C102.042 161.62 101.909 162.333 101.763 162.739C101.522 163.405 101.562 163.884 102.155 164.385C102.662 164.816 102.472 165.566 102.35 166.094C102.033 167.456 102.551 168.775 102.394 170.11C102.247 171.348 102.399 172.629 102.721 173.75C103.003 174.725 103.442 175.89 104.452 176.526C105.129 176.954 105.684 178.424 105.394 179.194C105.373 179.25 105.343 179.302 105.324 179.359C105.216 179.678 105.329 180.182 104.866 180.225C104.476 180.263 104.658 179.665 104.36 179.473C104.073 179.86 104.3 180.231 104.455 180.41C105.102 181.152 105.213 182.121 105.638 182.95C105.692 183.055 105.806 183.175 105.787 183.267C105.497 184.78 106.627 183.984 106.984 183.876C107.599 183.692 107.61 183.161 107.35 182.525C106.765 181.097 106.564 179.546 106.383 178.034C106.318 177.487 106.264 177.051 105.963 176.61C105.855 176.453 105.784 176.188 105.836 176.014C106.098 175.137 105.765 174.292 105.627 173.466C105.549 172.997 105.754 172.597 105.652 172.171C106.112 172.288 106.077 172.71 106.15 173.038C106.957 176.572 107.55 180.15 108.213 183.711C108.27 184.014 108.43 184.358 108.111 184.632C107.991 184.634 107.87 184.642 107.75 184.64C105.142 184.588 104.262 185.815 105.105 188.328C105.787 190.134 105.882 192.063 106.253 193.934C106.291 194.121 106.218 194.286 106.044 194.394C104.874 194.939 103.807 195.659 102.702 196.32C100.774 197.474 98.7377 198.405 96.628 199.172C96.6389 197.88 97.018 197.509 98.2475 197.617C98.8568 197.671 99.2928 197.39 99.6422 196.943C100.024 196.455 100.512 196.222 101.126 196.236C101.787 196.249 102.304 196.036 102.553 195.367C102.664 195.069 102.87 194.83 103.187 194.776C103.983 194.638 104.251 193.853 104.831 193.444C105.256 193.143 104.988 191.759 104.566 191.386C104.27 191.126 103.94 190.923 103.615 190.7C103.122 190.362 102.976 189.91 103.526 189.541C104.341 188.997 103.675 188.564 103.48 188.103C103.228 187.516 102.794 187.803 102.407 187.927C102.35 187.946 102.288 187.968 102.247 188.009C101.069 189.187 99.4851 188.994 98.039 189.241C97.5651 189.322 97.0641 189.306 96.6335 189.531C95.5231 190.11 94.2422 189.698 93.1156 190.172C92.88 190.273 92.6633 190.067 92.444 189.972C91.5313 189.571 91.1711 189.782 91.0682 190.768C90.9491 191.911 90.792 192.027 89.5625 191.884Z" fill="#FDFDFD"/>
<path d="M200.347 293.71C200.904 294.766 201.511 295.798 202.012 296.881C202.632 298.219 202.223 298.853 200.772 298.986C198.378 299.208 195.981 299.34 193.595 298.94C191.94 298.661 191.101 298.314 192.563 296.486C193.425 295.411 194.37 294.403 195.274 293.364C195.735 292.99 196.184 292.6 196.658 292.242C197.66 291.481 198.435 291.568 199.282 292.51C199.642 292.909 199.994 293.312 200.347 293.71Z" fill="#FDFDFD"/>
<path d="M194.741 254.009C191.995 251.268 189.417 248.579 186.849 245.876C182.042 240.817 177.387 235.615 172.385 230.743C171.944 230.313 171.651 229.806 171.508 229.2C166.885 209.595 161.693 190.135 157.025 170.541C155.199 162.88 153.296 155.24 151.359 147.606C151.213 147.029 150.696 146.344 150.991 145.911C151.294 145.469 152.093 145.827 152.673 145.808C159.949 145.572 167.221 145.231 174.489 144.841C183.05 144.383 191.613 143.953 200.171 143.462C206.925 143.075 213.69 142.804 220.425 142.114C220.455 142.111 220.485 142.108 220.514 142.108C222.02 141.995 221.979 141.997 222.096 143.514C222.353 146.875 222.919 150.198 223.409 153.529C224.704 162.306 225.993 171.08 227.182 179.871C227.23 180.239 227.233 180.567 227.054 180.913C223.534 187.665 220.577 194.673 217.541 201.647C210.08 218.792 202.627 235.943 195.172 253.091C195.052 253.367 194.917 253.632 194.741 254.009Z" fill="#363636"/>
<path d="M211.156 112.132C212.843 112.132 214.484 112.072 216.12 112.143C219.694 112.297 223.266 112.571 226.847 112.592C227.15 112.595 227.423 112.622 227.697 112.809C232.577 116.167 237.463 119.517 242.348 122.864C243.735 123.815 245.056 124.863 246.538 125.667C246.372 126.079 246.012 126.133 245.733 126.277C239.009 129.711 232.539 133.613 225.896 137.199C224.761 137.811 223.7 138.566 222.633 139.295C222.091 139.666 221.541 139.872 220.878 139.882C209.444 140.039 198.032 140.749 186.612 141.242C179.218 141.561 171.828 141.903 164.437 142.268C160.202 142.477 155.969 142.769 151.744 143.124C150.713 143.211 149.792 143.286 148.763 142.918C145.237 141.653 141.494 141.31 137.843 140.567C130.537 139.083 123.287 137.323 115.948 135.999C110.505 135.016 105.056 134.052 99.6018 133.126C98.8354 132.996 98.7271 132.879 99.1252 132.183C101.571 127.902 104.03 123.623 106.353 119.273C106.992 118.076 107.729 117.51 109.05 117.204C114.261 115.997 119.439 114.634 124.565 113.112C126.05 112.671 127.469 112.281 129.034 112.598C129.76 112.747 130.534 112.687 131.284 112.663C131.826 112.647 131.894 112.809 131.699 113.286C131.062 114.843 130.434 116.405 129.846 117.984C129.34 119.344 129.44 120.002 130.618 120.812C133.665 122.902 136.676 125.072 140.026 126.675C141.686 127.468 143.52 127.17 145.272 127.241C148.668 127.379 152.069 127.368 155.468 127.395C162.358 127.452 169.242 127.774 176.134 127.647C179.809 127.579 183.354 126.799 186.885 125.992C195.267 124.078 203.733 122.556 212.09 120.53C212.878 120.338 213.658 120.113 214.451 119.934C215.402 119.72 215.692 119.198 215.25 118.307C214.69 117.172 213.959 116.137 213.235 115.1C212.537 114.095 211.833 113.096 211.156 112.132Z" fill="#363636"/>
<path d="M166.515 222.711C165.453 221.3 164.392 219.892 163.333 218.475C151.991 203.296 140.503 188.223 128.728 173.382C119.12 161.271 109.676 149.036 100.249 136.787C100.125 136.624 100.006 136.459 99.751 136.115C101.852 136.557 103.756 136.925 105.644 137.358C115.58 139.641 125.63 141.331 135.661 143.113C139.298 143.76 142.921 144.489 146.548 145.206C147.222 145.339 148.053 145.022 148.544 145.523C149.018 146.008 148.85 146.837 148.999 147.506C150.864 155.925 152.95 164.296 154.956 172.683C158.791 188.699 162.515 204.745 166.285 220.777C166.428 221.386 166.569 221.998 166.71 222.608C166.645 222.643 166.58 222.678 166.515 222.711Z" fill="#363636"/>
<path d="M108.114 184.632C107.361 180.467 106.687 176.285 105.655 172.171C105.094 169.282 104.561 166.387 103.971 163.503C102.375 155.695 100.759 147.893 99.1527 140.088C99.1121 139.888 99.104 139.679 99.0742 139.411C99.5075 139.484 99.6131 139.828 99.7919 140.061C108.924 152.047 117.855 164.18 126.77 176.328C138.637 192.501 150.778 208.48 163.087 224.325C164.598 226.269 166.144 228.189 167.793 230.275C166.139 230.426 164.638 230.554 163.138 230.7C157.543 231.247 151.943 231.753 146.356 232.387C145.383 232.498 144.742 232.387 143.967 231.764C137.408 226.481 130.806 221.257 124.214 216.016C124.005 215.851 123.832 215.624 123.54 215.586C123.813 214.451 123.139 212.861 122.134 212.309C121.397 211.905 120.661 211.496 119.905 211.131C119.488 210.93 119.423 210.727 119.615 210.299C120.512 208.304 121.384 206.297 122.229 204.277C122.397 203.876 122.6 203.878 122.917 203.992C125.498 204.916 128.203 204.913 130.889 205.075C133.492 205.232 136.092 205.487 138.705 205.444C140.192 205.419 141.373 203.521 140.734 202.178C139.829 200.271 138.275 198.871 136.934 197.311C135.507 195.651 133.831 194.183 132.547 192.426C131.642 191.185 130.453 190.514 129.232 189.791C128.921 189.606 128.834 189.466 128.948 189.089C129.327 187.827 129.034 187.091 127.994 186.265C127.336 185.739 126.67 185.238 125.912 184.854C125.311 184.55 124.875 184.691 124.512 185.2C124.374 185.393 124.192 185.563 124.068 185.747C123.244 186.958 122.175 186.259 121.297 186.013C120.073 185.672 118.825 185.552 117.592 185.42C114.443 185.076 111.274 184.883 108.114 184.632Z" fill="#363636"/>
<path d="M177.006 124.026C176.667 123.669 176.605 123.205 176.464 122.786C173.794 114.873 171.045 106.984 168.508 99.0299C167.219 94.9921 164.928 91.6069 162.45 88.284C161.299 86.7404 160.186 85.1696 159.018 83.6422C158.672 83.1873 158.585 82.7594 158.718 82.2232C161.583 70.7081 164.047 59.1011 166.756 47.5481C167.871 42.7818 168.873 37.9884 169.932 33.2085C169.995 32.9296 170.078 32.6533 170.208 32.1659C170.793 33.8232 171.324 35.2856 171.823 36.7589C177.139 52.4363 182.419 68.1246 187.801 83.7776C188.35 85.3755 188.182 86.9651 188.442 88.5494C189.347 94.0957 190.303 99.6284 191.373 105.145C191.527 105.936 191.375 106.437 190.861 107.065C186.525 112.338 182.162 117.586 177.959 122.964C177.669 123.333 177.445 123.769 177.006 124.026Z" fill="#363636"/>
<path d="M179.389 297.274C179.172 296.852 179.018 296.564 178.877 296.269C173.526 285.166 168.505 273.905 163.018 262.864C162.644 262.111 162.33 261.307 161.84 260.633C161.109 259.623 161.149 258.718 161.623 257.583C164.954 249.594 168.09 241.527 171.067 233.397C171.107 233.286 171.178 233.189 171.259 233.042C171.863 233.443 172.25 234.02 172.716 234.513C178.338 240.452 183.957 246.399 189.566 252.351C190.763 253.621 191.919 254.927 193.095 256.213C193.384 256.53 193.588 256.803 193.387 257.321C190.814 263.961 188.648 270.748 186.319 277.475C184.147 283.75 181.972 290.024 179.798 296.299C179.7 296.581 179.568 296.849 179.389 297.274Z" fill="#363636"/>
<path d="M234.611 209.812C234.18 207.007 233.736 204.201 233.324 201.393C231.575 189.493 229.704 177.61 227.802 165.732C226.744 159.113 225.834 152.47 224.74 145.854C224.523 144.551 224.241 143.254 223.933 141.971C223.808 141.459 223.843 141.193 224.371 140.917C231.71 137.096 238.776 132.798 245.917 128.628C246.188 128.47 246.407 128.186 246.651 128.208C242.375 155.37 238.898 182.641 234.611 209.812Z" fill="#363636"/>
<path d="M230.963 223.672C229.465 226.613 227.954 229.549 226.473 232.501C220.937 243.515 214.885 254.263 209.59 265.402C209.254 266.106 208.883 266.807 208.661 267.549C208.466 268.191 207.879 268.348 207.502 268.755C199.529 277.356 191.646 286.043 183.806 294.766C183.608 294.986 183.402 295.2 183.075 295.351C183.527 293.994 183.993 292.64 184.431 291.278C187.725 281.033 191.489 270.951 194.806 260.717C195.074 259.888 195.326 259.051 195.575 258.217C195.808 257.443 196.318 256.833 196.875 256.313C204.214 249.451 211.318 242.345 218.541 235.36C222.497 231.534 226.459 227.713 230.421 223.891C230.551 223.767 230.692 223.659 230.83 223.539C230.871 223.583 230.917 223.629 230.963 223.672Z" fill="#363636"/>
<path d="M133.209 119.566C136.007 117.581 138.734 115.609 141.499 113.689C148.269 108.988 155.056 104.314 161.832 99.6206C162.969 98.8325 164.082 98.012 165.193 97.1833C165.564 96.907 165.726 96.9314 165.878 97.3918C168.992 106.711 172.12 116.027 175.243 125.345C175.262 125.399 175.245 125.462 175.245 125.559C174.436 125.686 173.637 125.494 172.838 125.481C165.859 125.348 158.88 125.204 151.904 125.055C148.687 124.985 145.469 124.801 142.249 124.86C141.984 124.866 141.71 124.896 141.472 124.709C139.002 122.762 136.188 121.372 133.488 119.794C133.41 119.748 133.345 119.68 133.209 119.566Z" fill="#363636"/>
<path d="M199.476 249.971C208.675 228.233 218.619 206.841 227.805 185.108C228.09 185.255 228.036 185.55 228.068 185.794C229.471 196.225 231.291 206.598 232.596 217.043C232.683 217.728 232.504 218.159 232.027 218.616C224.025 226.31 216.036 234.015 208.044 241.719C205.423 244.246 202.804 246.776 200.185 249.302C199.952 249.53 199.711 249.749 199.476 249.971Z" fill="#363636"/>
<path d="M163.972 95.7671C153.721 102.676 143.72 109.855 133.264 116.474C133.584 115.71 133.898 114.943 134.22 114.18C138.003 105.237 141.719 96.2708 145.164 87.1904C145.405 86.5512 145.402 85.5574 145.949 85.3705C146.48 85.1891 147.111 85.9528 147.701 86.294C152.936 89.3136 158.008 92.6094 163.379 95.396C163.566 95.4908 163.733 95.6154 163.972 95.7671Z" fill="#363636"/>
<path d="M178.909 124.974C179.849 123.875 180.756 122.837 181.636 121.778C185.309 117.364 188.975 112.945 192.629 108.517C192.959 108.116 193.168 107.937 193.717 108.249C199.372 111.436 205.002 114.67 210.586 117.979C210.735 118.068 210.876 118.177 211.179 118.385C200.355 120.595 189.693 122.77 178.909 124.974Z" fill="#363636"/>
<path d="M159.294 256.032C158.791 255.117 158.39 254.388 157.986 253.662C154.674 247.691 151.354 241.725 147.815 235.883C147.446 235.277 147.498 235.109 148.232 235.052C154.528 234.57 160.822 234.058 167.118 233.557C168.099 233.478 168.104 233.492 167.738 234.394C164.976 241.221 162.254 248.065 159.717 254.981C159.617 255.265 159.498 255.539 159.294 256.032Z" fill="#363636"/>
<path d="M191.101 88.9124C197.552 97.9766 203.886 107.125 210.581 116.067C209.088 115.2 207.585 114.35 206.107 113.462C202.191 111.114 198.288 108.744 194.372 106.393C194.009 106.177 193.804 105.92 193.736 105.489C192.902 100.178 191.973 94.8839 190.941 89.6111C190.901 89.408 190.903 89.1968 190.884 88.9882C190.955 88.9612 191.028 88.9368 191.101 88.9124Z" fill="#363636"/>
<path d="M162.471 92.2383C158.054 89.6412 153.455 87.4422 148.96 84.7503C150.114 84.4578 151.151 84.5012 152.172 84.4199C153.518 84.3143 154.861 84.1843 156.207 84.0706C156.575 84.0381 156.9 84.076 157.147 84.4389C158.912 87.0441 160.694 89.6385 162.471 92.2383Z" fill="#363636"/>
<path d="M121.377 214.638C121.071 215.207 120.589 215.239 120.167 215.339C119.135 215.583 118.45 216.149 118.255 217.23C118.2 217.525 118.152 217.871 117.876 218.02C116.478 218.773 115.677 220.133 114.601 221.208C113.434 222.375 112.037 222.811 110.439 222.762C109.502 222.732 108.635 222.732 107.842 223.472C107.403 223.881 106.618 223.902 106.006 224.146C102.22 225.663 98.5096 227.358 94.6288 228.655C91.0784 229.841 87.4522 230.573 83.7556 231.087C79.9371 231.618 76.1295 231.239 72.3191 231.171C71.8777 231.163 71.4336 231.033 70.9949 230.93C70.2745 230.762 69.7166 230.965 69.481 231.683C69.2562 232.371 69.6218 232.837 70.2257 233.132C70.3828 233.21 70.5643 233.248 70.7403 233.281C76.3082 234.321 81.8816 234.711 87.482 233.519C88.8036 233.237 90.1306 232.994 91.4522 232.715C91.7988 232.642 91.9315 232.701 91.9071 233.094C91.6444 237.324 91.5253 241.565 91.1272 245.787C90.9837 247.314 91.0162 248.877 90.6831 250.361C90.0006 253.391 88.9065 256.232 85.8788 257.789C85.1801 258.15 84.5708 258.648 84.0427 259.233C83.3034 260.051 83.2627 260.814 84.0319 261.613C84.4191 262.017 84.1754 262.355 84.105 262.686C83.2357 266.734 82.2986 270.77 81.5566 274.848C80.7523 279.257 80.1728 283.693 79.7124 288.145C79.5661 289.564 79.8532 290.964 80.2621 292.324C80.4571 292.971 80.4246 293.225 79.6013 293.434C77.7571 293.902 75.9453 294.436 74.0199 294.271C71.7044 294.073 72.1404 294.387 71.8831 292.21C71.2386 286.753 71.4173 281.274 71.7098 275.807C71.9048 272.178 72.2894 268.557 72.5737 264.931C72.6008 264.579 72.6793 264.514 73.0503 264.533C76.1403 264.682 78.7781 263.468 81.2262 261.732C81.5295 261.516 81.9276 261.212 81.776 260.782C81.6216 260.335 81.1341 260.281 80.709 260.254C79.5228 260.178 78.3773 260.438 77.2425 260.733C75.902 261.085 74.5479 261.375 73.1614 261.418C71.6529 261.464 70.1445 262.729 69.8547 264.305C68.7065 270.575 68.4005 276.901 68.3246 283.251C68.2867 286.563 68.4248 289.862 68.9719 293.136C69.1831 294.401 69.7789 295.565 69.8981 296.854C69.9333 297.244 69.8358 297.461 69.5189 297.667C68.6632 298.222 67.7722 298.536 66.716 298.436C63.236 298.111 59.8184 297.415 56.379 296.827C55.4501 296.667 54.9654 296.177 54.7108 295.308C53.6032 291.522 52.8232 287.657 52.2274 283.771C51.2065 277.117 50.218 270.461 48.9479 263.847C48.8368 263.263 48.6933 262.724 48.891 262.095C49.0968 261.432 48.7096 260.804 48.3142 260.265C47.4828 259.122 46.673 257.957 45.7658 256.877C42.7435 253.275 40.4768 249.224 38.4999 244.988C38.3103 244.582 38.1505 244.151 37.8309 243.823C37.2297 243.206 36.3875 243.39 36.1302 244.211C36.0327 244.522 36.003 244.861 35.9975 245.188C35.9921 245.484 36.0571 245.781 36.0977 246.131C35.5101 245.822 35.3042 245.299 35.0741 244.788C34.4485 243.39 33.3436 243.106 32.217 244.148C31.5995 244.72 31.4695 244.384 31.2935 243.864C30.4783 241.462 32.2061 237.205 34.4756 235.989C35.047 235.683 35.5913 235.772 36.1113 236.043C36.5825 236.289 36.2927 236.75 36.2873 237.105C36.2629 238.247 36.6177 238.938 37.3895 239.138C38.1207 239.331 38.9034 238.868 39.3638 237.903C40.2629 236.029 40.4389 233.966 40.7937 231.962C41.9554 225.384 42.8925 218.773 43.4097 212.111C43.5966 209.685 43.8024 207.25 43.5505 204.813C43.5126 204.434 43.5451 204.046 43.5451 203.58C45.6033 204.526 47.7319 205.029 49.8984 205.314C54.226 205.885 58.5672 206.153 62.9436 205.88C66.586 205.652 70.158 205.078 73.684 204.176C74.965 203.849 76.1891 203.35 77.4077 202.844C77.7679 202.695 77.9575 202.689 78.2554 202.974C79.5526 204.214 80.7604 204.488 81.998 203.886C83.4686 203.174 84.4868 201.509 84.3 199.919C84.2268 199.304 84.3812 198.885 84.7901 198.486C85.5863 197.709 86.2282 196.802 86.9512 195.83C87.1733 197.696 87.371 199.464 87.5958 201.227C88.0372 204.715 88.4597 208.209 89.264 211.632C89.4806 212.55 89.1692 212.542 88.4786 212.496C84.1483 212.201 79.8965 211.472 75.7314 210.24C74.5534 209.89 73.378 209.533 72.1973 209.189C71.8831 209.097 71.5582 209.018 71.2332 208.986C70.7836 208.943 70.4099 209.094 70.1878 209.53C69.9495 209.996 70.177 210.362 70.4641 210.668C71.0517 211.296 71.8263 211.651 72.6116 211.957C75.6908 213.151 78.8078 214.194 82.082 214.771C85.9763 215.456 89.8814 215.935 93.8326 215.675C98.1846 215.388 102.488 214.716 106.767 213.869C109.123 213.403 111.522 213.167 113.889 212.769C116.711 212.284 118.999 213.471 121.377 214.638Z" fill="#FEFEFE"/>
<path d="M47.3122 126.374C47.1253 127.222 46.9303 127.945 46.8166 128.682C46.7408 129.172 46.6351 129.778 47.3068 129.963C48.0244 130.16 48.2221 129.611 48.4117 129.074C50.4726 123.198 52.9803 117.524 56.1759 112.17C57.6112 109.765 59.3147 107.547 61.2564 105.522C61.9036 104.847 62.6267 104.26 63.515 103.91C64.3383 103.585 64.5576 103.675 64.6334 104.525C64.8393 106.865 64.842 109.202 64.5847 111.547C64.1433 115.607 63.7479 119.672 63.3633 123.737C63.2983 124.43 63.1629 125.364 64.1352 125.489C65.0261 125.6 65.259 124.739 65.4432 124.037C65.6544 123.225 65.8196 122.399 65.9767 121.576C66.0606 121.137 66.1527 120.917 66.7214 121.053C70.0687 121.857 73.1262 123.271 75.8262 125.402C76.988 126.32 77.8059 127.539 78.5777 128.817C80.6223 132.194 81.0042 135.964 81.3698 139.753C81.3969 140.04 81.5052 140.4 81.2208 140.603C79.9967 141.478 80.4003 142.434 81.0935 143.36C81.5458 143.966 81.2154 143.972 80.7252 144.226C79.7395 144.736 79.0137 144.757 78.0063 144.086C76.7361 143.238 74.724 144.392 74.2609 146.117C74.0659 146.842 73.833 147.002 73.0937 146.913C71.3767 146.704 70.2853 147.739 70.2474 149.477C70.2149 150.975 70.873 152.156 72.0402 153.036C72.506 153.385 72.7552 153.773 72.8689 154.341C73.2183 156.091 73.7897 157.759 74.9786 159.143C76.2189 160.584 77.9819 160.93 79.2006 158.983C79.4849 158.528 79.7855 158.073 79.9886 157.58C80.3759 156.646 80.6982 155.682 81.0556 154.734C81.1206 154.563 80.9798 154.233 81.3102 154.257C81.6812 154.284 81.5512 154.596 81.5323 154.821C81.1612 158.867 81.6595 162.872 82.3853 166.826C82.7645 168.881 83.0976 170.893 82.9757 172.979C82.9486 173.453 82.9784 173.954 83.103 174.411C83.6798 176.54 83.39 178.712 83.4957 180.865C83.7638 186.306 82.0766 191.291 80.2242 196.261C80.124 196.526 80.0563 196.775 79.7151 196.789C79.6853 196.789 79.6582 196.808 79.6284 196.816C78.9704 196.981 78.5804 197.856 77.9711 197.788C75.856 197.555 73.703 197.766 71.6123 197.222C62.318 194.801 53.3567 191.54 44.9344 186.872C44.4713 186.614 44.3088 186.352 44.474 185.888C44.7015 185.244 44.6799 184.589 44.6311 183.928C44.3765 180.491 44.5851 177.087 45.2648 173.707C45.449 172.789 45.3731 171.841 45.2729 170.918C45.04 168.751 45.1592 166.604 45.4327 164.445C45.6819 162.498 45.3433 160.543 45.2784 158.59C45.1727 155.527 44.9805 152.465 44.8071 149.404C44.5309 144.476 44.5715 139.544 44.6176 134.612C44.6392 132.308 45.1077 130.084 46.2235 128.032C46.5214 127.482 46.8193 126.938 47.3122 126.374Z" fill="#FEFEFE"/>
<path d="M8.71387 221.227C10.1465 220.536 11.4951 220.011 13.074 220.035C18.1842 220.119 21.9242 217.617 24.7515 213.549C27.3459 209.818 29.6207 205.899 31.6383 201.826C33.144 198.79 35.0993 196.128 38.173 194.457C38.5657 194.243 38.8013 194.173 39.0667 194.549C39.4107 195.036 38.8636 195.015 38.6876 195.145C37.6233 195.93 37.3389 196.978 37.9049 198.34C38.4222 199.589 39.2265 200.626 40.3071 201.436C40.6727 201.709 40.827 201.923 40.4695 202.354C38.0403 205.3 36.6348 208.767 35.362 212.32C33.6694 217.037 31.9308 221.744 29.2957 226.05C27.8063 228.485 26.3655 230.963 24.3859 233.043C22.1327 235.407 19.4462 237.235 16.7137 238.992C16.4212 239.179 16.2588 239.106 16.0502 238.862C15.709 238.467 15.2486 238.215 14.7557 238.074C11.9528 237.273 11.0781 235.057 10.6664 232.514C10.3415 230.5 10.8858 228.504 10.8479 226.492C10.8127 224.506 10.3333 222.7 8.71387 221.227Z" fill="#32C67F"/>
<path d="M59.9246 203.31C55.4345 203.288 50.9742 202.96 46.6168 201.809C44.2066 201.173 41.9642 200.163 40.4152 198.064C39.7381 197.146 39.9006 196.734 41.0191 196.604C41.8694 196.504 42.69 196.461 43.5106 196.951C44.3555 197.455 45.325 197.742 46.2999 197.953C46.8389 198.069 47.4076 198.032 47.6188 197.482C47.83 196.935 47.3534 196.599 46.9066 196.393C45.4875 195.738 44.0305 195.164 42.6385 194.462C40.8864 193.579 39.7327 192.16 39.3265 190.216C39.1207 189.23 39.7192 188.548 40.7374 188.45C41.5472 188.372 42.2756 188.653 43.0014 188.943C47.6378 190.793 52.0412 193.154 56.6342 195.101C61.517 197.173 66.5893 198.617 71.7971 199.575C73.3272 199.857 74.9033 199.906 76.4687 199.884C76.7097 199.881 77.0482 199.811 77.0996 200.214C77.1511 200.621 76.8207 200.61 76.5743 200.686C73.2162 201.723 69.8147 202.584 66.3131 202.977C64.1926 203.212 62.0613 203.323 59.9246 203.31Z" fill="#32C67E"/>
<path d="M137.496 203.41C134.304 203.058 131.108 202.625 127.891 202.614C126.122 202.608 124.617 202.156 123.092 201.243C121.091 200.044 118.924 199.115 116.809 198.107C116.099 197.772 115.523 197.341 114.938 196.797C112.045 194.094 109.668 190.944 107.035 188.017C106.77 187.722 106.458 187.445 106.735 187.007C106.987 186.601 107.314 186.907 107.604 186.95C109.716 187.264 111.834 187.605 113.974 187.492C116.148 187.375 118.288 187.887 120.454 187.779C120.587 187.773 120.744 187.841 120.86 187.917C123.666 189.728 126.623 191.264 129.589 192.786C130.16 193.078 130.631 193.477 131.059 193.956C133.426 196.599 135.804 199.231 138.182 201.864C138.458 202.17 138.772 202.381 138.499 202.923C138.249 203.41 137.943 203.47 137.496 203.41Z" fill="#C8C8C8"/>
<path d="M106.045 194.392C105.947 192.905 105.584 191.465 105.346 189.999C105.256 189.442 105.034 188.905 105.102 188.326C105.378 188.434 105.465 188.7 105.6 188.924C106.946 194.706 107.908 200.567 109.197 206.362C109.413 207.34 109.73 208.174 110.418 208.878C110.082 210.183 109.151 210.527 107.902 210.684C105.045 211.044 102.272 211.911 99.396 212.171C97.392 212.353 95.3799 212.45 93.3731 212.58C92.6825 212.626 92.3684 212.412 92.2195 211.61C91.7455 209.073 91.3745 206.519 90.9087 203.982C90.7896 203.329 90.8952 203.207 91.5587 203.172C93.8471 203.045 96.0677 202.592 98.1774 201.634C100.888 200.401 103.594 199.188 105.98 197.355C106.529 196.932 106.705 196.534 106.491 195.93C106.315 195.427 106.37 194.852 106.045 194.392Z" fill="#32C67F"/>
<path d="M89.5627 191.884C89.7035 191.83 89.8498 191.717 89.9797 191.73C90.7489 191.819 90.9005 191.416 90.8382 190.763C90.7976 190.338 90.8301 189.799 91.2011 189.629C91.6344 189.428 92.2085 189.382 92.6283 189.81C92.8558 190.04 93.0914 190.097 93.3405 189.899C93.6682 189.639 93.9959 189.618 94.4103 189.694C95.1821 189.834 95.9052 189.485 96.6418 189.309C97.8631 189.014 99.0791 188.729 100.349 188.805C100.669 188.824 100.923 188.659 101.17 188.483C101.389 188.326 101.595 188.153 101.82 188.004C103.231 187.059 104.146 187.505 104.284 189.176C104.319 189.596 104.04 189.496 103.843 189.566C103.607 189.65 103.39 189.791 103.358 190.048C103.323 190.327 103.556 190.525 103.775 190.566C104.422 190.685 104.631 191.416 105.243 191.557C105.27 191.562 105.305 191.576 105.324 191.595C105.592 191.882 105.151 193.918 104.823 193.859C104.341 193.772 104.482 194.129 104.322 194.259C103.523 194.915 102.648 195.481 102.055 196.358C100.715 196.171 99.8672 197.079 98.9437 197.791C98.6377 198.029 98.3831 197.943 98.1123 197.829C97.4596 197.553 97.0886 197.723 96.9478 198.441C96.899 198.695 96.7311 198.926 96.6201 199.167C94.765 199.966 92.7827 200.236 90.8166 200.58C90.4212 200.648 90.3128 200.513 90.2587 200.131C90.0502 198.617 89.8118 197.106 89.5627 195.597C89.4896 195.156 89.4679 194.641 89.2215 194.308C88.5255 193.35 89.0454 192.635 89.5627 191.884Z" fill="#FEFEFE"/>
<path d="M111.022 225.338C110.236 227.404 109.286 229.276 108.341 231.147C106.865 234.072 105.814 237.186 104.36 240.119C103.618 241.614 103.612 241.617 102.074 240.95C101.8 240.831 101.532 240.69 101.272 240.539C100.715 240.214 100.52 239.835 100.798 239.141C102.269 235.496 103.688 231.829 105.107 228.163C105.283 227.708 105.546 227.423 105.985 227.217C107.182 226.66 108.362 226.069 109.538 225.463C110.003 225.221 110.464 225.286 111.022 225.338Z" fill="#D2925D"/>
<path d="M110.423 208.88C109.616 208.617 109.245 207.995 109.088 207.217C107.916 201.403 106.748 195.586 105.576 189.771C105.519 189.484 105.346 189.2 105.605 188.927C107.122 190.817 108.639 192.704 110.152 194.595C110.477 195.142 110.653 195.74 110.759 196.363C111.19 198.868 111.715 201.357 112.221 203.846C112.343 204.447 112.362 205.026 112.178 205.611C111.593 206.703 111.008 207.791 110.423 208.88Z" fill="#FDFDFD"/>
<path d="M88.2299 184.017C88.8121 185.078 89.0504 185.994 88.9286 187.02C88.544 190.256 86.9733 192.91 84.9016 195.32C84.4331 195.868 83.9266 196.385 83.4636 196.935C83.1846 197.265 82.9463 197.292 82.5482 197.086C82.1095 196.859 82.0661 196.699 82.2422 196.225C83.9321 191.719 85.5299 187.185 85.4459 182.27C85.4432 182.067 85.297 181.736 85.668 181.69C85.9307 181.658 86.0905 181.864 86.2232 182.08C86.5725 182.646 86.4858 183.304 86.624 183.914C86.6754 184.147 86.6402 184.404 86.7133 184.626C86.8325 184.989 86.9354 185.471 87.3795 185.498C87.8047 185.522 87.8616 185.035 88.0105 184.724C88.0891 184.564 88.1189 184.385 88.2299 184.017Z" fill="#32C67F"/>
<path d="M81.1124 147.747C81.0961 147.923 81.0853 148.102 81.0636 148.278C81.023 148.608 80.9553 148.947 81.3182 149.155C81.6621 149.353 82.044 149.234 82.22 148.995C82.7373 148.299 83.241 148.741 83.6932 148.979C84.2078 149.253 83.9911 149.778 83.8909 150.192C83.3926 152.27 81.8679 152.86 80.0995 151.682C78.7834 150.802 78.4557 150.753 77.1368 151.709C75.4009 152.966 73.8248 152.446 72.5709 151.127C72.3515 150.894 72.1647 150.596 72.0645 150.293C71.6501 149.063 72.1186 148.532 73.3833 148.73C74.0495 148.836 74.6507 149.069 75.1924 149.467C75.5526 149.735 75.9696 149.916 76.3271 149.553C76.7062 149.169 76.411 148.781 76.1754 148.427C75.3928 147.251 75.3928 146.653 76.1511 145.973C76.7441 145.442 77.3156 145.415 77.868 146.019C78.0711 146.241 78.2417 146.488 78.4394 146.712C79.0027 147.349 79.4387 147.354 80.002 146.731C80.1618 146.553 80.2999 146.352 80.4732 146.187C80.7955 145.884 81.2153 145.626 81.5809 145.976C81.8869 146.266 81.9302 146.723 81.6513 147.138C81.5023 147.36 81.3724 147.587 81.1205 147.709C81.0095 147.536 81.0338 147.297 80.8686 147.151C80.717 147.018 80.5437 147.018 80.3812 147.127C80.1916 147.254 80.0941 147.438 80.1645 147.66C80.2322 147.869 80.411 147.885 80.6005 147.836C80.7657 147.796 80.9255 147.695 81.1124 147.747Z" fill="#FDFDFD"/>
<path d="M83.5852 118.196C83.6691 117.787 83.7856 117.383 83.8262 116.969C83.9102 116.129 83.3631 115.742 82.5832 116.091C82.3151 116.21 82.0767 116.408 81.8466 116.598C79.9671 118.152 78.2068 119.829 76.7796 121.814C76.3626 122.396 76.0565 122.431 75.5095 122.028C74.9841 121.64 74.3775 121.356 73.6978 120.966C77.8033 117.253 81.5216 113.112 86.7754 110.496C86.3827 113.516 84.9907 115.923 83.7856 118.401C83.6096 118.439 83.5202 118.393 83.5852 118.196Z" fill="#FDFDFD"/>
<path d="M112.191 209.845C113.332 207.51 114.761 205.398 116.064 203.215C116.386 202.676 116.728 202.132 116.936 201.544C117.123 201.011 117.35 201.086 117.721 201.29C118.588 201.766 119.465 202.227 120.34 202.684C120.657 202.849 120.866 202.977 120.654 203.429C119.723 205.438 118.824 207.464 117.943 209.495C117.713 210.029 117.418 210.197 116.839 210.083C115.33 209.785 113.787 210.197 112.191 209.845Z" fill="#D3925C"/>
<path d="M112.178 205.615C111.939 203.047 111.233 200.564 110.797 198.032C110.599 196.884 110.366 195.741 110.149 194.598C111.449 196.112 112.95 197.452 114.063 199.129C114.176 199.299 114.328 199.494 114.51 199.567C115.558 199.992 115.135 200.542 114.737 201.195C113.849 202.646 113.025 204.136 112.178 205.615Z" fill="#363636"/>
<path d="M77.1211 123.013C78.7108 121.145 80.3952 119.419 82.4047 117.811C81.7006 120.359 80.2355 122.409 79.3011 124.765C78.551 124.167 77.8415 123.593 77.1211 123.013Z" fill="#FCFCFC"/>
<path d="M82.3641 200.084C82.3587 201.083 81.5544 202.048 80.7311 202.039C80.046 202.034 79.2254 201.056 79.2389 200.263C79.2552 199.337 80.0649 198.535 80.964 198.554C81.8279 198.576 82.3695 199.166 82.3641 200.084Z" fill="#33C57F"/>
<path d="M77.5301 156.643C76.9343 156.009 76.6797 155.232 76.2871 154.539C76.1517 154.301 76.2058 154.146 76.4793 154.076C77.2241 153.884 77.8226 153.439 78.413 152.979C78.524 152.892 78.6404 152.741 78.7867 152.89C78.8571 152.96 78.914 153.117 78.8869 153.204C78.5077 154.349 78.4861 155.633 77.5301 156.643Z" fill="#E18173"/>
<path d="M74.0908 154.208C74.7706 154.049 75.0035 154.301 75.166 154.883C75.3636 155.592 75.6913 156.28 76.0488 156.93C76.7177 158.146 77.235 158.319 78.5105 157.881C77.6737 159.2 77.0237 159.254 76.0569 158.122C75.082 156.984 74.5593 155.622 74.0908 154.208Z" fill="#F7F7F7"/>
<path d="M127.434 187.787C127.431 188.299 126.962 188.607 126.505 188.388C126.101 188.196 125.714 187.974 125.308 187.789C125.002 187.649 124.804 187.519 125.004 187.129C125.208 186.739 125.405 186.728 125.774 186.934C126.185 187.164 126.651 187.291 127.09 187.475C127.233 187.538 127.472 187.516 127.434 187.787Z" fill="#C48B5D"/>
<path d="M81.1129 147.747C80.7907 148.045 80.4738 148.464 79.9863 148.115C79.6803 147.896 79.7697 147.541 79.9268 147.232C80.138 146.818 80.4494 146.544 80.9152 146.75C81.3621 146.948 81.3512 147.327 81.1183 147.712C81.1183 147.709 81.1129 147.747 81.1129 147.747Z" fill="#050505"/>
<path d="M83.5853 118.195C83.653 118.266 83.7207 118.333 83.7884 118.404C83.4797 119.103 83.1682 119.799 82.8595 120.497C82.7972 120.473 82.7349 120.451 82.6699 120.427C82.9759 119.679 83.2793 118.937 83.5853 118.195Z" fill="#AAABAB"/>
<path d="M211.962 300.451C214.505 297.29 216.948 294.281 219.358 291.248C221.939 288.001 224.503 284.738 227.041 281.458C227.458 280.919 227.629 280.963 228.048 281.461C229.836 283.576 231.829 285.502 233.819 287.419C234.44 288.015 234.659 288.451 234.198 289.32C233.177 291.251 232.078 293.149 231.249 295.181C231.173 295.365 231.087 295.457 230.878 295.5C225.963 296.548 221.167 298.059 216.3 299.3C214.919 299.652 213.538 300.031 211.962 300.451Z" fill="#363636"/>
<path d="M248.008 300.971C236.471 300.649 225.051 301.399 213.59 301.15C215.242 300.719 216.897 300.283 218.549 299.855C222.487 298.831 226.424 297.8 230.37 296.798C231.12 296.608 231.697 296.131 232.203 295.652C232.666 295.213 233.138 294.829 233.677 294.509C235.637 293.345 237.571 292.137 239.402 290.775C239.865 290.431 240.19 290.455 240.515 290.945C242.752 294.339 245.565 297.293 247.873 300.635C247.903 300.678 247.916 300.738 248.008 300.971Z" fill="#363636"/>
<path d="M241.57 289.228C242.58 288.646 243.569 288.088 244.544 287.511C244.817 287.349 244.909 287.376 245.048 287.693C246.743 291.609 248.88 295.297 250.992 298.994C251.374 299.66 251.035 299.877 250.634 300.202C250.096 300.641 250.028 300.042 249.876 299.823C247.355 296.121 244.538 292.654 241.57 289.228Z" fill="#363636"/>
<path d="M238.54 290.241C236.896 291.574 235.236 292.584 233.424 293.529C233.847 292.711 234.258 291.888 234.7 291.081C235.028 290.479 235.155 289.559 235.729 289.364C236.222 289.196 236.942 289.702 237.562 289.911C237.836 290.006 238.115 290.098 238.54 290.241Z" fill="#595959"/>
<path d="M237.406 285.67C235.667 286.574 235.664 286.577 234.495 285.269C233.734 284.421 232.975 283.571 232.314 282.58C233.14 283.097 233.964 283.622 234.795 284.129C235.64 284.64 236.496 285.133 237.406 285.67Z" fill="#3C3C3C"/>
<path d="M241.815 286.824C240.442 288.01 239.055 288.178 237.661 287.1C238.882 285.548 240.344 286.491 241.815 286.824Z" fill="#5B5B5B"/>
<path d="M143.647 282.314C144.758 284.356 145.857 286.341 146.921 288.348C147.222 288.917 147.606 289.39 148.064 289.832C149.749 291.457 151.587 292.93 153.118 294.712C154.312 296.101 154.388 297.88 154.623 299.584C154.68 299.993 154.29 299.763 154.101 299.727C152.183 299.375 150.277 298.977 148.367 298.593C145.578 298.032 142.756 297.618 139.951 297.138C139.626 297.082 139.309 296.984 138.984 296.925C138.531 296.843 138.315 296.613 138.326 296.126C138.334 295.741 138.236 295.354 138.204 294.964C138.095 293.677 138.03 292.489 139.079 291.384C140.254 290.141 140.85 288.472 141.578 286.923C142.28 285.431 142.932 283.917 143.647 282.314Z" fill="#363636"/>
<path d="M153.545 289.188C151.728 288.809 149.949 288.443 148.173 288.069C147.845 287.999 147.569 287.853 147.39 287.533C146.399 285.762 145.378 284.01 144.498 282.025C146.098 282.436 147.617 282.705 149.153 282.872C149.451 282.905 149.521 283.143 149.651 283.338C150.929 285.258 152.208 287.181 153.545 289.188Z" fill="#585858"/>
<path d="M158.948 292.208C159.457 293.483 159.885 294.639 160.524 295.696C160.784 296.126 160.635 296.308 160.278 296.541C158.899 297.442 157.529 298.363 156.172 299.3C155.78 299.571 155.574 299.609 155.457 299.062C155.243 298.044 154.986 297.036 154.756 296.021C154.694 295.744 154.734 295.522 155.005 295.325C156.332 294.358 157.686 293.426 158.948 292.208Z" fill="#363636"/>
<path d="M149.087 289.212C152.299 289.445 155.127 290.517 157.97 291.703C157.778 292.118 157.323 292.315 156.968 292.6C156.41 293.047 155.787 293.418 155.216 293.848C154.1 294.688 154.041 294.747 153.188 293.683C151.944 292.126 150.528 290.723 149.087 289.212Z" fill="#585858"/>
<path d="M205.664 316.738C203.857 317.014 202.175 317.445 200.486 317.848C200.101 317.94 199.792 318.002 199.508 317.537C199.159 316.96 198.476 316.865 197.84 316.803C195.754 316.6 193.677 316.321 191.565 316.277C191.584 315.933 191.86 315.814 192.036 315.635C194.162 313.431 196.307 311.248 198.419 309.03C198.834 308.597 199.012 308.475 199.462 309.044C201.195 311.229 203.004 313.355 204.775 315.511C205.076 315.874 205.441 316.193 205.664 316.738Z" fill="#363636"/>
<path d="M210.63 315.115C210.528 315.186 210.482 315.232 210.427 315.25C209.471 315.586 208.442 316.307 207.578 316.144C206.714 315.982 206.273 314.72 205.623 313.959C205.122 313.371 204.656 312.756 204.125 312.09C204.421 311.99 204.664 311.963 204.838 311.838C206.086 310.945 206.964 311.394 207.863 312.469C208.662 313.428 209.666 314.211 210.63 315.115Z" fill="#373737"/>
<path d="M200.9 308.174C201.371 308.35 201.848 308.516 202.316 308.705C203.175 309.054 204.028 309.42 204.997 309.826C204.361 310.135 203.825 310.36 203.326 310.652C203.031 310.826 202.907 310.69 202.744 310.498C202.119 309.767 201.488 309.044 200.859 308.318C200.87 308.269 200.886 308.22 200.9 308.174Z" fill="#3C3C3C"/>
<path d="M140.429 314.094C135.103 313.853 130 313.363 124.652 312.789C125.372 312.104 125.965 311.527 126.569 310.964C128.744 308.93 130.932 306.915 133.085 304.86C133.521 304.443 133.721 304.54 134.055 304.949C134.948 306.04 135.766 307.243 136.836 308.137C138.734 309.721 139.013 312.142 140.429 314.094Z" fill="#363636"/>
<path d="M145.34 311.302C144.178 312.147 143.184 312.971 142.312 313.924C141.83 314.452 141.47 314.33 141.24 313.751C140.604 312.164 139.661 310.736 138.873 309.114C141.04 309.848 143.141 310.558 145.34 311.302Z" fill="#373737"/>
<path d="M104.454 179.148C104.091 178.69 103.709 178.455 103.894 177.962C103.95 177.81 104.143 177.786 104.278 177.878C104.687 178.157 104.557 178.547 104.454 179.148Z" fill="#FEFEFE"/>
<path d="M193.771 297.277C195.02 295.922 196.266 294.566 197.514 293.212C197.555 293.168 197.62 293.087 197.644 293.098C198.27 293.344 198.576 293.973 199.104 294.336C199.423 294.555 199.291 294.769 199.144 295.015C198.855 295.5 198.47 295.966 198.329 296.494C198.072 297.466 197.474 297.593 196.607 297.52C195.697 297.444 194.776 297.504 193.858 297.504C193.831 297.426 193.801 297.352 193.771 297.277Z" fill="#373737"/>
<path d="M199.789 295.216C200.231 295.798 200.293 296.502 200.558 297.12C200.664 297.366 200.577 297.51 200.285 297.502C199.814 297.491 199.167 297.68 198.915 297.442C198.641 297.185 199.156 296.695 199.315 296.299C199.456 295.947 199.619 295.601 199.789 295.216Z" fill="#3A3A3A"/>
<path d="M59.153 137.185C62.419 137.616 65.9044 138.195 69.3031 139.224C70.1914 139.492 71.0824 139.763 71.9463 140.099C72.4554 140.297 72.9321 140.646 72.9645 141.253C72.997 141.857 72.58 142.144 72.0221 142.268C71.7215 142.333 71.7703 142.631 71.6944 142.851C70.6762 145.87 68.8455 148.112 65.6607 148.985C60.7454 150.33 55.7922 146.203 56.7292 140.546C56.8078 140.072 56.9973 139.622 57.2817 139.227C57.4956 138.932 57.6229 138.702 57.4794 138.268C57.2465 137.564 57.8233 137.161 59.153 137.185Z" fill="black"/>
<path d="M61.7249 114.223C59.8102 116.346 58.8488 118.797 57.7845 121.201C56.6335 123.801 55.7588 126.49 54.9193 129.199C54.8841 129.312 54.8678 129.432 54.8272 129.543C54.7026 129.884 54.5835 130.274 54.1014 130.16C53.5679 130.035 53.6465 129.597 53.7115 129.215C53.8956 128.094 54.1691 126.991 54.5239 125.911C55.8319 121.927 57.3864 118.057 59.6504 114.507C60.0675 113.852 60.4872 113.18 61.1372 112.717C61.8928 112.178 62.6023 112.354 62.9625 113.196C63.2008 113.751 63.3091 114.347 63.3145 114.951C63.3524 118.285 63.255 121.613 62.8596 124.931C62.7783 125.613 62.6131 126.128 61.7682 125.952C61.4974 125.895 61.3213 126.095 61.1101 126.184C59.5665 126.843 58.0932 127.639 56.6606 128.505C56.3979 128.665 56.0838 128.849 55.8509 128.595C55.5557 128.27 55.8401 127.991 56.0865 127.761C57.4785 126.463 58.9761 125.321 60.7824 124.657C61.3159 124.462 61.473 124.172 61.5001 123.606C61.6409 120.668 61.9334 117.735 61.7655 114.789C61.7601 114.648 61.7465 114.507 61.7249 114.223Z" fill="#010101"/>
<path d="M126.033 199.9C126.133 199.675 126.247 199.402 126.374 199.136C127.116 197.579 127.858 196.019 128.608 194.465C128.725 194.224 128.857 193.985 129.02 193.777C129.142 193.62 129.315 193.427 129.548 193.568C129.765 193.701 129.868 193.901 129.751 194.18C128.89 196.241 128.029 198.299 126.856 200.209C126.715 200.439 126.52 200.669 126.198 200.517C125.957 200.404 126.052 200.157 126.033 199.9Z" fill="#020202"/>
<path d="M119.902 189.26C119.858 189.382 119.807 189.582 119.72 189.767C118.802 191.73 117.884 193.691 116.958 195.649C116.863 195.849 116.779 196.161 116.462 196.028C116.094 195.874 116.381 195.635 116.446 195.437C117.115 193.436 118.006 191.53 118.978 189.661C119.116 189.396 119.257 189.13 119.52 188.96C119.791 188.781 119.891 188.9 119.902 189.26Z" fill="#030303"/>
<path d="M77.7033 148.602C77.1428 148.616 76.3601 147.901 76.3682 147.365C76.3736 146.869 76.6363 146.582 77.1346 146.555C77.6898 146.525 78.3425 147.262 78.3452 147.898C78.3452 148.313 78.0906 148.594 77.7033 148.602Z" fill="#060606"/>
<path d="M67.9919 142.385C68.8802 142.39 69.5382 143.099 69.522 144.031C69.5057 144.968 68.7745 145.71 67.87 145.705C66.979 145.699 66.2885 144.998 66.2803 144.091C66.2722 143.132 67.0278 142.376 67.9919 142.385Z" fill="#FCFCFC"/>
</svg>
