<svg xmlns="http://www.w3.org/2000/svg" width="152" height="102" fill="none" viewBox="0 0 152 102"><rect width="135.364" height="99" x="15.568" y="1.25" fill="#fff" stroke="#E2E6EF" rx="4.5"/><rect width="12.467" height="8.182" x="31.324" y="20.863" fill="#E2E6EF" rx="4.091"/><rect width="12.467" height="8.182" x="86.247" y="20.863" fill="#E2E6EF" rx="4.091"/><rect width="12.467" height="8.182" x="108.715" y="20.863" fill="#E2E6EF" rx="4.091"/><rect width="12.467" height="8.182" x="63.779" y="20.863" fill="#E2E6EF" rx="4.091"/><line x1="29.649" x2="136.85" y1="14.954" y2="14.954" stroke="#E2E6EF"/><rect width="8.182" height="8.182" x="53.649" y="20.863" fill="#BFDCF6" rx="4.091"/><rect width="8.182" height="8.182" x="128.668" y="20.863" fill="#3291E9" rx="4.091"/><path fill="#E2E6EF" d="M102.2 27.4177L104.664 24.9541L102.2 22.4905L102.95 21.7407L106.163 24.9541L102.95 28.1675L102.2 27.4177Z"/><rect width="12.467" height="8.182" x="31.324" y="39.863" fill="#E2E6EF" rx="4.091"/><rect width="12.467" height="8.182" x="86.247" y="39.863" fill="#E2E6EF" rx="4.091"/><rect width="12.467" height="8.182" x="108.715" y="39.863" fill="#E2E6EF" rx="4.091"/><rect width="12.467" height="8.182" x="63.779" y="39.863" fill="#E2E6EF" rx="4.091"/><line x1="29.649" x2="136.85" y1="33.954" y2="33.954" stroke="#E2E6EF"/><rect width="8.182" height="8.182" x="53.649" y="39.863" fill="#BFDCF6" rx="4.091"/><rect width="8.182" height="8.182" x="128.668" y="39.863" fill="#3291E9" rx="4.091"/><path fill="#E2E6EF" d="M102.2 46.4177L104.664 43.9541L102.2 41.4905L102.95 40.7407L106.163 43.9541L102.95 47.1675L102.2 46.4177Z"/><path fill="#E2E6EF" d="M26.4316 62.9542C26.4316 60.6948 28.2632 58.8633 30.5226 58.8633H44.5585C46.8179 58.8633 48.6494 60.6948 48.6494 62.9542C48.6494 65.2135 46.8179 67.0451 44.5585 67.0451H30.5226C28.2632 67.0451 26.4316 65.2135 26.4316 62.9542Z"/><rect width="12.467" height="8.182" x="86.247" y="58.863" fill="#E2E6EF" rx="4.091"/><rect width="12.467" height="8.182" x="108.715" y="58.863" fill="#E2E6EF" rx="4.091"/><rect width="12.467" height="8.182" x="63.779" y="58.863" fill="#E2E6EF" rx="4.091"/><path stroke="#E2E6EF" d="M45.6494 52.9541H136.85"/><rect width="8.182" height="8.182" x="53.649" y="58.863" fill="#BFDCF6" rx="4.091"/><rect width="8.182" height="8.182" x="128.668" y="58.863" fill="#3291E9" rx="4.091"/><path fill="#E2E6EF" d="M102.2 65.4177L104.664 62.9541L102.2 60.4905L102.95 59.7407L106.163 62.9541L102.95 66.1675L102.2 65.4177Z"/><rect width="12.467" height="8.182" x="31.324" y="77.863" fill="#E2E6EF" rx="4.091"/><rect width="12.467" height="8.182" x="86.247" y="77.863" fill="#E2E6EF" rx="4.091"/><rect width="12.467" height="8.182" x="108.715" y="77.863" fill="#E2E6EF" rx="4.091"/><rect width="12.467" height="8.182" x="63.779" y="77.863" fill="#E2E6EF" rx="4.091"/><path stroke="#E2E6EF" d="M46.6494 71.9541H136.85"/><rect width="8.182" height="8.182" x="53.649" y="77.863" fill="#BFDCF6" rx="4.091"/><rect width="8.182" height="8.182" x="128.668" y="77.863" fill="#3291E9" rx="4.091"/><path fill="#E2E6EF" d="M102.2 84.4177L104.664 81.9541L102.2 79.4905L102.95 78.7407L106.163 81.9541L102.95 85.1675L102.2 84.4177Z"/><circle cx="31.742" cy="62.874" r="15.331" stroke="#3291E9" stroke-width="5" transform="rotate(38.1942 31.7422 62.8738)"/><line x1="20.852" x2="3.995" y1="76.411" y2="97.836" stroke="#3291E9" stroke-linecap="round" stroke-width="5"/></svg>