<svg width="111" height="105" viewBox="0 0 111 105" fill="none" xmlns="http://www.w3.org/2000/svg">
<path d="M2 100.168V18.7987C2 18.0088 2.46483 17.293 3.18634 16.9717L35.9967 2.35942C36.5108 2.13048 37.0975 2.1287 37.613 2.35452L71.3959 17.1553C71.8983 17.3754 72.469 17.3795 72.9745 17.1667L106.224 3.16871C107.542 2.61372 109 3.58169 109 5.01201V88.5658C109 89.4123 108.467 90.1671 107.669 90.4504L72.8658 102.813C72.4245 102.97 71.9422 102.967 71.5029 102.804L37.5029 90.2362C37.052 90.0695 36.5561 90.0709 36.106 90.24L4.70349 102.04C3.39579 102.531 2 101.564 2 100.168Z" stroke="#4F4F4F" stroke-width="4"/>
<path d="M26.7778 72.9889H74.9302C76.5618 72.9889 78.2006 72.6338 79.5146 71.6664C84.7153 67.8373 88.6481 60.4688 79.7651 53.5379C78.2919 52.3885 76.4244 51.9059 74.5558 51.9059H49.8715C48.2532 51.9059 46.6212 51.5628 45.3226 50.597C39.7719 46.4687 37.6894 39.0598 45.0756 33.0328C46.5211 31.8532 48.3965 31.3778 50.2622 31.3778H77.4149" stroke="#4F4F4F" stroke-width="4"/>
<circle cx="24.4" cy="72.9889" r="6.75556" fill="#31C77F" stroke="#4F4F4F" stroke-width="4"/>
<circle cx="85.0334" cy="33.7556" r="6.75556" fill="#31C77F" stroke="#4F4F4F" stroke-width="4"/>
</svg>
