<?xml version="1.0" encoding="utf-8"?>
<!-- Generator: Adobe Illustrator 25.2.0, SVG Export Plug-In . SVG Version: 6.00 Build 0)  -->
<svg version="1.1" id="Layer_1" xmlns="http://www.w3.org/2000/svg" xmlns:xlink="http://www.w3.org/1999/xlink" x="0px" y="0px"
	 viewBox="0 0 109 109" style="enable-background:new 0 0 109 109;" xml:space="preserve">
<style type="text/css">
	.st0{fill:#4F4F4F;}
	.st1{fill:#31C77F;}
</style>
<path class="st0" d="M105.4,94.2h-6.7V38c0-3.6-2.9-6.5-6.5-6.5H72.3c-0.9,0-1.5,0.7-1.5,1.5c0,0.9,0.7,1.5,1.5,1.5h19.8
	c1.9,0,3.4,1.5,3.4,3.4v56.3h-5.3c0.1-0.6,0.1-1.2,0.1-1.8c0-7.2-5.9-13.1-13.1-13.1c-1,0-1.9,0.1-2.9,0.3c-1.7-3.2-5-5.3-8.7-5.3
	c-1.2,0-2.4,0.2-3.5,0.6c-0.5-4.1-3.9-7.3-8.1-7.3s-7.7,3.2-8.1,7.3c-1.1-0.4-2.3-0.6-3.5-0.6c-3.7,0-7,2.1-8.7,5.3
	c-1-0.2-1.9-0.3-2.9-0.3c-7.2,0-13.1,5.9-13.1,13.1c0,0.6,0,1.2,0.1,1.8h-5.3V38c0-1.9,1.5-3.4,3.4-3.4H36c0.9,0,1.5-0.7,1.5-1.5
	c0-0.9-0.7-1.5-1.5-1.5H16.2c-3.6,0-6.5,2.9-6.5,6.5v56.3H2.9c-0.9,0-1.5,0.7-1.5,1.5v3.3c0,2.7,2.2,4.8,4.8,4.8h95.8
	c2.7,0,4.8-2.2,4.8-4.8v-3.3C106.9,94.9,106.2,94.2,105.4,94.2z M103.8,99.1c0,1-0.8,1.8-1.8,1.8H6.3c-1,0-1.8-0.8-1.8-1.8v-1.8
	h19.9c0.9,0,1.5-0.7,1.5-1.5c0-0.9-0.7-1.5-1.5-1.5h-3.3c-0.1-0.6-0.2-1.2-0.2-1.8c0-5.5,4.5-10,10-10c1.1,0,2.2,0.2,3.3,0.6
	c0.4,0.1,0.8,0.1,1.2-0.1c0.4-0.2,0.7-0.5,0.8-0.9c0.9-2.7,3.5-4.6,6.3-4.6c1.6,0,3,0.6,4.3,1.6c0.5,0.4,1.3,0.5,1.9,0.1
	c0.6-0.4,0.8-1.1,0.6-1.7c-0.2-0.6-0.3-1-0.3-1.5c0-2.8,2.3-5.1,5.1-5.1s5.1,2.3,5.1,5.1c0,0.5-0.1,0.9-0.3,1.5
	c-0.2,0.7,0,1.4,0.6,1.7c0.6,0.4,1.3,0.3,1.9-0.1c1.2-1,2.7-1.6,4.3-1.6c2.8,0,5.4,1.8,6.3,4.6c0.1,0.4,0.4,0.7,0.8,0.9
	c0.4,0.2,0.8,0.2,1.2,0.1c1.1-0.4,2.2-0.6,3.3-0.6c5.5,0,10,4.5,10,10c0,0.6-0.1,1.2-0.2,1.8H31c-0.9,0-1.5,0.7-1.5,1.5
	c0,0.9,0.7,1.5,1.5,1.5h72.8V99.1z"/>
<path class="st0" d="M34.3,50.5c-1,1.2-1.5,2.6-1.5,4.2v4.8c0,0.5,0.3,1.1,0.8,1.3c0.2,0.1,0.5,0.2,0.8,0.2c0.3,0,0.5-0.1,0.8-0.2
	l11-6.2c0.4,0.8,0.9,1.5,1.3,2.3l-1.4,5.5c-0.1,0.5,0,1,0.3,1.3c0.3,0.4,0.7,0.6,1.2,0.6h13.2c0.5,0,0.9-0.2,1.2-0.6
	c0.3-0.4,0.4-0.9,0.3-1.3l-1.4-5.5c0.5-0.7,0.9-1.5,1.3-2.3l11,6.2c0.2,0.1,0.5,0.2,0.8,0.2c0.3,0,0.5-0.1,0.8-0.2
	c0.5-0.3,0.8-0.8,0.8-1.3v-4.8c0-1.5-0.5-3-1.5-4.2l-7.3-8.8c0.4-2.3,0.6-4.6,0.6-7c0-5.6-1.1-11.1-3.2-16.2c-2.1-4.9-5-9.3-8.8-13
	c-0.6-0.6-1.6-0.6-2.2,0c-3.8,3.7-6.7,8.1-8.8,13c-2.2,5.1-3.2,10.6-3.2,16.2c0,2.4,0.2,4.7,0.6,7L34.3,50.5z M35.9,56.8v-2.2
	c0-0.8,0.3-1.6,0.8-2.2l5.8-7c0.6,2.2,1.3,4.3,2.3,6.3L35.9,56.8z M49.5,61.2l0.9-3.5h7.5l0.9,3.5H49.5z M71.6,52.4
	c0.5,0.6,0.8,1.4,0.8,2.2v2.2l-8.8-5c0.9-2,1.7-4.1,2.3-6.3L71.6,52.4z M54.2,8.8c2.6,2.8,4.7,6,6.4,9.5H47.8
	C49.4,14.8,51.6,11.6,54.2,8.8z M46.5,21.3h15.3c1.5,4.2,2.4,8.7,2.4,13.3c0,7.1-1.9,14-5.5,19.9h-9c-3.6-6-5.5-12.8-5.5-19.9
	C44.1,30.1,45,25.6,46.5,21.3z"/>
<path class="st1" d="M60.7,33c0-3.6-2.9-6.5-6.5-6.5c-3.6,0-6.5,2.9-6.5,6.5s2.9,6.5,6.5,6.5C57.7,39.5,60.7,36.6,60.7,33z M50.8,33
	c0-1.9,1.5-3.4,3.4-3.4c1.9,0,3.4,1.5,3.4,3.4c0,1.9-1.5,3.4-3.4,3.4C52.3,36.4,50.8,34.9,50.8,33z"/>
</svg>
