<?xml version="1.0" encoding="utf-8"?>
<!-- Generator: Adobe Illustrator 25.2.0, SVG Export Plug-In . SVG Version: 6.00 Build 0)  -->
<svg version="1.1" id="Layer_1" xmlns="http://www.w3.org/2000/svg" xmlns:xlink="http://www.w3.org/1999/xlink" x="0px" y="0px"
	 viewBox="0 0 109 109" style="enable-background:new 0 0 109 109;" xml:space="preserve">
<style type="text/css">
	.st0{clip-path:url(#SVGID_2_);}
	.st1{fill:none;stroke:#31C77F;stroke-width:5;}
	.st2{fill:#4F4F4F;}
</style>
<g>
	<defs>
		<rect id="SVGID_1_" x="1.7" y="4.1" width="106.8" height="100.7"/>
	</defs>
	<clipPath id="SVGID_2_">
		<use xlink:href="#SVGID_1_"  style="overflow:visible;"/>
	</clipPath>
	<g class="st0">
		<path class="st1" d="M71.3,45.9c-3.6-4-6.3-5.3-10.1-6.6 M75.2,63.1c-0.6,3.5-2,6.6-4.1,9.3 M37,46.6c0.4-0.6,0.9-1.1,1.3-1.6
			c2.4-2.7,5.5-4.7,9-5.9 M33,62.8c0.5,3.2,1.8,6.3,3.6,8.8 M50.6,80.4c1.1,0.2,2.3,0.3,3.5,0.3c2.8,0,5.5-0.5,7.9-1.5"/>
		<path class="st2" d="M49.4,5.5c-0.3-0.3-0.6-0.4-1-0.4c-0.4,0-0.7,0.2-1,0.4c-0.3,0.3-0.4,0.6-0.4,1c0,0.4,0.2,0.7,0.4,1
			c0.3,0.3,0.6,0.4,1,0.4c0.4,0,0.7-0.2,1-0.4c0.3-0.3,0.4-0.6,0.4-1C49.8,6.1,49.6,5.7,49.4,5.5z"/>
		<path class="st2" d="M68.9,28.9l-1.2-6c-0.5-2.5-1.7-4.7-3.5-6.5l-2-2V6.5c0-0.8-0.6-1.4-1.4-1.4c-0.8,0-1.4,0.6-1.4,1.4V15
			c0,0.4,0.2,0.7,0.4,1l2.5,2.4c1.4,1.4,2.3,3.1,2.7,5l1.2,6c0,0.2,0,0.5-0.1,0.7c-0.1,0.2-0.3,0.3-0.6,0.4c-0.5,0.1-0.9-0.2-1-0.7
			l-0.6-2.5c-0.2-0.9-1-1.4-1.9-1.3c-0.9,0.1-1.6,0.8-1.6,1.8v11.7c0,0.5-0.4,0.8-0.8,0.8c-0.4,0-0.8-0.3-0.8-0.7v-6.1
			c0-0.8-0.6-1.4-1.4-1.4c0,0,0,0,0,0c0,0,0,0,0,0c-0.8,0-1.4,0.6-1.4,1.4v6c0,0.1,0,0.2,0,0.2v1.9c0,0.5-0.4,0.8-0.8,0.8
			c-0.5,0-0.8-0.4-0.8-0.8v-1.9c0-0.1,0-0.2,0-0.2v-6c0-0.8-0.6-1.4-1.4-1.4c0,0,0,0,0,0c0,0,0,0,0,0c-0.8,0-1.4,0.6-1.4,1.4v6.1
			c-0.1,0.4-0.4,0.7-0.8,0.7c-0.5,0-0.8-0.4-0.8-0.8v-2.1c0-0.1,0-0.2,0-0.2v-3.6c0-0.8-0.6-1.4-1.4-1.4c0,0,0,0,0,0c0,0,0,0,0,0
			c-0.8,0-1.4,0.6-1.4,1.4v3.7c-0.1,0.4-0.4,0.7-0.8,0.7c-0.5,0-0.8-0.4-0.8-0.8v-5v-3.4v-4.2c0-2.6,1-5,2.8-6.9l1.6-1.6
			c0.3-0.3,0.4-0.6,0.4-1v-3.4c0-0.8-0.6-1.4-1.4-1.4s-1.4,0.6-1.4,1.4v2.8l-1.2,1.2c-2.4,2.4-3.7,5.5-3.7,8.9v4.2v3.4v5
			c0,2,1.7,3.7,3.7,3.7c0.4,0,0.7-0.1,1-0.1c0.5,1.5,1.9,2.5,3.5,2.5c0.4,0,0.8-0.1,1.1-0.2c0.6,1.4,1.9,2.3,3.4,2.3
			c1.6,0,2.9-1,3.4-2.3c0.3,0.1,0.7,0.2,1.1,0.2c2,0,3.7-1.7,3.7-3.7v-6.7c0.8,0.5,1.8,0.8,2.7,0.6c1-0.2,1.9-0.7,2.4-1.6
			C68.8,31,69.1,29.9,68.9,28.9z"/>
		<path class="st2" d="M88.7,103.1c0.4,0.1,0.8,0,1.1-0.1c0.3-0.2,0.6-0.5,0.7-0.9c0.1-0.4,0-0.8-0.1-1.1c-0.2-0.3-0.5-0.6-0.9-0.7
			c-0.4-0.1-0.8,0-1.1,0.1c-0.3,0.2-0.6,0.5-0.7,0.9c-0.1,0.4,0,0.8,0.1,1.1C88,102.8,88.3,103,88.7,103.1z"/>
		<path class="st2" d="M60.1,92.5l4,4.6c1.7,1.9,3.8,3.2,6.2,3.9l2.8,0.7l4,6.9c0.4,0.7,1.3,0.9,2,0.5c0.7-0.4,0.9-1.3,0.5-2
			l-4.3-7.4c-0.2-0.3-0.5-0.6-0.9-0.7l-3.4-0.9c-1.9-0.5-3.5-1.5-4.8-3l-4-4.6C62.1,90.5,62,90.2,62,90c0-0.2,0.1-0.5,0.3-0.6
			c0.4-0.3,0.9-0.3,1.2,0.1l1.8,1.9c0.6,0.7,1.6,0.7,2.3,0.2c0.7-0.5,0.9-1.5,0.5-2.3l-5.8-10.1c-0.2-0.4-0.1-0.9,0.3-1.1
			c0.4-0.2,0.8-0.1,1.1,0.2l3,5.3c0.4,0.7,1.3,0.9,2,0.5c0,0,0,0,0,0c0,0,0,0,0,0c0.7-0.4,0.9-1.3,0.5-2l-3-5.2
			c0-0.1-0.1-0.1-0.1-0.2l-1-1.7c-0.2-0.4-0.1-0.9,0.3-1.1c0.4-0.2,0.9-0.1,1.1,0.3l1,1.7c0,0.1,0.1,0.1,0.1,0.2l3,5.2
			c0.4,0.7,1.3,0.9,2,0.5c0,0,0,0,0,0c0,0,0,0,0,0c0.7-0.4,0.9-1.3,0.5-2l-3-5.3c-0.2-0.4,0-0.8,0.4-1c0.4-0.2,0.9-0.1,1.1,0.3
			l1.1,1.9c0,0.1,0.1,0.1,0.1,0.2l1.8,3.1c0.4,0.7,1.3,0.9,2,0.5c0,0,0,0,0,0c0,0,0,0,0,0c0.7-0.4,0.9-1.3,0.5-2l-1.9-3.2
			c-0.2-0.4,0-0.8,0.4-1c0.4-0.2,0.9-0.1,1.1,0.3l2.5,4.4l1.7,3l2.1,3.6c1.3,2.2,1.6,4.9,1,7.4L83.4,94c-0.1,0.4,0,0.8,0.1,1.1
			l1.7,2.9c0.4,0.7,1.3,0.9,2,0.5c0.7-0.4,0.9-1.3,0.5-2l-1.4-2.4l0.4-1.6c0.9-3.2,0.4-6.6-1.3-9.6l-2.1-3.6l-1.7-3l-2.5-4.4
			c-1-1.8-3.3-2.4-5.1-1.4c-0.3,0.2-0.6,0.4-0.8,0.6c-1.2-1-2.9-1.2-4.3-0.4c-0.3,0.2-0.6,0.4-0.9,0.7c-1.2-0.9-2.8-1.1-4.1-0.3
			c-1.3,0.8-2,2.3-1.8,3.7c-0.4,0.1-0.7,0.2-1,0.4c-1.8,1-2.4,3.3-1.4,5.1l3.3,5.8c-0.9-0.1-1.9,0.2-2.7,0.9
			c-0.8,0.7-1.3,1.6-1.3,2.6C59.1,90.8,59.4,91.8,60.1,92.5z"/>
		<path class="st2" d="M24.7,79l-1.4,6c-0.6,2.4-0.4,5,0.5,7.3l1,2.7l-3.3,7.2c-0.3,0.7,0,1.6,0.7,1.9c0.7,0.3,1.6,0,1.9-0.7
			l3.5-7.7c0.2-0.3,0.2-0.7,0-1.1l-1.2-3.2c-0.7-1.8-0.8-3.8-0.4-5.6l1.4-6c0.1-0.2,0.2-0.4,0.4-0.6c0.2-0.1,0.4-0.2,0.7-0.1
			c0.4,0.1,0.7,0.6,0.6,1l-0.5,2.5c-0.2,0.9,0.3,1.7,1.2,2c0.9,0.3,1.8-0.1,2.1-1L36.9,73c0.2-0.4,0.7-0.6,1.1-0.4
			c0.4,0.2,0.6,0.6,0.5,1l-2.5,5.5c-0.3,0.7,0,1.6,0.7,1.9c0,0,0,0,0,0c0,0,0,0,0,0c0.7,0.3,1.6,0,1.9-0.7l2.5-5.4
			c0-0.1,0.1-0.1,0.1-0.2l0.8-1.7c0.2-0.4,0.7-0.6,1.1-0.4c0.4,0.2,0.6,0.7,0.4,1.1l-0.8,1.7c0,0.1-0.1,0.1-0.1,0.2L40.1,81
			c-0.3,0.7,0,1.6,0.7,1.9c0,0,0,0,0,0s0,0,0,0c0.7,0.3,1.6,0,1.9-0.7l2.5-5.5c0.2-0.3,0.7-0.5,1.1-0.3c0.4,0.2,0.6,0.7,0.4,1.1
			l-0.9,1.9c0,0.1-0.1,0.1-0.1,0.2l-1.5,3.3c-0.3,0.7,0,1.6,0.7,1.9c0,0,0,0,0,0c0,0,0,0,0,0c0.7,0.3,1.6,0,1.9-0.7l1.5-3.4
			c0.2-0.3,0.7-0.5,1.1-0.3c0.4,0.2,0.6,0.7,0.4,1.1l-2.1,4.6l-1.4,3.1L44.6,93c-1.1,2.4-3,4.2-5.4,5.1L37,98.8
			c-0.4,0.1-0.6,0.4-0.8,0.7l-1.4,3.1c-0.3,0.7,0,1.6,0.7,1.9c0.7,0.3,1.6,0,1.9-0.7l1.2-2.5l1.5-0.6c3.2-1.2,5.7-3.5,7.1-6.6
			l1.7-3.8l1.4-3.1l2.1-4.6c0.8-1.9,0-4.1-1.8-4.9c-0.3-0.1-0.7-0.2-1-0.3c0.2-1.5-0.7-3.1-2.1-3.8c-0.3-0.2-0.7-0.3-1.1-0.3
			c0.1-1.5-0.8-2.9-2.2-3.5c-1.4-0.6-3-0.3-4.1,0.7c-0.3-0.2-0.6-0.5-0.9-0.6c-1.9-0.8-4.1,0-4.9,1.8l-2.8,6.1
			c-0.5-0.8-1.3-1.4-2.3-1.7c-1-0.3-2-0.1-2.9,0.4S24.9,78,24.7,79z"/>
		<path class="st2" d="M33.3,64.8c0.1-0.4,0.1-0.8,0.1-1.1c1.7-0.1,3.2-1.3,3.7-3c0.1-0.4,0.2-0.8,0.1-1.2c0.5-0.1,1.1-0.2,1.5-0.5
			c1-0.5,1.6-1.4,1.9-2.5c0.4-1.7-0.2-3.4-1.5-4.3c0.2-0.3,0.4-0.7,0.5-1.1c0.3-1.1,0.1-2.2-0.4-3.1c-0.5-1-1.4-1.6-2.5-1.9L29.7,44
			c0.8-0.7,1.3-1.7,1.4-2.8c0.1-1.1-0.3-2.2-1-3.1c-0.7-0.9-1.8-1.4-2.9-1.4l-6.8-0.5c-2.8-0.2-5.5,0.5-7.9,1.8l-2.8,1.6l-4.9-1.3
			c-0.8-0.2-1.7,0.3-1.9,1.1c-0.2,0.6,0,1.1,0.4,1.5c0.2,0.2,0.4,0.3,0.7,0.4l5.6,1.5c0.4,0.1,0.8,0.1,1.2-0.2l3.3-1.9
			c1.9-1.1,4-1.6,6.1-1.4l6.8,0.5c0.3,0,0.5,0.1,0.7,0.3c0.2,0.2,0.3,0.5,0.2,0.7c0,0.5-0.5,0.9-1,0.9l-2.9-0.1c-1,0-1.8,0.7-2,1.7
			c-0.1,1,0.5,1.9,1.4,2.2L36,49c0.2,0.1,0.4,0.2,0.6,0.4c0.1,0.2,0.2,0.5,0.1,0.7c-0.1,0.2-0.2,0.4-0.4,0.6
			c-0.2,0.1-0.4,0.1-0.6,0.1L29.2,49c-0.8-0.2-1.7,0.3-1.9,1.1c0,0,0,0,0,0c0,0,0,0,0,0c-0.2,0.8,0.3,1.7,1.1,1.9l6.4,1.7
			c0.1,0,0.2,0,0.3,0.1l2,0.5c0.5,0.1,0.8,0.6,0.7,1.1c-0.1,0.5-0.6,0.8-1.1,0.7l-2-0.5c-0.1,0-0.2-0.1-0.2-0.1l-6.4-1.7
			c-0.8-0.2-1.7,0.3-1.9,1.1c0,0.1,0,0.2-0.1,0.4c0,0.5,0.2,0.9,0.5,1.2c0.2,0.2,0.4,0.3,0.7,0.4l6.5,1.7c0.4,0.2,0.7,0.6,0.5,1.1
			c-0.1,0.5-0.6,0.8-1.1,0.7l-2.3-0.6c-0.1,0-0.2-0.1-0.2-0.1l-3.9-1c-0.8-0.2-1.7,0.3-1.9,1.1c-0.1,0.5,0,1.1,0.4,1.5
			c0.2,0.2,0.4,0.3,0.7,0.4l4,1.1c0.2,0.1,0.3,0.2,0.4,0.4c0.1,0.2,0.2,0.5,0.1,0.7c-0.1,0.5-0.6,0.8-1.1,0.7l-5.7-1.5L15.6,61
			c-2.8-0.7-5.1-2.5-6.5-5l-1.2-2.2c-0.2-0.4-0.6-0.6-1-0.7l-5.6-1.5c-0.8-0.2-1.7,0.3-1.9,1.1c-0.2,0.6,0,1.1,0.4,1.5
			c0.2,0.2,0.4,0.3,0.7,0.4L5.4,56l0.9,1.6c1.9,3.2,4.9,5.5,8.5,6.5l4.5,1.2c0,0,0,0,0,0l3.3,0.9l0.3,0.1l5.4,1.4
			C30.5,68.3,32.7,67,33.3,64.8z"/>
		<path class="st2" d="M69.6,46c0.1,0.4,0.3,0.7,0.4,1.1c-1.4,1-2.2,2.7-1.7,4.5c0.1,0.4,0.3,0.8,0.5,1.1c-0.4,0.3-0.8,0.7-1.1,1.2
			c-0.5,1-0.7,2.1-0.4,3.1c0.4,1.7,1.9,2.8,3.5,3c0,0.4,0,0.8,0.1,1.2c0.3,1.1,1,1.9,1.9,2.5c1,0.5,2.1,0.7,3.1,0.4l7.2-1.9
			c-0.3,1-0.3,2.1,0.2,3.1c0.5,1,1.3,1.8,2.4,2.2c1.1,0.4,2.2,0.3,3.2-0.2l6.1-3c2.5-1.2,4.5-3.1,5.9-5.6l1.6-2.8l4.9-1.3
			c0.8-0.2,1.4-1.1,1.1-1.9c-0.2-0.6-0.6-1-1.1-1.1c-0.3-0.1-0.5-0.1-0.8,0l-5.6,1.5c-0.4,0.1-0.8,0.4-1,0.7l-1.9,3.3
			c-1.1,1.9-2.7,3.3-4.6,4.3l-6.1,3c-0.2,0.1-0.5,0.1-0.8,0c-0.3-0.1-0.5-0.3-0.6-0.5c-0.2-0.5,0-1,0.4-1.3l2.5-1.4
			c0.9-0.5,1.3-1.5,0.9-2.5c-0.4-0.9-1.4-1.4-2.3-1.2l-12.5,3.4c-0.2,0.1-0.5,0-0.7-0.1c-0.2-0.1-0.4-0.3-0.4-0.6
			c-0.1-0.2,0-0.5,0.1-0.7c0.1-0.2,0.3-0.3,0.5-0.4l6.5-1.7c0.8-0.2,1.4-1.1,1.1-1.9c0,0,0,0,0,0c0,0,0,0,0,0
			c-0.2-0.8-1.1-1.4-1.9-1.1l-6.4,1.7c-0.1,0-0.2,0-0.2,0.1l-2,0.5c-0.5,0.1-1-0.2-1.1-0.7c-0.1-0.5,0.2-1,0.7-1.1l2-0.5
			c0.1,0,0.2,0,0.3-0.1l6.4-1.7c0.8-0.2,1.4-1.1,1.1-1.9c0-0.1-0.1-0.2-0.1-0.3c-0.2-0.4-0.6-0.7-1-0.8c-0.3-0.1-0.5-0.1-0.8,0
			l-6.5,1.7c-0.5,0.1-0.9-0.2-1-0.7c-0.1-0.5,0.2-1,0.7-1.1l2.3-0.6c0.1,0,0.2,0,0.3-0.1l3.9-1c0.8-0.2,1.4-1.1,1.1-1.9
			c-0.1-0.5-0.6-1-1.1-1.1c-0.3-0.1-0.5-0.1-0.8,0l-4,1.1c-0.2,0-0.4,0-0.6-0.1c-0.2-0.1-0.4-0.3-0.4-0.6c-0.1-0.5,0.2-1,0.7-1.1
			l5.7-1.5l7.8-2.1c2.8-0.7,5.7-0.4,8.2,1.1l2.2,1.2c0.4,0.2,0.8,0.3,1.2,0.2l5.6-1.5c0.8-0.2,1.4-1.1,1.1-1.9
			c-0.2-0.6-0.6-1-1.1-1.1c-0.3-0.1-0.5-0.1-0.8,0l-4.9,1.3l-1.6-0.9c-3.2-1.9-7-2.4-10.6-1.4l-4.5,1.2c0,0,0,0,0,0l-3.3,0.9
			l-0.3,0.1L72.5,41C70.4,41.6,69,43.8,69.6,46z"/>
	</g>
</g>
</svg>
